<?xml version="1.0" standalone="no"?>
<!DOCTYPE svg PUBLIC "-//W3C//DTD SVG 1.1//EN" "http://www.w3.org/Graphics/SVG/1.1/DTD/svg11.dtd" >
<svg xmlns="http://www.w3.org/2000/svg" width="100%" height="100%">
<metadata>
Created by FontXChange 20110222 at Thu May  9 13:42:40 2013
 By Jadiel Flores
Copyright (c) 1981, 1982, 1983, 1989 and 1993, Linotype Library GmbH or its affiliated Linotype-Hell companies. All rights reserved.

The digitally encoded machine readable software for producing the Typefaces licensed to you is now the property of Heidelberger Druckmaschinen AG and its licensors, and may not be reproduced, used, displayed, modified, disclosed or transferred without the express written approval of Heidelberger Druckmaschinen AG.

Copyright (c) 1988, 1990, 1993 Adobe Systems Incorporated. All Rights Reserved.
</metadata>
<defs>
<font id="Optima-Regular" horiz-adv-x="556" >
  <font-face 
    font-family="Optima"
    font-weight="400"
    font-stretch="normal"
    units-per-em="1000"
    panose-1="2 0 5 3 6 0 0 2 0 4"
    ascent="800"
    descent="-200"
    x-height="472.998"
    cap-height="685.001"
    bbox="-329.998 -268.001 1000 919"
    underline-thickness="50"
    underline-position="-75"
    unicode-range="U+0008-FB02"
  />
<missing-glyph horiz-adv-x="500" 
d="M50 0v533h400v-533h-400zM100 50h300v433h-300v-433z" />
    <glyph glyph-name="fi" unicode="fi" 
d="M300 669l6 2.99707c0 13.333 0.5 26.666 1.5 39.999s1.83301 26.666 2.5 39.999c-6 2 -12.667 3 -20 3c-19.333 0 -38.166 -4.66699 -56.499 -14s-33.5 -20 -45.5 -32c-13.333 -13.333 -25.333 -29.833 -36 -49.5s-19.834 -40.5 -27.501 -62.5s-13.5 -44.333 -17.5 -67
s-6 -43.667 -6 -63c-11.333 0 -23.166 0.166992 -35.499 0.5s-24.5 0.5 -36.5 0.5c0.666992 -3.33301 1.16699 -6.66602 1.5 -9.99902s0.5 -6.66602 0.5 -9.99902s-0.166992 -6.66602 -0.5 -9.99902s-0.833008 -6.66602 -1.5 -9.99902l36 2c12 0.666992 24 1 36 1
c0 -74 -0.333008 -146.5 -1 -217.5s-3.33398 -142.833 -8 -215.5c15.333 1.33301 30 2 44 2h21c7.33301 0 14.666 -0.666992 21.999 -2c-2 72.667 -3.16699 144.834 -3.5 216.501s-0.5 143.834 -0.5 216.501c17.333 0 34.5 -0.333008 51.5 -1
c17 -0.672852 34.167 -1.33984 51.5 -2c-0.666992 3.33984 -1.16699 6.67285 -1.5 10c-0.333008 3.33984 -0.5 6.67285 -0.5 9.99902c0 3.33984 0.166992 6.67285 0.5 9.99902c0.333008 3.34082 0.833008 6.67383 1.5 10c-17.333 0 -34.5 -0.166992 -51.5 -0.5
s-34.167 -0.5 -51.5 -0.5c-3.33398 20.667 -6.16699 42.334 -8.5 65.001s-3.5 40 -3.5 52c0 13.333 1.5 26 4.5 38s7.83301 22.5 14.5 31.5s15.167 16.333 25.5 22s22.833 8.5 37.5 8.5c20.667 0 39 -5 55 -15zM378 646.997c0 -14 5 -26 15 -36s22 -15 36 -15s26 5 36 15
s15 22 15 36s-5 26 -15 36s-22 15 -36 15s-26 -5 -36 -15s-15 -22 -15 -36zM392 285.997v-104c0 -30 -0.5 -61.5 -1.5 -94.5s-3.16699 -62.833 -6.5 -89.5c15.333 1.33301 30.333 2 45 2s29.667 -0.666992 45 -2c-3.33301 26.667 -5.5 56.5 -6.5 89.5s-1.5 64.5 -1.5 94.5
v104c0 30 0.5 61.5 1.5 94.5s3.16699 63.833 6.5 92.5c-18.667 -3.33301 -33.667 -5 -45 -5s-26.333 1.66699 -45 5c3.33301 -28.667 5.5 -59.5 6.5 -92.5s1.5 -64.5 1.5 -94.5z" />
    <glyph glyph-name="fl" unicode="fl" 
d="M300 669l6 2.99707c0 13.333 0.5 26.666 1.5 39.999s1.83301 26.666 2.5 39.999c-6 2 -12.667 3 -20 3c-19.333 0 -38.166 -4.66699 -56.499 -14s-33.5 -20 -45.5 -32c-13.333 -13.333 -25.333 -29.833 -36 -49.5s-19.834 -40.5 -27.501 -62.5s-13.5 -44.333 -17.5 -67
s-6 -43.667 -6 -63c-11.333 0 -23.166 0.166992 -35.499 0.5s-24.5 0.5 -36.5 0.5c0.666992 -3.33301 1.16699 -6.66602 1.5 -9.99902s0.5 -6.66602 0.5 -9.99902s-0.166992 -6.66602 -0.5 -9.99902s-0.833008 -6.66602 -1.5 -9.99902l36 2c12 0.666992 24 1 36 1
c0 -74 -0.333008 -146.5 -1 -217.5s-3.33398 -142.833 -8 -215.5c15.333 1.33301 30 2 44 2h21c7.33301 0 14.666 -0.666992 21.999 -2c-2 72.667 -3.16699 144.834 -3.5 216.501s-0.5 143.834 -0.5 216.501c17.333 0 34.5 -0.333008 51.5 -1
c17 -0.672852 34.167 -1.33984 51.5 -2c-0.666992 3.33984 -1.16699 6.67285 -1.5 10c-0.333008 3.33984 -0.5 6.67285 -0.5 9.99902c0 3.33984 0.166992 6.67285 0.5 9.99902c0.333008 3.34082 0.833008 6.67383 1.5 10c-17.333 0 -34.5 -0.166992 -51.5 -0.5
s-34.167 -0.5 -51.5 -0.5c-3.33398 20.667 -6.16699 42.334 -8.5 65.001s-3.5 40 -3.5 52c0 13.333 1.5 26 4.5 38s7.83301 22.5 14.5 31.5s15.167 16.333 25.5 22s22.833 8.5 37.5 8.5c20.667 0 39 -5 55 -15zM398 463.997v-181c0 -22.667 -0.166992 -47.334 -0.5 -74.001
s-0.833008 -53 -1.5 -79s-1.5 -50.667 -2.5 -74s-2.16699 -42.666 -3.5 -57.999c15.333 1.33301 30.333 2 45 2s29.667 -0.666992 45 -2c-1.33301 15.333 -2.5 34.666 -3.5 57.999s-1.83301 48 -2.5 74s-1.16699 52.333 -1.5 79s-0.5 51.334 -0.5 74.001v181
c0 22.667 0.166992 47.334 0.5 74.001s0.833008 53 1.5 79s1.5 50.833 2.5 74.5c1 23.6689 2.16699 43.8359 3.5 60.5c-18.667 -3.33301 -33.667 -5 -45 -5s-26.333 1.66699 -45 5c1.33301 -16.667 2.5 -36.834 3.5 -60.501s1.83301 -48.5 2.5 -74.5
s1.16699 -52.333 1.5 -79s0.5 -51.334 0.5 -74z" />
    <glyph glyph-name=".notdef" horiz-adv-x="500" 
d="M50 0v533h400v-533h-400zM100 50h300v433h-300v-433z" />
    <glyph glyph-name=".null" horiz-adv-x="0" 
 />
    <glyph glyph-name=".null" horiz-adv-x="0" 
 />
    <glyph glyph-name=".null" horiz-adv-x="0" 
 />
    <glyph glyph-name="space" unicode="&#x9;" horiz-adv-x="278" 
 />
    <glyph glyph-name="space" unicode=" " horiz-adv-x="278" 
 />
    <glyph glyph-name="space" unicode="&#xd;" horiz-adv-x="278" 
 />
    <glyph glyph-name="exclam" unicode="!" horiz-adv-x="333" 
d="M110 45c0 -15.333 5.66797 -28.166 17.001 -38.499s24.666 -15.5 39.999 -15.5s28.666 5.16699 39.999 15.5s17 23.166 17 38.499s-5.66699 28.666 -17 39.999c-11.334 11.333 -24.667 17 -40 17s-28.666 -5.66699 -39.999 -17s-17 -24.666 -17 -39.999zM157.001 171
l19.999 -0.00390625c4 47.333 8.33301 97.833 13 151.5s8.83398 103.834 12.5 150.501c3.66699 46.668 6.83398 86.335 9.50098 119.001c2.66699 32.667 4 51.667 4 57c0 18 -5 30.667 -15 38s-21.333 11 -34 11s-24 -3.66699 -34 -11s-15 -20 -15 -38
c0 -3.33301 0.666992 -13.166 2 -29.499s3 -37 5 -62s4.16699 -53.167 6.5 -84.5s5 -64.166 8 -98.499s6 -69 9 -104s5.83301 -68.167 8.5 -99.5z" />
    <glyph glyph-name="quotedbl" unicode="&#x22;" horiz-adv-x="333" 
d="M215 698v-288h52v288h-52zM66 698v-288h52v288h-52z" />
    <glyph glyph-name="numbersign" unicode="#" 
d="M357 432l-43 -208h-115l43 208h115zM207 432l-43.0068 -208h-73c0 -11.334 -1.83301 -25.167 -5.5 -41.5s-8.16699 -29.833 -13.5 -40.5h74c-6.66699 -30 -12 -53.833 -16 -71.5s-7.16699 -31.334 -9.5 -41.001s-4.16602 -16.5 -5.49902 -20.5s-2.66602 -7 -3.99902 -9
h10.5h10.5h10.5h10.5c0.666992 2 1.66699 5.66699 3 11s3 13.333 5 24s4.66699 24.5 8 41.5s7.66602 38.833 12.999 65.5h114c-6.66699 -30 -12 -53.833 -16 -71.5s-7.16699 -31.334 -9.5 -41.001s-4.16602 -16.5 -5.49902 -20.5s-2.66602 -7 -3.99902 -9h10.5h10.5h10.5
h10.5c0.666992 2 1.66699 5.66699 3 11s3 13.333 5 24s4.66699 24.5 8 41.5c3.33594 17 7.66895 38.833 13 65.5h73c0 10.667 2 24.334 6 41.001s8.33301 30.334 13 41h-75l43 208h73c0 10.667 2 24.334 6 41.001s8.33301 30.334 13 41.001h-74
c6 30 10.833 53.833 14.5 71.5c3.66699 17.6689 6.83398 31.3359 9.50098 41c2.66699 9.66699 4.66699 16.667 6 21s3 8.16602 5 11.499c-6.66699 -2 -13.667 -3 -21 -3c-6.66699 0 -13.667 1 -21 3c-0.666992 -4 -1.66699 -9 -3 -15s-3 -14.5 -5 -25.5
s-4.66699 -24.833 -8 -41.5s-7.66602 -37.667 -12.999 -63h-114c6 30 10.833 53.833 14.5 71.5c3.66699 17.6689 6.83398 31.3359 9.50098 41c2.66699 9.66699 4.66699 16.667 6 21s3 8.16602 5 11.499c-6.66699 -2 -13.667 -3 -21 -3c-6.66699 0 -13.667 1 -21 3
c-0.666992 -4 -1.66699 -9 -3 -15s-3 -14.5 -5 -25.5s-4.66699 -24.833 -8 -41.5c-3.33398 -16.667 -7.66699 -37.667 -12.999 -63h-73c0 -11.333 -1.83301 -25.166 -5.5 -41.499s-8.16699 -29.833 -13.5 -40.5h75z" />
    <glyph glyph-name="dollar" unicode="$" 
d="M265 304l-0.00195312 -283.001c-13.333 0 -27 1.33301 -41 4s-27.833 7.83398 -41.5 15.501s-27.167 18.167 -40.5 31.5s-26 30.666 -38 51.999h-12c-2 -18 -4.16699 -33 -6.5 -45s-6.5 -25.333 -12.5 -40c24.667 -19.333 50.334 -32.833 77.001 -40.5s56 -11.5 88 -11.5
h12h6c2.66699 0 5.66699 0.333008 9 1c0 -18.667 -0.5 -37.334 -1.5 -56.001s-3.16699 -35.667 -6.5 -51c11.333 3.33301 20 5 26 5s14.667 -1.66699 26 -5c-3.33301 18.667 -5.33301 37.167 -6 55.5s-1 37.166 -1 56.499c28.667 4.66699 54.167 13.334 76.5 26.001
s41.333 28.334 57 47.001s27.5 39.5 35.5 62.5s12 46.833 12 71.5c0 24 -4 44.667 -12 62s-19.833 32.833 -35.5 46.5s-34.667 26 -57 37s-47.833 22.167 -76.5 33.5v256c18 -0.666992 33.5 -4.16699 46.5 -10.5s24 -13.833 33 -22.5s16.167 -18 21.5 -28
c5.33691 -10 9.66992 -19.333 13 -28h12c4 18 8 33 12 45s9 23.667 15 35c-6.66797 4.66699 -14.335 9.66699 -23 15c-8.66699 5.33301 -19 10.333 -31 15s-26 8.5 -42 11.5s-35 4.5 -57 4.5c0 12.667 0.333008 25.5 1 38.5s2.66699 25.5 6 37.5
c-11.333 -3.33301 -20 -5 -26 -5s-14.667 1.66699 -26 5c3.33301 -11.333 5.5 -23.833 6.5 -37.5s1.5 -27.167 1.5 -40.5c-54 -6.66699 -96.667 -26.167 -128 -58.5s-47 -72.833 -47 -121.5c0 -24 3.5 -45.167 10.5 -63.5s17.833 -34.666 32.5 -48.999
s32.834 -27.333 54.501 -39s47.5 -23.167 77.5 -34.5zM264.998 632.999v-240c-32 12 -56.167 27.667 -72.5 47s-24.5 45 -24.5 77c0 30.667 9 56.5 27 77.5s41.333 33.833 70 38.5zM301.998 26.999l-0.000976562 263.001c22.667 -11.333 40.834 -22.333 54.501 -33
s24 -21 31 -31s11.667 -20 14 -30s3.5 -20.667 3.5 -32c0 -32.667 -9 -61.834 -27 -87.501s-43.333 -42.167 -76 -49.5z" />
    <glyph glyph-name="percent" unicode="%" horiz-adv-x="889" 
d="M606 695l-373 -731c10 3.33301 18 5 24 5c5.33301 0 13 -1.66699 23 -5l373 731c-10 -3.33301 -17.667 -5 -23 -5c-6 0 -14 1.66699 -24 5zM599 150c0 18.667 1.66797 36.5 5.00098 53.5s8.66602 32 15.999 45s16.5 23.5 27.5 31.5s23.833 12 38.5 12
c15.333 0 28.333 -4 39 -12s19.667 -18.5 27 -31.5s12.666 -28 15.999 -45s5 -34.833 5 -53.5s-1.66699 -36.5 -5 -53.5c-3.34473 -17 -8.67773 -32 -15.999 -45c-7.33301 -13 -16.333 -23.5 -27 -31.5s-23.667 -12 -39 -12c-14.667 0 -27.5 4 -38.5 12
s-20.167 18.5 -27.5 31.5c-7.34277 13 -12.6758 28 -16 45c-3.33301 17 -5 34.833 -5 53.5zM525.001 150c0 -24 3.83301 -46.167 11.5 -66.5s18.5 -37.666 32.5 -51.999s31 -25.333 51 -33s42 -11.5 66 -11.5s46 3.83301 66 11.5s37 18.667 51 33s24.833 31.666 32.5 51.999
s11.5 42.5 11.5 66.5s-3.83301 46 -11.5 66s-18.5 37.5 -32.5 52.5s-31 26.667 -51 35s-42 12.5 -66 12.5s-46 -4.16699 -66 -12.5s-37 -20 -51 -35s-24.833 -32.5 -32.5 -52.5s-11.5 -42 -11.5 -66zM116.001 506c0 18.667 1.66699 36.5 5 53.5s8.66602 32 15.999 45
s16.5 23.5 27.5 31.5s23.833 12 38.5 12c15.333 0 28.333 -4 39 -12s19.667 -18.5 27 -31.5c7.33496 -13 12.668 -28 15.999 -45c3.33301 -17 5 -34.833 5 -53.5s-1.66699 -36.5 -5 -53.5s-8.66602 -32 -15.999 -45s-16.333 -23.5 -27 -31.5s-23.667 -12 -39 -12
c-14.667 0 -27.5 4 -38.5 12s-20.167 18.5 -27.5 31.5s-12.666 28 -15.999 45s-5 34.833 -5 53.5zM42.001 506c0 -24 3.83301 -46 11.5 -66s18.5 -37.5 32.5 -52.5s31 -26.667 51 -35s42 -12.5 66 -12.5s46 4.16699 66 12.5s37 20 51 35s24.833 32.5 32.5 52.5
s11.5 42 11.5 66s-3.83301 46 -11.5 66s-18.5 37.5 -32.5 52.5s-31 26.667 -51 35s-42 12.5 -66 12.5s-46 -4.16699 -66 -12.5s-37 -20 -51 -35s-24.833 -32.5 -32.5 -52.5s-11.5 -42 -11.5 -66z" />
    <glyph glyph-name="ampersand" unicode="&#x26;" horiz-adv-x="722" 
d="M153 169c0 41.333 10.332 74.999 30.999 100.999s49.334 50 86.001 72c30 -42 60.333 -82.667 91 -122s63 -79 97 -119c-23.333 -23.333 -47 -41.166 -71 -53.499s-53 -18.5 -87 -18.5c-21.333 0 -41 3.83301 -59 11.5s-33.5 18 -46.5 31s-23.167 28 -30.5 45
s-11 34.5 -11 52.5zM185.999 521.999c0 -25.333 6.33301 -50.666 19 -75.999s28.667 -52 48 -80c-26 -10.667 -50 -23.667 -72 -39s-41.167 -32.5 -57.5 -51.5s-29.166 -39 -38.499 -60s-14 -42.5 -14 -64.5c0 -28 5.16699 -52.5 15.5 -73.5s24.166 -38.5 41.499 -52.5
s37.5 -24.167 60.5 -30.5s47.5 -9.5 73.5 -9.5c47.333 0 87.833 8.5 121.5 25.5s65.167 40.167 94.5 69.5c14.667 -17.333 27.5 -33.5 38.5 -48.5s19.167 -26.167 24.5 -33.5c9.33301 1.33301 18.833 2 28.5 2h28.5h32c10.6719 -0 21.3389 -0.666992 32.001 -2l-128 141
c28 32 52.333 63 73 93s41.334 61 62 93c-7.33301 5.33594 -14.5 11.1689 -21.5 17.5c-7 6.33301 -12.5 13.833 -16.5 22.5c-16 -36 -33.833 -69.5 -53.5 -100.5s-41.5 -63.5 -65.5 -97.5c-30 32.667 -59.333 67.5 -88 104.5s-58 74.833 -88 113.5
c14.667 8.66699 30 19.167 46 31.5s30.833 26 44.5 41s24.834 31.167 33.501 48.5s13 35.333 13 54c0 36.667 -12.5 64.5 -37.5 83.5s-56.833 28.5 -95.5 28.5c-22.667 0 -43.334 -3.83301 -62 -11.5c-18.667 -7.66699 -34.834 -18.334 -48.501 -32.001
s-24.334 -29.5 -32.001 -47.5s-11.5 -37.667 -11.5 -59zM420.999 560.999c0 -25.333 -8.5 -52.1689 -25.5 -80.502s-42.5 -53.166 -76.5 -74.499c-18.667 22.667 -33.834 47.334 -45.5 74.001c-11.667 26.667 -17.5 50 -17.5 70c0 26.667 7.66699 49 23 67s36 27 62 27
c24.667 0 44.167 -7.83301 58.5 -23.5s21.5 -35.5 21.5 -59.5z" />
    <glyph glyph-name="quotesingle" unicode="'" horiz-adv-x="278" 
d="M113 698v-288h52v288h-52z" />
    <glyph glyph-name="parenleft" unicode="(" horiz-adv-x="278" 
d="M242 680l-20 18.0039c-26.667 -28.667 -50 -59.667 -70 -93s-36.833 -67.833 -50.5 -103.5s-24 -72.167 -31 -109.5s-10.5 -74.333 -10.5 -111c0 -76.667 13.5 -150.334 40.5 -221.001s67.5 -135 121.5 -193l20 18c-24.667 32 -44.834 63.167 -60.501 93.5
s-28 61.666 -37 93.999s-15 65.666 -18 99.999s-4.5 70.5 -4.5 108.5s1.5 74.167 4.5 108.5c3 34.334 8.83301 67.667 17.5 100s20.834 64.166 36.501 95.499s36.167 63 61.5 95z" />
    <glyph glyph-name="parenright" unicode=")" horiz-adv-x="278" 
d="M36 -115l20.001 -18.0039c53.333 57.333 93.666 122.166 120.999 194.499s41 145.5 41 219.5c0 76.667 -13.5 150.834 -40.5 222.501s-67.5 136.5 -121.5 194.5l-20 -18c24.667 -32 44.834 -63.667 60.501 -95c15.667 -31.334 27.834 -63.167 36.501 -95.499
c8.66699 -32.333 14.667 -65.666 18 -99.999s5 -70.5 5 -108.5s-1.66699 -74.167 -5 -108.5s-9.33301 -67.666 -18 -99.999s-20.834 -63.666 -36.501 -93.999s-35.834 -61.5 -60.501 -93.5z" />
    <glyph glyph-name="asterisk" unicode="*" horiz-adv-x="444" 
d="M194 684l13.999 -155l-126 92c0 -10 -3.16699 -19.833 -9.5 -29.5s-12.833 -17.167 -19.5 -22.5l144 -65l-140 -65c7.33301 -5.33301 13.666 -12.333 18.999 -21c5.33398 -8.66699 8.66699 -18.667 10 -30l122 89l-14 -152c8 2.66699 17.667 4 29 4s21 -1.33301 29 -4
l-17 152l126 -88c1.33301 10.667 4.83301 20.334 10.5 29.001s11.834 15.667 18.501 21l-141 66l142 64c-8 5.33301 -14.667 12.666 -20 21.999s-8.66602 19.333 -9.99902 30l-125 -92l16 155c-7.33301 -2.66699 -17 -4 -29 -4s-21.667 1.33301 -29 4z" />
    <glyph glyph-name="plus" unicode="+" horiz-adv-x="606" 
d="M50 279v-52h227v-227h52v227h227v52h-227v227h-52v-227h-227z" />
    <glyph glyph-name="comma" unicode="," horiz-adv-x="278" 
d="M107 75l-76.999 -240l18 -7l125 209l10 20c3.33301 6.66699 5 14 5 22c0 12 -4.16699 20.667 -12.5 26s-16.5 8 -24.5 8c-13.333 0 -23.333 -4.16699 -30 -12.5s-11.334 -16.833 -14.001 -25.5z" />
    <glyph glyph-name="hyphen" unicode="-" horiz-adv-x="333" 
d="M42 262v-62h249v62h-249z" />
    <glyph glyph-name="period" unicode="." horiz-adv-x="278" 
d="M82 45c0 -15.333 5.66699 -28.166 17 -38.499s24.666 -15.5 39.999 -15.5s28.666 5.16699 39.999 15.5s17 23.166 17 38.499s-5.66699 28.666 -17 39.999s-24.666 17 -39.999 17s-28.666 -5.66699 -39.999 -17s-17 -24.666 -17 -39.999z" />
    <glyph glyph-name="slash" unicode="/" horiz-adv-x="278" 
d="M251 703l-273 -723c11.333 3.33301 19 5 23 5c6 0 14.667 -1.66699 26 -5l276 723c-11.333 -3.33301 -20 -5 -26 -5s-14.667 1.66699 -26 5z" />
    <glyph glyph-name="zero" unicode="0" 
d="M44 328c0 -47.333 3.16699 -91.832 9.5 -133.499s18.166 -78 35.499 -109s41.166 -55.167 71.499 -72.5s69.5 -26 117.5 -26c40.667 0 75.667 9 105 27s53.5 42.667 72.5 74s33.167 67.666 42.5 108.999s14 85 14 131c0 47.333 -3.16699 91.833 -9.5 133.5
s-18.166 78 -35.499 109s-41.166 55.667 -71.499 74s-69.5 27.5 -117.5 27.5c-43.333 0 -80 -9.16699 -110 -27.5s-54.167 -43 -72.5 -74s-31.5 -67.333 -39.5 -109s-12 -86.167 -12 -133.5zM126 328.001c0 47.334 2.5 90.168 7.5 128.501s13.5 71.166 25.5 98.499
s27.667 48.333 47 63s43.333 22 72 22s52.667 -8 72 -24s35 -38 47 -66s20.5 -61 25.5 -99s7.5 -79 7.5 -123s-2.5 -85 -7.5 -123s-13.5 -71 -25.5 -99s-27.667 -50 -47 -66s-43.333 -24 -72 -24s-52.667 8 -72 24s-35 38 -47 66s-20.5 61 -25.5 99s-7.5 79 -7.5 123z" />
    <glyph glyph-name="one" unicode="1" 
d="M243 608l0.000976562 -356c0 -44 -0.5 -87 -1.5 -129s-3.16699 -83.667 -6.5 -125c8 1.33301 15.833 2 23.5 2h23.5h23.5c7.66699 -0 15.5 -0.666992 23.5 -2c-2.66699 40.667 -4.66699 82.167 -6 124.5s-2 85.5 -2 129.5v167c0 44 0.666992 87.5 2 130.5
s3.33301 86.5 6 130.5l-7 5c-34.667 -17.3359 -71.834 -35.1689 -111.501 -53.5c-39.667 -18.3359 -78.5 -35.1689 -116.5 -50.5v-7c12.667 -8 22.667 -18.667 30 -32z" />
    <glyph glyph-name="two" unicode="2" 
d="M64 573l35 -49.001l7 2c2 10 5.66699 21.333 11 34s13 24.5 23 35.5s22.667 20.333 38 28s33.666 11.5 54.999 11.5c30 0 56.167 -11.833 78.5 -35.5s33.5 -60.167 33.5 -109.5c0 -22.668 -1.5 -43.835 -4.5 -63.501c-3 -19.667 -8.83301 -39.667 -17.5 -60
s-20.5 -41.833 -35.5 -64.5s-34.5 -48 -58.5 -76s-53.167 -59.5 -87.5 -94.5s-74.833 -75.5 -121.5 -121.5v-12c36 1.33301 71.833 2 107.5 2h107.5h107c35.333 0 71 -0.666992 107 -2c-3.33301 13.333 -5 24.666 -5 33.999c0 10 1.66699 22.333 5 37
c-28 -2 -60.5 -3.83301 -97.5 -5.5s-79.5 -2.5 -127.5 -2.5h-95c10.667 14.667 23.667 30.667 39 48s31.5 34.833 48.5 52.5s33.833 34.834 50.5 51.5l44 44c21.333 21.333 39.833 41.5 55.5 60.5s28.667 37.833 39 56.5c10.335 18.667 18.168 37.834 23.5 57.501
c5.33301 19.667 8 40.834 8 63.501c0 31.333 -5 58 -15 80s-23.5 40.333 -40.5 55c-17 14.6719 -37.167 25.3389 -60.5 32.001c-23.333 6.66699 -48 10 -74 10c-42 0 -77.667 -8 -107 -24s-54.666 -41 -75.999 -75z" />
    <glyph glyph-name="three" unicode="3" 
d="M79 612l23.002 -54.002l7 2c7.33301 20.667 20.833 39.167 40.5 55.5s43.5 24.5 71.5 24.5c13.333 0 26.333 -2.33301 39 -7s24 -12 34 -22s18.167 -22.833 24.5 -38.5s9.5 -34.167 9.5 -55.5c0 -16.667 -1.5 -34 -4.5 -52s-8.66699 -34.5 -17 -49.5
s-19.833 -27.333 -34.5 -37s-33.667 -14.5 -57 -14.5c-16.667 0 -31.667 1.33301 -45 4c0.666992 -3.33301 1.16699 -6.83301 1.5 -10.5s0.5 -7.16699 0.5 -10.5s-0.166992 -6.83301 -0.5 -10.5s-0.833008 -7.16699 -1.5 -10.5c6 1.33398 13.167 2.66699 21.5 4
s16.166 2 23.499 2c20.667 0 39.667 -2.66699 57 -8c17.334 -5.33301 32.167 -13.833 44.5 -25.5s22 -27 29 -46s10.5 -42.167 10.5 -69.5c0 -24.667 -3.66699 -47.334 -11 -68.001s-18 -38.334 -32 -53.001s-30.833 -26 -50.5 -34s-42.167 -12 -67.5 -12
c-16 0 -30.833 2.16699 -44.5 6.5s-26.334 9.83301 -38.001 16.5s-21.834 14 -30.501 22s-16 15.333 -22 22l-6 -4c-0.666992 -10 -2.16699 -21.167 -4.5 -33.5s-4.83301 -21.166 -7.5 -26.499c18 -8.66699 39 -16.167 63 -22.5s53.333 -9.5 88 -9.5c38 0 72.667 5 104 15
c31.334 10 58.167 24.333 80.5 43c22.334 18.667 39.667 40.834 52 66.501s18.5 53.834 18.5 84.501c0 30 -5.5 54.667 -16.5 74s-24.833 34.833 -41.5 46.5s-34.667 20 -54 25s-37.666 8.16699 -54.999 9.5v6c14.667 4 30 10.333 46 19s30.5 19.834 43.5 33.501
s23.833 30 32.5 49s13 40.5 13 64.5c0 26 -5 48.333 -15 67s-23.667 34 -41 46s-37.666 21 -60.999 27s-48 9 -74 9c-36.667 0 -66.834 -6.66699 -90.501 -20c-23.667 -13.3359 -42.167 -26.6689 -55.5 -40z" />
    <glyph glyph-name="four" unicode="4" 
d="M333 574l0.000976562 -335.999h-233c11.333 19.333 27.166 44 47.499 74s41.833 61.167 64.5 93.5c22.667 32.334 44.667 63.667 66 94s39 55.166 53 74.499h2zM21.001 197.001l-0.00195312 -18.002c14 0.666992 35.333 1.5 64 2.5s58.834 1.83301 90.501 2.5
s62 1.16699 91 1.5s51.167 0.5 66.5 0.5v-42c0 -25.333 -1 -51.666 -3 -78.999s-3.66699 -49.666 -5 -66.999c13.333 1.33301 28 2 44 2s30.667 -0.666992 44 -2c-1.33301 16 -2.66602 37.833 -3.99902 65.5s-2 54.5 -2 80.5v42c19.334 0 37.667 -0.5 54.999 -1.5
c17.334 -1 31.667 -2.5 42.999 -4.5c-3.33301 13.333 -5 24.333 -5 33s1.66699 19.667 5 33c-11.333 -2 -25.666 -3.83301 -42.999 -5.5s-35.666 -2.5 -54.999 -2.5v110c0 58 0.666992 114.5 2 169.5s3 104.5 5 148.5c-12 -3.33301 -22.667 -5 -32 -5
s-20.666 1.66699 -33.999 5c-16 -25.335 -36.5 -56.168 -61.5 -92.5c-25 -36.333 -52.333 -75.5 -82 -117.5s-60.334 -85.333 -92.001 -130s-62.167 -87.667 -91.5 -129z" />
    <glyph glyph-name="five" unicode="5" 
d="M158 374l14.001 227.001c15.333 0 35.333 -0.166992 60 -0.5s50.334 -1 77.001 -2s52.167 -2.33301 76.5 -4s43.833 -3.83398 58.5 -6.50098c-0.666992 2 -1 7.66699 -1 17s0.5 18.833 1.5 28.5c1 9.66895 2.83301 18.8359 5.5 27.5l-5 4
c-12 -0.666992 -30.333 -1.16699 -55 -1.5s-53 -0.5 -85 -0.5c-52 0 -92.667 1 -122 3c-26 2 -44.667 4 -56 6l-9 -6c3.33301 -22.667 5.5 -48.834 6.5 -78.501s1.5 -58.5 1.5 -86.5c0 -28.667 -0.5 -57.5 -1.5 -86.5s-3.83301 -56.5 -8.5 -82.5l11 -7
c6 4 17.667 10.5 35 19.5s40 13.5 68 13.5c18 0 35.333 -2.83301 52 -8.5c16.667 -5.66797 31.5 -14.835 44.5 -27.5c13 -12.667 23.5 -29 31.5 -49s12 -44 12 -72c0 -31.333 -4.33301 -58.666 -13 -81.999s-20 -42.666 -34 -57.999s-30.167 -26.666 -48.5 -33.999
s-37.5 -11 -57.5 -11c-13.334 0 -27.167 1.5 -41.5 4.5s-28 7.66699 -41 14s-24.667 14.166 -35 23.499s-18.5 20 -24.5 32h-7c-1.33301 -8 -3.33301 -17.5 -6 -28.5s-5.66699 -20.833 -9 -29.5v-8c21.333 -14.667 45.833 -24.5 73.5 -29.5s56.5 -7.5 86.5 -7.5
c37.333 0 71.166 5.66699 101.499 17s56.5 27.166 78.5 47.499s39 44.333 51 72s18 57.167 18 88.5c0 25.333 -4.5 49.333 -13.5 72s-21.833 42.667 -38.5 60s-36.834 31 -60.501 41s-50.167 15 -79.5 15c-30 0 -52.833 -2.5 -68.5 -7.5s-30.167 -11.167 -43.5 -18.5z" />
    <glyph glyph-name="six" unicode="6" 
d="M417 189c0 -25.333 -3.00098 -48.666 -9.00098 -69.999s-14.667 -39.666 -26 -54.999s-25.166 -27.166 -41.499 -35.499s-35.166 -12.5 -56.499 -12.5c-18.667 0 -36.167 4.16699 -52.5 12.5s-30.5 20.166 -42.5 35.499s-21.333 33.666 -28 54.999s-10 44.666 -10 69.999
s3.66699 48.5 11 69.5s17.166 39.167 29.499 54.5c12.333 15.334 27 27.167 44 35.5s35.167 12.5 54.5 12.5c42.667 0 74.5 -16 95.5 -48s31.5 -73.333 31.5 -124zM416.999 637l-14.998 32c-5.33301 1.33301 -10.833 2.16602 -16.5 2.49902s-14.167 0.5 -25.5 0.5
c-48 0.666992 -90.5 -9.33301 -127.5 -30s-68 -49.167 -93 -85.5c-25 -36.334 -44 -79.001 -57 -128.001s-19.5 -101.167 -19.5 -156.5c0 -52.667 6 -97.167 18 -133.5s28.167 -65.833 48.5 -88.5s43.833 -38.834 70.5 -48.501s54.334 -14.5 83.001 -14.5
c34 0 64.667 5.16699 92 15.5c27.334 10.333 50.667 25.333 70 45c19.334 19.667 34.167 43.334 44.499 71.001c10.333 27.667 15.5 58.167 15.5 91.5c0 38 -7 69.167 -21 93.5s-31.167 43.5 -51.5 57.5s-41.833 23.667 -64.5 29s-42.667 8 -60 8c-22 0 -41.5 -3 -58.5 -9
s-32 -13.667 -45 -23s-24.167 -19.666 -33.5 -30.999s-17.333 -22.666 -24 -33.999h-2c0 20.667 1.66699 43.167 5 67.5c3.33301 24.334 8.66602 49.167 15.999 74.5s16.666 49.833 27.999 73.5s25 44.667 41 63s34.333 33 55 44s44 16.5 70 16.5
c11.333 0 21 -0.666992 29 -2s15.667 -3 23 -5z" />
    <glyph glyph-name="seven" unicode="7" 
d="M507 641l-0.00488281 15.999c-17.333 0 -33.666 -0.166992 -48.999 -0.5s-33.333 -0.5 -54 -0.5h-47c-25.333 0 -51.5 0.333008 -78.5 1s-48.167 1 -63.5 1c-18.667 0.666992 -38.834 1.66699 -60.501 3s-46.5 3 -74.5 5c2.66699 -13.333 4 -28 4 -44
c0 -16.667 -1.33301 -31.667 -4 -45c86 5.33301 158.167 8.33301 216.5 9s102.5 1 132.5 1c-17.333 -30.667 -39.666 -69.334 -66.999 -116.001s-57 -96.834 -89 -150.5c-32 -53.667 -65.167 -108.667 -99.5 -165s-67.166 -108.833 -98.499 -157.5
c11.333 1.33301 23.333 2 36 2c14.667 0 27.334 -0.666992 38.001 -2c54.667 106.667 112.834 214.834 174.501 324.501s122.834 215.834 183.501 318.501z" />
    <glyph glyph-name="eight" unicode="8" 
d="M413 184c0 -24.667 -3.16797 -47.167 -9.50098 -67.5s-15.333 -38 -27 -53s-25.834 -26.667 -42.5 -35c-16.667 -8.33301 -35.334 -12.5 -56 -12.5c-20.667 0 -39.334 4.16699 -56.001 12.5s-30.834 20 -42.501 35s-20.667 32.667 -27 53s-9.5 42.833 -9.5 67.5
s3.16699 47.167 9.5 67.5s15.333 38 27 53s25.834 26.667 42.5 35c16.667 8.33301 35.334 12.5 56.001 12.5s39.334 -4.16699 56.001 -12.5s30.834 -20 42.501 -35s20.667 -32.667 27 -53s9.5 -42.833 9.5 -67.5zM386.999 512c0 -16.668 -2 -32.835 -6 -48.501
c-4 -15.668 -10.5 -29.335 -19.5 -41.001c-9 -11.667 -20.167 -21 -33.5 -28s-29.666 -10.5 -48.999 -10.5c-18.667 0 -34.834 3.5 -48.501 10.5s-24.834 16.333 -33.501 28s-15 25.334 -19 41.001s-6 31.834 -6 48.501c0 17.333 2 33.666 6 48.999s10.333 28.833 19 40.5
s19.834 21 33.5 28c13.667 7 29.834 10.5 48.501 10.5c19.334 0 35.667 -3.5 49 -10.5s24.5 -16.333 33.5 -28s15.5 -25.167 19.5 -40.5c4 -15.335 6 -31.668 6 -48.999zM54.999 179c0 -31.333 5.66699 -58.998 17 -82.998s27 -44.333 47 -61s43.667 -28.834 71 -36.501
s56.666 -11.5 87.999 -11.5c30.667 0 59.5 4.66699 86.5 14s50.667 23.5 71 42.5s36.333 41.833 48 68.5s17.5 56.667 17.5 90c0 30.667 -5.33301 56.334 -16 77.001s-23.5 37.5 -38.5 50.5s-30.833 22.667 -47.5 29s-30.667 10.5 -42 12.5v7c36.667 12 64.5 31.5 83.5 58.5
s28.5 56.5 28.5 88.5c0 19.333 -3.83301 37.833 -11.5 55.5s-19.167 33.167 -34.5 46.5s-35 24.166 -59 32.499s-52.667 12.5 -86 12.5c-28.667 0 -54.5 -4.33301 -77.5 -13s-42.667 -20.334 -59 -35.001s-29 -31.5 -38 -50.5s-13.5 -39.167 -13.5 -60.5
c0 -18.667 3.33301 -36 10 -52s15.334 -29.833 26.001 -41.5c10.667 -11.668 22.5 -21.335 35.5 -29c13 -7.66797 25.833 -12.835 38.5 -15.5v-7c-52 -17.333 -89.167 -43 -111.5 -77s-33.5 -71.333 -33.5 -112z" />
    <glyph glyph-name="nine" unicode="9" 
d="M403 484c0 -24 -3.16699 -47.333 -9.5 -70s-15.5 -42.667 -27.5 -60s-26.833 -31.333 -44.5 -42s-38.167 -16 -61.5 -16c-38 0 -68 12.5 -90 37.5s-33 66.5 -33 124.5c0 56.667 12.167 101.167 36.5 133.5s56.5 48.5 96.5 48.5s72.167 -14.5 96.5 -43.5
s36.5 -66.5 36.5 -112.5zM106 57l-5.00098 -3c4 -7.33301 7.83301 -16.333 11.5 -27s6.5 -19.667 8.5 -27c7.33301 -2.66699 18 -5.5 32 -8.5s29.667 -4.5 47 -4.5c46.667 0 88.167 10 124.5 30c36.334 20 67.167 48 92.5 84c25.334 36 44.667 78.333 57.999 127
c13.333 48.667 20 100.667 20 156c0 52.667 -6.16699 97.167 -18.5 133.5s-28.666 66 -48.999 89s-44 39.667 -71 50s-55.5 15.5 -85.5 15.5c-34 0 -64.667 -5.5 -92 -16.5s-50.666 -26 -69.999 -45s-34.166 -41.5 -44.499 -67.5s-15.5 -54.333 -15.5 -85
c0 -64 17.167 -113.167 51.5 -147.5s81.833 -51.5 142.5 -51.5c40 0 73.167 8.66699 99.5 26c26.334 17.333 47.167 40 62.5 68h2c0 -40 -3.83301 -80 -11.5 -120s-19.5 -76.167 -35.5 -108.5s-36.833 -58.5 -62.5 -78.5s-56.5 -30 -92.5 -30
c-18.667 0 -36.334 3.66699 -53.001 11s-32 17.333 -46 30z" />
    <glyph glyph-name="colon" unicode=":" horiz-adv-x="278" 
d="M82 45c0 -15.333 5.66699 -28.166 17 -38.499s24.666 -15.5 39.999 -15.5s28.666 5.16699 39.999 15.5s17 23.166 17 38.499s-5.66699 28.666 -17 39.999s-24.666 17 -39.999 17s-28.666 -5.66699 -39.999 -17s-17 -24.666 -17 -39.999zM82 411
c0 -15.333 5.66699 -28.668 17 -40.001s24.666 -17 39.999 -17s28.666 5.66699 39.999 17c11.333 11.335 17 24.668 17 40c0 15.334 -5.66699 28.667 -17 40s-24.666 17 -39.999 17s-28.666 -5.66699 -39.999 -17s-17 -24.666 -17 -39.999z" />
    <glyph glyph-name="semicolon" unicode=";" horiz-adv-x="278" 
d="M82 411c0 -15.333 5.66699 -28.668 17 -40.001s24.666 -17 39.999 -17s28.666 5.66699 39.999 17c11.333 11.335 17 24.668 17 40c0 15.334 -5.66699 28.667 -17 40s-24.666 17 -39.999 17s-28.666 -5.66699 -39.999 -17s-17 -24.666 -17 -39.999zM107 74.998
l-76.999 -240l18 -7l125 209l10 20c3.33301 6.66699 5 14 5 22c0 12 -4.16699 20.667 -12.5 26s-16.5 8 -24.5 8c-13.333 0 -23.333 -4.16699 -30 -12.5s-11.334 -16.833 -14.001 -25.5z" />
    <glyph glyph-name="less" unicode="&#x3c;" horiz-adv-x="606" 
d="M50 280v-52l506 -236v50l-459 211l459 211v52z" />
    <glyph glyph-name="equal" unicode="=" horiz-adv-x="606" 
d="M556 130v52h-506v-52h506zM556 324v52h-506v-52h506z" />
    <glyph glyph-name="greater" unicode="&#x3e;" horiz-adv-x="606" 
d="M50 42v-50l506 234v52l-506 238v-52l459 -211z" />
    <glyph glyph-name="question" unicode="?" horiz-adv-x="389" 
d="M125 45c0 -15.333 5.66895 -28.166 17.002 -38.499s24.666 -15.5 39.999 -15.5s28.666 5.16699 39.999 15.5s17 23.166 17 38.499s-5.66699 28.666 -17 39.999c-11.334 11.333 -24.667 17 -40 17s-28.666 -5.66699 -39.999 -17
c-11.334 -11.333 -17.001 -24.666 -17.001 -39.999zM80.002 665l6.00195 -50c11.333 13.333 24.833 24.333 40.5 33s32.5 13 50.5 13c10.667 0 21.167 -1.83301 31.5 -5.5s19.5 -9 27.5 -16s14.5 -15.5 19.5 -25.5s7.5 -21.667 7.5 -35c0 -18 -4.16699 -34.833 -12.5 -50.5
s-19 -30.667 -32 -45s-26.833 -28.5 -41.5 -42.5s-28.5 -28.833 -41.5 -44.5s-23.667 -32.667 -32 -51s-12.5 -38.5 -12.5 -60.5c0 -20.667 4 -38 12 -52s17.667 -25.333 29 -34s23.166 -15 35.499 -19s22.5 -6 30.5 -6c13.333 0 25 1.66699 35 5
c0.666992 4.66699 2.16699 9.66699 4.5 15s4.83301 9.66602 7.5 12.999l-6 4c-2.66699 -1.33496 -7 -3.16797 -13 -5.5c-6 -2.33301 -13 -3.5 -21 -3.5c-17.333 0 -30.333 6.5 -39 19.5s-13 26.167 -13 39.5c0 17.334 4.33301 33.667 13 49s19.667 30.333 33 45
s27.666 29.5 42.999 44.5c15.334 15 29.667 30.833 43 47.5s24.333 34.834 33 54.501s13 41.167 13 64.5c0 18 -3.16699 35 -9.5 51s-15.833 30 -28.5 42s-28.167 21.5 -46.5 28.5s-39.5 10.5 -63.5 10.5c-23.333 0 -43 -3.5 -59 -10.5s-30.667 -14.5 -44 -22.5z" />
    <glyph glyph-name="at" unicode="@" horiz-adv-x="800" 
d="M476 425c0 -17.333 -2.50098 -38.335 -7.50098 -63.002s-12.333 -48.167 -22 -70.5s-21.834 -41.5 -36.5 -57.5c-14.667 -16 -31.667 -24 -51 -24c-24 0 -40.167 7.83301 -48.5 23.5s-12.5 38.834 -12.5 69.501c0 20 2.5 41.667 7.5 65c5 23.334 12.5 44.667 22.5 64
s22.333 35.5 37 48.5s31.334 19.5 50.001 19.5c25.333 0 41.833 -7.16699 49.5 -21.5s11.5 -32.166 11.5 -53.499zM505.999 521.998l-10.002 -54h-2c-2 22.667 -10.5 39 -25.5 49s-32.833 15 -53.5 15c-24.667 0 -47.834 -5.5 -69.5 -16.5
c-21.667 -11 -40.667 -26.5 -57 -46.5s-29.166 -43.667 -38.499 -71s-14 -57.666 -14 -90.999c0 -89.333 36 -134 108 -134c12.667 0 24.334 2.16699 35.001 6.5s20.5 10 29.5 17s17.333 14.667 25 23s14.5 16.833 20.5 25.5h2c0 -22 3.83301 -39.5 11.5 -52.5
s25.5 -19.5 53.5 -19.5c21.333 0 43.333 5.83301 66 17.5c22.6689 11.667 43.3359 28 62 49c18.667 21 34 46.333 46 76s18 62.5 18 98.5c0 29.333 -4.5 58.333 -13.5 87s-24.333 54.167 -46 76.5s-50.5 40.333 -86.5 54s-81.333 20.5 -136 20.5
c-52.667 0 -100.167 -9 -142.5 -27s-78.5 -41.667 -108.5 -71c-30 -29.334 -53 -62.834 -69 -100.5c-16 -37.667 -24 -76.167 -24 -115.5c0 -52.667 8.83301 -98.5 26.5 -137.5s40.5 -71.333 68.5 -97s59 -44.667 93 -57s67.333 -18.5 100 -18.5c31.333 0 60.333 3 87 9
s50.5 13.5 71.5 22.5s39 18.5 54 28.5s26.833 19 35.5 27l3 32c-12.667 -9.33301 -27.167 -18.833 -43.5 -28.5s-34 -18.5 -53 -26.5s-39.5 -14.5 -61.5 -19.5s-45 -7.5 -69 -7.5c-36 0 -69.333 5 -100 15s-57 25 -79 45s-39.333 45 -52 75s-19 65 -19 105
c0 44 7 85.167 21 123.5c14 38.334 33.333 71.667 58 100s54 50.666 88 66.999s71 24.5 111 24.5c46 0 84.333 -5.66699 115 -17s55.167 -27 73.5 -47s31.333 -43.833 39 -71.5s11.5 -57.834 11.5 -90.5c0 -27.333 -4.33301 -52.833 -13 -76.5s-19.5 -44.167 -32.5 -61.5
s-27 -30.833 -42 -40.5s-29.167 -14.5 -42.5 -14.5c-10 0 -18 3 -24 9s-9 14.667 -9 26c0 4.66699 0.333008 10.5 1 17.5s2.83398 20 6.50098 39s9.16699 46.5 16.5 82.5s17.666 85 30.999 147h-52z" />
    <glyph glyph-name="A" unicode="A" horiz-adv-x="667" 
d="M207 309c17.333 0 35.3311 -0.333008 53.998 -1s36.667 -1 54 -1c18.667 0 37.334 0.166992 56.001 0.5s37.334 0.833008 56.001 1.5l-111 254zM649.998 -2c-9.33789 1.33301 -18.1748 2 -26.5029 2h-26.5h-26.5c-8.33789 -0 -17.1709 -0.666992 -26.5 -2
c-4.66699 15.333 -11 33.833 -19 55.5s-16.833 44.334 -26.5 68.001s-19.5 47.667 -29.5 72s-19.333 47.5 -28 69.5c-21.333 0.666992 -43 1.16699 -65 1.5s-44 0.5 -66 0.5c-20.667 0 -41 -0.166992 -61 -0.5s-40.333 -0.833008 -61 -1.5
c-21.333 -52 -40.666 -101.5 -57.999 -148.5s-30.333 -85.833 -39 -116.5c-11.333 1.33301 -23.666 2 -36.999 2s-25.666 -0.666992 -36.999 -2c54 116.667 106.667 232.667 158 348s103 232.666 155 351.999h19c16 -38.667 33.333 -80.5 52 -125.5s37.667 -90.5 57 -136.5
c19.334 -46 38.667 -91.667 57.999 -137c19.333 -45.333 37.5 -87.5 54.5 -126.5s32.333 -73.833 46 -104.5c13.6719 -30.667 24.8389 -54 33.501 -70z" />
    <glyph glyph-name="B" unicode="B" horiz-adv-x="611" 
d="M180 239v101.998h45c33.333 0 63.5 -2 90.5 -6s50.167 -11.167 69.5 -21.5c19.335 -10.333 34.168 -24.666 44.5 -42.999c10.333 -18.333 15.5 -41.833 15.5 -70.5c0 -26.667 -4.33301 -50.5 -13 -71.5s-20.334 -38.667 -35 -53
c-14.667 -14.333 -31.834 -25.166 -51.5 -32.499c-19.667 -7.33301 -40.167 -11 -61.5 -11c-18 0 -35.667 0.5 -53 1.5s-32.333 2.16699 -45 3.5c-1.33398 34 -2.66699 67.667 -4 101s-2 67 -2 101zM234 377.998l-53.999 -0.000976562v75c0 32 0.666992 63.667 2 95
s2.66602 63 3.99902 95c9.33301 1.33301 20 2.5 32 3.5s26.667 1.5 44 1.5c19.334 0 38.667 -1.5 58 -4.5c19.334 -3 36.667 -9 52 -18s28 -21.667 38 -38c10 -16.334 15 -38.167 15 -65.499c0 -28 -5.5 -51.167 -16.5 -69.5s-25.5 -33 -43.5 -44s-38.5 -18.833 -61.5 -23.5
s-46.167 -7 -69.5 -7zM98.001 426.997l-0.00390625 -171.998c0 -44 -0.833008 -87.167 -2.5 -129.5s-3.5 -84.833 -5.5 -127.5c16 1.33301 32.167 2 48.5 2h48.5c16 0 32.167 -0.333008 48.5 -1s32.5 -1 48.5 -1c29.333 0 58.833 3.16699 88.5 9.5s56.834 17.333 81.501 33
s44.667 36.167 60 61.5s23 56.666 23 93.999c0 57.333 -17.167 99 -51.5 125s-81.166 40.333 -140.499 43v2c50 11.333 90.5 31 121.5 59s46.5 66.667 46.5 116c0 28 -5.66699 51.333 -17 70s-26.666 33.5 -45.999 44.5s-41.666 18.667 -66.999 23s-52.333 6.5 -81 6.5
c-17.333 0 -35 -0.833008 -53 -2.5s-35.667 -2.5 -53 -2.5s-35 0.5 -53 1.5s-35.667 2.16699 -53 3.5c2 -42.667 3.83301 -85.334 5.5 -128.001s2.5 -86 2.5 -130z" />
    <glyph glyph-name="C" unicode="C" horiz-adv-x="667" 
d="M615 39l9 59.0029l-4 4c-9.33301 -7.33301 -20.833 -15.833 -34.5 -25.5s-29 -18.667 -46 -27s-35.667 -15.5 -56 -21.5s-42.5 -9 -66.5 -9c-39.333 0 -75.833 6.33301 -109.5 19s-63 32.167 -88 58.5s-44.5 59.666 -58.5 99.999s-21 88.166 -21 143.499
c0 55.334 7 103.167 21 143.5s33.5 73.666 58.5 99.999s54.333 45.833 88 58.5s70.167 19 109.5 19c24 0 46 -3.16699 66 -9.5c20 -6.33789 38 -14.1709 54 -23.499c16 -9.33301 30 -19 42 -29s21.333 -19 28 -27l6 2c2 10.667 4.66699 24 8 40s7.66602 28.667 12.999 38
c-28 12.667 -60.167 23.5 -96.5 32.5s-76.5 13.5 -120.5 13.5c-55.333 0 -106 -8 -152 -24s-85.5 -39.333 -118.5 -70s-58.667 -68.167 -77 -112.5s-27.5 -94.833 -27.5 -151.5s9.16699 -107.167 27.5 -151.5s43.666 -81.833 75.999 -112.5s70.833 -53.5 115.5 -68.5
s93.334 -22.5 146.001 -22.5c24.667 0 48.334 2 71.001 6s43.167 8.5 61.5 13.5s34 10.667 47 17s22.5 12.166 28.5 17.499z" />
    <glyph glyph-name="D" unicode="D" horiz-adv-x="778" 
d="M98 426l0.000976562 -171.999c0 -44 -0.833008 -87.333 -2.5 -130s-3.5 -84.667 -5.5 -126c22.667 1.33301 45 2 67 2h67c22.667 0 45 -0.333008 67 -1s44.333 -1 67 -1c39.333 0 80.5 5.83301 123.5 17.5s82.333 31.5 118 59.5s65 64.833 88 110.5
s34.5 101.834 34.5 168.501c0 51.333 -6.16699 97.5 -18.5 138.5s-31.833 75.667 -58.5 104s-60.834 50.166 -102.501 65.499s-91.834 23 -150.5 23c-25.333 0 -50.5 -0.833008 -75.5 -2.5s-50.167 -2.5 -75.5 -2.5s-50.5 0.5 -75.5 1.5s-50.167 2.16699 -75.5 3.5
c2 -44 3.83301 -87.167 5.5 -129.5c1.66699 -42.334 2.5 -85.501 2.5 -129.501zM180.001 254.001v172c0 36 0.5 71.5 1.5 106.5s2.5 68.5 4.5 100.5c20.667 2.66699 44 5 70 7s54 3 84 3c41.333 0 79.333 -4.16699 114 -12.5s64.5 -23.333 89.5 -45s44.667 -51.167 59 -88.5
s21.5 -85 21.5 -143c0 -66 -9.16699 -119.833 -27.5 -161.5s-42 -74.5 -71 -98.5s-61.833 -40.333 -98.5 -49s-73.334 -13 -110 -13c-25.333 0 -50 0.833008 -74 2.5s-43 4.16699 -57 7.5c-4 69.333 -6 140 -6 212z" />
    <glyph glyph-name="E" unicode="E" horiz-adv-x="500" 
d="M98 427l-0.00390625 -172.005c0 -44 -0.833008 -87.167 -2.5 -129.5s-3.5 -84.833 -5.5 -127.5c30.667 1.33301 61 2 91 2h91h90.5c29.667 0 59.5 -0.666992 89.5 -2c-2 6.66699 -3 15.334 -3 26.001c0 4.66699 0.166992 9.83398 0.5 15.501
c0.34668 5.66699 1.17969 10.834 2.49902 15.501c-16 -3.33301 -34.833 -5.83301 -56.5 -7.5s-44.667 -3 -69 -4s-49.166 -1.5 -74.499 -1.5h-70c-0.666992 12.667 -1.16699 31.334 -1.5 56.001s-0.5 56 -0.5 94v60v39c0 10.667 0.166992 19.5 0.5 26.5s0.5 13.5 0.5 19.5
c12 0 28.167 -0.166992 48.5 -0.5s42 -0.666016 65 -0.999023s46 -1.16602 69 -2.49902s43.167 -3 60.5 -5c-2 10 -3 20 -3 30c0 10.667 1 21 3 31c-14.667 -1.33301 -30.167 -2.5 -46.5 -3.5s-34.166 -2 -53.499 -3s-40.666 -1.83301 -63.999 -2.5s-49.666 -1 -78.999 -1
c0 12.667 -0.166992 31.334 -0.5 56.001s-0.5 50 -0.5 76c0 24.667 0.5 46.667 1.5 66s1.83301 39.666 2.5 60.999c32.667 0 60.667 -0.5 84 -1.5s44.833 -2.16699 64.5 -3.5c19.667 -1.35254 38.334 -2.68555 56.001 -4c17.667 -1.35254 37.167 -2.68555 58.5 -4
c-2 10 -3 20 -3 30s1 20 3 30c-30 -1.33301 -59.667 -2.5 -89 -3.5s-59 -1.5 -89 -1.5s-59.833 0.5 -89.5 1.5s-59.5 2.16699 -89.5 3.5c2 -42.667 3.83301 -85.334 5.5 -128.001s2.5 -86 2.5 -130z" />
    <glyph glyph-name="F" unicode="F" horiz-adv-x="500" 
d="M98 426l0.00195312 -171.997c0 -44 -0.833008 -87.333 -2.5 -130s-3.5 -84.667 -5.5 -126c15.333 1.33301 31.666 2 48.999 2s33.666 -0.666992 48.999 -2c-2 41.333 -3.83301 83.333 -5.5 126s-2.5 86 -2.5 130v85h67c23.333 0 46.333 -0.333008 69 -1
s44.5 -1.5 65.5 -2.5s39.833 -2.5 56.5 -4.5c-2.66699 10 -4 20 -4 30s1.33301 20 4 30c-42 -4 -84.5 -6.66699 -127.5 -8s-86.5 -2 -130.5 -2c0 21.333 -0.166992 41.833 -0.5 61.5s-0.5 41.167 -0.5 64.5c0 21.333 0.166992 42.666 0.5 63.999s0.833008 43.666 1.5 66.999
c16 0 36.167 -0.333008 60.5 -1c24.334 -0.666992 49.667 -1.5 76 -2.5c26.334 -1 52.167 -2.33301 77.5 -4s47 -3.5 65 -5.5c-2 10 -3 20 -3 30s1 20 3 30c-36 -1.33301 -69.333 -2.5 -100 -3.5s-61 -1.5 -91 -1.5s-59.833 0.5 -89.5 1.5s-59.5 2.16699 -89.5 3.5
c2 -44 3.83301 -87.167 5.5 -129.5c1.66699 -42.334 2.5 -85.501 2.5 -129.501z" />
    <glyph glyph-name="G" unicode="G" horiz-adv-x="778" 
d="M671 563h12.0039c1.33301 12.6689 4.16602 26.3359 8.49902 41c4.33301 14.667 9.16602 26.667 14.499 36c-12 6 -25.667 12.333 -41 19c-15.334 6.66699 -33.167 13 -53.5 19c-20.334 6 -43.667 10.833 -70 14.5c-26.334 3.66699 -56.501 5.5 -90.501 5.5
c-58.667 0 -112.167 -8 -160.5 -24s-89.5 -39.333 -123.5 -70s-60.333 -68.167 -79 -112.5s-28 -94.833 -28 -151.5c0 -58.667 9 -110.334 27 -155.001s43.667 -82 77 -112s73.833 -52.167 121.5 -66.5s101.167 -21.5 160.5 -21.5c19.333 0 40.833 1.5 64.5 4.5
s47.334 6.33301 71 10c23.667 3.66699 46 8.33398 67 14.001s38.5 11.167 52.5 16.5c0 13.333 -0.166992 26.833 -0.5 40.5s-0.5 27.167 -0.5 40.5c0 54 0.333008 97.5 1 130.5s1.66699 57.167 3 72.5c-6.66699 -2 -13.667 -3.33301 -21 -4
c-7.33398 -0.666992 -14.667 -1 -22 -1c-15.333 0 -31.333 1.66699 -48 5c1.33301 -21.333 2.5 -43.666 3.5 -66.999c1 -23.334 1.5 -46.667 1.5 -70c0 -20.667 -0.166992 -41 -0.5 -61s-0.833008 -40 -1.5 -60c-8.66699 -5.33301 -19.167 -10 -31.5 -14
c-12.3359 -4 -25.6689 -7.33301 -40 -10c-14.335 -2.66699 -29.168 -4.66699 -44.499 -6c-15.333 -1.33301 -30 -2 -44 -2c-46.667 0 -88.5 7.33301 -125.5 22s-68.333 35.5 -94 62.5s-45.167 60.167 -58.5 99.5s-20 83.333 -20 132c0 55.334 7.5 103.167 22.5 143.5
s35.667 73.666 62 99.999s57.333 45.833 93 58.5s74.167 19 115.5 19c25.334 0 49.167 -2.83301 71.499 -8.5c22.333 -5.66699 42.666 -13 60.999 -22s35 -19.5 50 -31.5s27.5 -24 37.5 -36z" />
    <glyph glyph-name="H" unicode="H" horiz-adv-x="778" 
d="M598 426l0.00390625 -34.998c-36 -0.669922 -70.833 -1.33691 -104.5 -2.00098c-33.667 -0.666992 -68.5 -1 -104.5 -1s-70.833 0.333008 -104.5 1s-68.5 1.33398 -104.5 2.00098v35c0 44 0.833008 87.167 2.5 129.5s3.5 85.5 5.5 129.5
c-8.66699 -1.33301 -17 -2.5 -25 -3.5s-16 -1.5 -24 -1.5s-16 0.5 -24 1.5s-16.333 2.16699 -25 3.5c2 -44 3.83301 -87.167 5.5 -129.5c1.66699 -42.334 2.5 -85.501 2.5 -129.501v-172c0 -44 -0.833008 -87.333 -2.5 -130s-3.5 -84.667 -5.5 -126
c15.333 1.33301 31.666 2 48.999 2s33.666 -0.666992 48.999 -2c-2 41.333 -3.83301 83.333 -5.5 126s-2.5 86 -2.5 130v90c36 0.666992 70.833 1.16699 104.5 1.5s68.5 0.5 104.5 0.5s70.833 -0.166992 104.5 -0.5s68.5 -0.833008 104.5 -1.5v-90
c0 -44 -0.833008 -87.333 -2.5 -130s-3.5 -84.667 -5.5 -126c15.333 1.33301 31.666 2 48.999 2s33.666 -0.666992 48.999 -2c-2 41.333 -3.83301 83.333 -5.5 126s-2.5 86 -2.5 130v172c0 44 0.833008 87.167 2.5 129.5s3.5 85.5 5.5 129.5
c-8.66699 -1.33301 -17 -2.5 -25 -3.5s-16 -1.5 -24 -1.5s-16 0.5 -24 1.5s-16.333 2.16699 -25 3.5c2 -44 3.83301 -87.167 5.5 -129.5c1.66699 -42.334 2.5 -85.501 2.5 -129.501z" />
    <glyph glyph-name="I" unicode="I" horiz-adv-x="278" 
d="M98 426l0.00195312 -171.999c0 -44 -0.833008 -87.333 -2.5 -130s-3.5 -84.667 -5.5 -126c15.333 1.33301 31.666 2 48.999 2s33.666 -0.666992 48.999 -2c-2 41.333 -3.83301 83.333 -5.5 126s-2.5 86 -2.5 130v172c0 44 0.833008 87.167 2.5 129.5s3.5 85.5 5.5 129.5
c-8.66699 -1.33301 -17 -2.5 -25 -3.5s-16 -1.5 -24 -1.5s-16 0.5 -24 1.5s-16.333 2.16699 -25 3.5c2 -44 3.83301 -87.167 5.5 -129.5c1.66699 -42.334 2.5 -85.501 2.5 -129.501z" />
    <glyph glyph-name="J" unicode="J" horiz-adv-x="278" 
d="M-27 -113l8.00098 -27.999c29.333 0 56.5 5.5 81.5 16.5s46.5 26.167 64.5 45.5s31.833 41.5 41.5 66.5s14.5 52.5 14.5 82.5c0 24 -0.166992 50.333 -0.5 79c-0.333984 28.667 -0.666992 58.5 -1 89.5c-0.334961 31 -0.667969 62.5 -1 94.5
c-0.333008 32 -0.5 63 -0.5 93c0 44 0.833008 87.167 2.5 129.5s3.5 85.5 5.5 129.5c-8.66699 -1.33301 -17 -2.5 -25 -3.5s-16 -1.5 -24 -1.5s-16 0.5 -24 1.5s-16.333 2.16699 -25 3.5c2 -44 3.83301 -87.167 5.5 -129.5c1.66699 -42.334 2.5 -85.501 2.5 -129.501v-275
c0 -39.333 -1.16699 -75 -3.5 -107s-7.83301 -59.667 -16.5 -83s-21.334 -41.5 -38.001 -54.5s-39 -19.5 -67 -19.5z" />
    <glyph glyph-name="K" unicode="K" horiz-adv-x="611" 
d="M90 -2c15.333 1.33301 31.6699 1.99609 49.0029 1.99609s33.666 -0.666992 48.999 -2c-2 41.333 -3.83301 83.333 -5.5 126s-2.5 86 -2.5 130v87c0 4 1.66699 6 5 6c2.66699 0 6.66699 -2.66699 12 -8c10.667 -10.667 27.167 -29.167 49.5 -55.5s47.333 -56 75 -89
s56 -67.167 85 -102.5s55.5 -66.666 79.5 -93.999c9.33301 1.33301 18.5 2 27.5 2h27.5h30c10 0 20 -0.666992 30 -2c-56.667 63.333 -112.5 126.5 -167.5 189.5s-109.5 124.833 -163.5 185.5c18 20.667 40.5 44.834 67.5 72.501s55.333 55.834 85 84.501
s59.167 56.667 88.5 84s55.666 51 78.999 71c-8 -1.33301 -16 -2.5 -24 -3.5s-16 -1.5 -24 -1.5c-6.66699 0 -13.334 0.5 -20.001 1.5s-13.667 2.16699 -21 3.5c-23.333 -26.667 -47.666 -54.167 -72.999 -82.5c-25.333 -28.334 -51 -56.167 -77 -83.499
c-26 -27.333 -51.833 -53.666 -77.5 -78.999s-50.167 -48 -73.5 -68c-6.66699 -6 -11.334 -9 -14.001 -9c-4 0 -6 2.66699 -6 8v55c0 44 0.833008 87.167 2.5 129.5s3.5 85.5 5.5 129.5c-8.66699 -1.33301 -17 -2.5 -25 -3.5s-16 -1.5 -24 -1.5s-16 0.5 -24 1.5
s-16.333 2.16699 -25 3.5c2 -44 3.83301 -87.167 5.5 -129.5c1.66699 -42.334 2.5 -85.501 2.5 -129.501v-172c0 -44 -0.833008 -87.333 -2.5 -130s-3.5 -84.667 -5.5 -126z" />
    <glyph glyph-name="L" unicode="L" horiz-adv-x="500" 
d="M98 426l-0.000976562 -172c0 -44 -0.833008 -87.333 -2.5 -130s-3.5 -84.667 -5.5 -126c32 1.33301 62.833 2 92.5 2h92.5h92c30.667 -0 61.334 -0.666992 92.001 -2c-3.33301 10.667 -5 19.667 -5 27c0 8 1.66699 18 5 30c-50 -6.66699 -96.667 -10.5 -140 -11.5
s-88.666 -1.5 -135.999 -1.5c-0.666992 48.667 -1.33398 103.834 -2.00098 165.501s-1 134.5 -1 218.5c0 44 0.833008 87.167 2.5 129.5s3.5 85.5 5.5 129.5c-8.66699 -1.33301 -17 -2.5 -25 -3.5s-16 -1.5 -24 -1.5s-16 0.5 -24 1.5s-16.333 2.16699 -25 3.5
c2 -44 3.83301 -87.167 5.5 -129.5c1.66699 -42.334 2.5 -85.501 2.5 -129.501z" />
    <glyph glyph-name="M" unicode="M" horiz-adv-x="889" 
d="M162 698l-17.001 0.00195312c-5.33301 -53.333 -11.666 -109.5 -18.999 -168.5s-15.333 -118.833 -24 -179.5s-17.667 -121 -27 -181s-18.333 -117 -27 -171c10.667 1.33301 22.334 2 35.001 2s24.334 -0.666992 35.001 -2c0 26.667 1.66699 60.834 5 102.501
s7.33301 86 12 133s9.83398 94.667 15.5 143c5.66699 48.333 10.834 93.166 15.5 134.499h2c44 -88 87.833 -174.167 131.5 -258.5s85.5 -168.5 125.5 -252.5h9c40 90.667 82.167 177.5 126.5 260.5s89.5 166.5 135.5 250.5h2c10.667 -86.667 19.667 -171.667 27 -255
s14.666 -169.333 21.999 -258c8 1.33301 15.833 2 23.5 2h23.5h23.5c7.66699 0 15.5 -0.666992 23.5 -2c-8 55.333 -15.333 111.166 -22 167.499s-13.334 113.333 -20.001 171s-13.167 116.334 -19.5 176.001c-6.34473 59.667 -13.1777 121.5 -20.499 185.5h-13
c-16.667 -30.667 -34.667 -63.667 -54 -99s-38.833 -71.333 -58.5 -108s-39 -72.834 -58 -108.5c-19 -35.667 -36.833 -68.834 -53.5 -99.5c-16.668 -30.667 -31.335 -57.834 -44.001 -81.501c-12.668 -23.667 -22.335 -41.834 -29 -54.501
c-51.333 94 -100.5 185.667 -147.5 275s-93.5 181.333 -139.5 276z" />
    <glyph glyph-name="N" unicode="N" horiz-adv-x="778" 
d="M661 -15l13.999 -0.00292969v33c0 16 -0.166992 34.833 -0.5 56.5c-0.34375 21.667 -0.676758 45 -1 70c-0.353516 25 -0.686523 49.833 -0.999023 74.5c-0.333008 24.667 -0.5 48.334 -0.5 71.001v60c0 19.333 0.666992 45 2 77s2.83301 64.667 4.5 98
c1.6875 33.333 3.35449 64.666 5 93.999c1.66699 29.333 3.16699 51.333 4.5 66c-13.333 -3.33301 -24 -5 -32 -5c-9.33301 0 -20.666 1.66699 -33.999 5c3.33301 -58.667 5.5 -121.167 6.5 -187.5s1.5 -134.5 1.5 -204.5v-136c-30.667 30.667 -66.5 67.834 -107.5 111.501
s-84.333 90 -130 139s-91.667 98.667 -138 149s-89.833 97.5 -130.5 141.5h-16c1.33496 -22.667 2.16797 -57 2.5 -103c0.333008 -46 0.5 -101 0.5 -165c0 -22 -0.333008 -47 -1 -75s-1.5 -56.667 -2.5 -86s-2.33301 -58.666 -4 -87.999s-3.16699 -56.5 -4.5 -81.5
s-2.83301 -46.5 -4.5 -64.5s-3.16699 -30.333 -4.5 -37c11.333 1.33301 23.666 2 36.999 2c12.667 0 24.334 -0.666992 35.001 -2c-0.666992 5.33301 -1.33398 15.5 -2.00098 30.5s-1.33398 32.5 -2.00098 52.5s-1.33398 41.667 -2.00098 65s-1.16699 46.333 -1.5 69
c-0.333984 22.667 -0.666992 44.334 -1 65.001s-0.5 38 -0.5 52c0 54 0.333008 96.667 1 128c0.667969 31.334 1.33496 56.334 2 75c86.667 -92 173.334 -184.5 260.001 -277.5s168.334 -183.833 245.001 -272.5z" />
    <glyph glyph-name="O" unicode="O" horiz-adv-x="833" 
d="M42 340c0 -56.667 9.16699 -107.167 27.5 -151.5s44 -81.833 77 -112.5s72.5 -53.5 118.5 -68.5s96.333 -22.5 151 -22.5c55.333 0 106 7.5 152 22.5s85.5 37.833 118.5 68.5s58.667 68.167 77 112.5s27.5 94.833 27.5 151.5s-9.16699 107.167 -27.5 151.5
s-44 81.833 -77 112.5s-72.5 54 -118.5 70s-96.667 24 -152 24c-54.667 0 -105 -8 -151 -24s-85.5 -39.333 -118.5 -70s-58.667 -68.167 -77 -112.5s-27.5 -94.833 -27.5 -151.5zM693 340c0 -55.333 -7.00098 -103.167 -21.001 -143.5s-33.5 -73.666 -58.5 -99.999
s-54.333 -45.833 -88 -58.5s-70.167 -19 -109.5 -19c-38.667 0 -74.834 6.33301 -108.5 19c-33.667 12.667 -63 32.167 -88 58.5s-44.5 59.666 -58.5 99.999s-21 88.166 -21 143.499c0 55.334 7 103.167 21 143.5s33.5 73.666 58.5 99.999s54.333 45.833 88 58.5
s69.834 19 108.501 19c39.333 0 75.833 -6.33301 109.5 -19s63 -32.167 88 -58.5c25 -26.334 44.5 -59.667 58.5 -99.999c14 -40.333 21 -88.166 21 -143.499z" />
    <glyph glyph-name="P" unicode="P" 
d="M180 351l0.000976562 297h90c26 0 49.333 -1.83301 70 -5.5s38.167 -10.5 52.5 -20.5s25.5 -24 33.5 -42s12 -41.333 12 -70c0 -34 -5.83301 -61.833 -17.5 -83.5s-26.667 -38.667 -45 -51s-38.5 -20.833 -60.5 -25.5s-43.333 -7 -64 -7
c-24.667 0 -48.334 2.66699 -71.001 8zM98.001 426l0.00292969 -172.001c0 -44 -0.833008 -87.333 -2.5 -130s-3.5 -84.667 -5.5 -126c15.333 1.33301 31.666 2 48.999 2s33.666 -0.666992 48.999 -2c-2 41.333 -3.83301 83.333 -5.5 126s-2.5 86 -2.5 130v55
c13.333 -1.33301 26.333 -2.16602 39 -2.49902s26.667 -0.5 42 -0.5c24 0 51.5 2.66699 82.5 8c31 5.33496 60.333 15.668 88 31c27.667 15.334 51 36.667 70 64s28.5 63 28.5 107c0 28 -4 51.5 -12 70.5s-18.5 34.833 -31.5 47.5c-13 12.6719 -27.5 22.3389 -43.5 29.001
c-16 6.66699 -32.167 11.667 -48.5 15s-31.833 5.33301 -46.5 6s-27 1 -37 1c-7.33301 0 -16.333 -0.333008 -27 -1c-10.668 -0.666992 -21.835 -1.16699 -33.501 -1.5c-11.667 -0.333008 -23.167 -0.833008 -34.5 -1.5s-21 -1 -29 -1c-16 0 -32.167 0.5 -48.5 1.5
s-32.5 2.16699 -48.5 3.5c2 -44 3.83301 -87.167 5.5 -129.5c1.66699 -42.334 2.5 -85.501 2.5 -129.501z" />
    <glyph glyph-name="Q" unicode="Q" horiz-adv-x="833" 
d="M42 340c0 -56.667 9.16699 -107.168 27.5 -151.501s44 -81.833 77 -112.5s72.5 -53.5 118.5 -68.5s96.333 -22.5 151 -22.5h14c6.66699 0 11.667 0.333008 15 1c42 -34 81.667 -67.667 119 -101s74.333 -67 111 -101c5.33301 8.66602 15.333 17.333 30 26
s30.667 13.667 48 15c-40.667 28.667 -79.5 57.334 -116.5 86.001s-73.5 57.334 -109.5 86.001c40 7.33301 76.167 20.666 108.5 39.999s60 43.833 83 73.5s40.833 63.667 53.5 102s19 80.833 19 127.5c0 56.667 -9.16699 107.167 -27.5 151.5s-44 81.833 -77 112.5
s-72.5 54 -118.5 70s-96.667 24 -152 24c-54.667 0 -105 -8 -151 -24s-85.5 -39.333 -118.5 -70s-58.667 -68.167 -77 -112.5s-27.5 -94.833 -27.5 -151.5zM693 339.999c0 -55.333 -7.00098 -103.167 -21.001 -143.5s-33.5 -73.666 -58.5 -99.999s-54.333 -45.833 -88 -58.5
s-70.167 -19 -109.5 -19c-38.667 0 -74.834 6.33301 -108.5 19c-33.667 12.667 -63 32.167 -88 58.5s-44.5 59.666 -58.5 99.999s-21 88.166 -21 143.499c0 55.334 7 103.167 21 143.5s33.5 73.666 58.5 99.999s54.333 45.833 88 58.5s69.834 19 108.501 19
c39.333 0 75.833 -6.33301 109.5 -19s63 -32.167 88 -58.5c25 -26.334 44.5 -59.667 58.5 -99.999c14 -40.333 21 -88.166 21 -143.499z" />
    <glyph glyph-name="R" unicode="R" horiz-adv-x="611" 
d="M98 426l-0.000976562 -171.999c0 -44 -0.833008 -87.333 -2.5 -130s-3.5 -84.667 -5.5 -126c15.333 1.33301 31.666 2 48.999 2s33.666 -0.666992 48.999 -2c-2 41.333 -3.83301 83.333 -5.5 126s-2.5 86 -2.5 130v73h38c21.333 -22 44.833 -48.833 70.5 -80.5
s50.834 -63.5 75.501 -95.5s47.167 -62 67.5 -90s35.5 -49 45.5 -63c9.33301 1.33301 19 2 29 2h29h30c10 0 20 -0.666992 30 -2c-9.33789 9.33301 -21.6709 23 -37 41c-15.335 18 -31.668 37.833 -48.999 59.5c-17.333 21.667 -35.333 44.334 -54 68.001
s-36.667 46.334 -54 68c-17.333 21.667 -33 41.5 -47 59.5s-25 32 -33 42c19.333 2.66699 40.833 8.16699 64.5 16.5s45.834 20 66.501 35s38.167 34 52.5 57s21.5 50.5 21.5 82.5c0 30 -5.5 55 -16.5 75s-26 36.167 -45 48.5s-41.167 21.166 -66.5 26.499s-52 8 -80 8
c-19.333 0 -38.333 -0.833008 -57 -2.5s-37.667 -2.5 -57 -2.5s-38.333 0.5 -57 1.5s-37.667 2.16699 -57 3.5c2 -44 3.83301 -87.167 5.5 -129.5c1.66699 -42.334 2.5 -85.501 2.5 -129.501zM179.999 369.001l0.00195312 57c0 36 0.666992 72 2 108
s2.66602 72.333 3.99902 109c10.667 1.33301 23.667 2.5 39 3.5s34.666 1.5 57.999 1.5c17.333 0 35 -1.83301 53 -5.5s34.667 -10.5 50 -20.5s27.833 -23.5 37.5 -40.5s14.5 -38.5 14.5 -64.5c0 -30 -6.16699 -54.833 -18.5 -74.5s-27.833 -35.334 -46.5 -47
c-18.667 -11.668 -39.167 -19.835 -61.5 -24.5c-22.333 -4.66699 -43.833 -7 -64.5 -7c-13.333 0 -25.5 0.333008 -36.5 1s-21.167 2 -30.5 4z" />
    <glyph glyph-name="S" unicode="S" horiz-adv-x="500" 
d="M76 128l-12.001 -0.00292969c-2 -19.333 -4.16699 -35.166 -6.5 -47.499s-6.5 -26.166 -12.5 -41.499c17.333 -14 38.833 -26.5 64.5 -37.5s59.167 -16.5 100.5 -16.5c38.667 0 73.167 5.5 103.5 16.5s56 26.667 77 47s37 44.166 48 71.499s16.5 56.333 16.5 87
c0 36.667 -7.83301 66 -23.5 88s-35.167 40 -58.5 54s-48.5 25.833 -75.5 35.5s-52.167 20.667 -75.5 33s-42.833 27.5 -58.5 45.5s-23.5 42.667 -23.5 74c0 18 3.16699 34.667 9.5 50s15.333 28.5 27 39.5s25.334 19.5 41 25.5c15.667 6 32.834 9 51.5 9
c18.667 0 34.667 -3.16699 48 -9.5c13.333 -6.33789 24.833 -14.1709 34.5 -23.499c9.66699 -9.33301 17.334 -19.5 23.001 -30.5s10.167 -21.167 13.5 -30.5h12c4 19.333 8 35.333 12 48s9 24.667 15 36c-20 16 -41.667 27.833 -65 35.5s-51 11.5 -83 11.5
c-33.333 0 -63.333 -4.66699 -90 -14s-49.5 -22.333 -68.5 -39s-33.5 -36.5 -43.5 -59.5s-15 -48.5 -15 -76.5c0 -39.333 7.83301 -70.666 23.5 -93.999s35.167 -42.5 58.5 -57.5s48.5 -27.5 75.5 -37.5s52.167 -21 75.5 -33s42.833 -27 58.5 -45s23.5 -42.333 23.5 -73
c0 -20 -3.33301 -38.833 -10 -56.5s-16.167 -33 -28.5 -46s-27.333 -23.333 -45 -31s-37.5 -11.5 -59.5 -11.5c-21.334 0 -40.667 3.16699 -58 9.5s-32.5 14.5 -45.5 24.5s-24 21.167 -33 33.5s-16.167 24.5 -21.5 36.5z" />
    <glyph glyph-name="T" unicode="T" 
d="M237 426l0.000976562 -172c0 -44 -0.833008 -87.333 -2.5 -130s-3.5 -84.667 -5.5 -126c15.333 1.33301 31.666 2 48.999 2c17.334 -0 33.667 -0.666992 49 -2c-2 41.333 -3.83301 83.333 -5.5 126s-2.5 86 -2.5 130v172c0 69.333 1 138.333 3 207
c17.333 0 35.5 -0.166992 54.5 -0.5s38 -1 57 -2s37.333 -2.16699 55 -3.5s33.5 -3 47.5 -5c-3.33301 12 -5 22.333 -5 31c0 8 1.66699 18.667 5 32c-44 -1.33301 -87 -2.5 -129 -3.5s-85 -1.5 -129 -1.5s-87 0.5 -129 1.5s-85 2.16699 -129 3.5
c3.33301 -13.3389 5 -23.6719 5 -31c0 -9.33301 -1.66699 -20 -5 -32c14 2 29.833 3.66699 47.5 5s36 2.5 55 3.5s38 1.66699 57 2s37.167 0.5 54.5 0.5c2 -68.667 3 -137.667 3 -207z" />
    <glyph glyph-name="U" unicode="U" horiz-adv-x="778" 
d="M619 360c0 -20.667 -0.329102 -43.333 -0.996094 -67.999c-0.666992 -24.667 -3 -49.334 -7 -74.001s-10.5 -48.334 -19.5 -71.001s-21.5 -42.667 -37.5 -60s-36.5 -31.333 -61.5 -42s-55.833 -16 -92.5 -16c-37.333 0 -68.666 4.5 -93.999 13.5s-46.333 21.333 -63 37
s-29.5 34 -38.5 55s-15.5 43 -19.5 66s-6.33301 46.667 -7 71s-1 47.833 -1 70.5c0 37.333 0.333008 73.333 1 108s1.66699 67 3 97s2.66602 56.833 3.99902 80.5c1.33301 23.6689 2.66602 42.8359 3.99902 57.5c-7.33301 -1.33301 -14.5 -2.5 -21.5 -3.5
s-14.167 -1.5 -21.5 -1.5c-8 0 -16.667 0.5 -26 1.5s-18 2.16699 -26 3.5c1.33301 -30 2.66602 -66.667 3.99902 -110c1.33301 -43.334 2 -93.001 2 -149.001c0 -25.333 -0.833008 -50.166 -2.5 -74.499s-2.5 -52.166 -2.5 -83.499c0 -98 22.667 -169.667 68 -215
s118 -68 218 -68c45.333 0 85.5 6.33301 120.5 19s64.5 31.334 88.5 56.001s42.5 54.667 55.5 90s19.833 75.333 20.5 120c0.666992 36.667 1.66699 74.5 3 113.5s2.66602 77 3.99902 114s3 71.667 5 104s4 60.166 6 83.499c-11.333 -3.33301 -21.333 -5 -30 -5
c-6.66699 0 -13.334 0.5 -20.001 1.5s-13.667 2.16699 -21 3.5c2.68555 -19.335 4.35254 -54.668 5 -106c0.666992 -51.334 1 -124.334 1 -219z" />
    <glyph glyph-name="V" unicode="V" horiz-adv-x="667" 
d="M296 -2c8.66699 1.33301 19.6699 1.99805 33.0029 1.99805c11.333 0 22.333 -0.666992 33 -2c44 114 90 228 138 342s98 229 150 345c-14.667 -3.33301 -27 -5 -37 -5s-22.333 1.66699 -37 5c-7.33301 -22 -16.333 -48 -27 -78s-22.5 -62.333 -35.5 -97
s-26.5 -70.834 -40.5 -108.5c-14 -37.667 -28.167 -74.667 -42.5 -111s-28.5 -71.333 -42.5 -105s-27 -64.167 -39 -91.5c-21.333 50.667 -42.333 101.667 -63 153s-40.834 102 -60.501 152s-38.334 99.167 -56.001 147.5s-33.834 94.5 -48.501 138.5
c-9.33301 -1.33301 -18.333 -2.5 -27 -3.5s-17 -1.5 -25 -1.5s-16.333 0.5 -25 1.5s-17.667 2.16699 -27 3.5c24 -57.333 49.167 -118 75.5 -182s52 -126.667 77 -188s48.5 -119.666 70.5 -174.999s40.667 -102.666 56 -141.999z" />
    <glyph glyph-name="W" unicode="W" horiz-adv-x="1000" 
d="M229 -2c10.667 1.33301 22.334 2.00488 35 2.00488c12.667 0 24.334 -0.666992 35.001 -2c10 29.333 21 62 33 98s24.333 72.667 37 110s25.334 74.333 38.001 111s24.5 71 35.5 103s21 60.833 30 86.5s16.167 46.167 21.5 61.5h2c34 -100 65.667 -196.833 95 -290.5
s59 -186.834 89 -279.501c10.667 1.33301 22 2 34 2s23.333 -0.666992 34 -2c6 16 15.167 42.167 27.5 78.5s26.333 77.333 42 123s32 93.834 49 144.501s33.333 98.667 49 144c15.6699 45.333 29.8369 85.666 42.5 120.999c12.6689 35.333 22.3359 60.666 29.001 75.999
c-6 -1.33301 -11.833 -2.5 -17.5 -3.5s-11.5 -1.5 -17.5 -1.5s-11.833 0.5 -17.5 1.5s-11.5 2.16699 -17.5 3.5c-3.33301 -14.667 -9.5 -37.334 -18.5 -68.001s-19.333 -65.5 -31 -104.5s-24 -80 -37 -123s-25.667 -84 -38 -123s-23.333 -74 -33 -105
s-16.834 -53.833 -21.501 -68.5h-2c-6 17.333 -14.167 41.333 -24.5 72s-21.833 65 -34.5 103s-25.834 77.667 -39.501 119s-26.5 81.166 -38.5 119.499s-22.833 73.166 -32.5 104.499s-16.834 56 -21.501 74c-13.333 -3.33301 -24.333 -5 -33 -5s-19.667 1.66699 -33 5
c-4 -16.667 -10.667 -40.5 -20 -71.5s-20 -65.333 -32 -103s-25 -77.167 -39 -118.5s-27.333 -81.166 -40 -119.499s-24.334 -73.333 -35 -105c-10.667 -31.667 -19 -56.5 -25 -74.5h-2c-20 63.333 -37.833 120.166 -53.5 170.499s-30.334 98.333 -44.001 144
s-26.5 90.667 -38.5 135s-24.333 91.833 -37 142.5c-8.66699 -1.33301 -17 -2.5 -25 -3.5s-16.333 -1.5 -25 -1.5s-17 0.5 -25 1.5s-16.333 2.16699 -25 3.5c6.66699 -17.333 15.834 -44 27.501 -80s24.5 -76.5 38.5 -121.5s28.667 -92.333 44 -142s30 -97.167 44 -142.5
s26.5 -86 37.5 -122s19.167 -62.333 24.5 -79z" />
    <glyph glyph-name="X" unicode="X" horiz-adv-x="611" 
d="M319 411c-30.667 50.667 -58.665 97.835 -83.998 141.502c-25.333 43.668 -49 87.835 -71 132.5c-9.33301 -1.33301 -18.333 -2.5 -27 -3.5s-17.667 -1.5 -27 -1.5s-18.333 0.5 -27 1.5s-17.667 2.16699 -27 3.5c36.667 -58.667 72.5 -116.334 107.5 -173.001
s69.833 -114.334 104.5 -173c-38 -58.667 -76 -116.334 -114 -173.001s-77 -112.667 -117 -168c6.66699 1.33301 13.167 2 19.5 2h17.5h17.5c6.33301 -0 12.833 -0.666992 19.5 -2c28 48.667 56.667 98.167 86 148.5s61 100.833 95 151.5
c34 -50.667 64.167 -101.167 90.5 -151.5s52.833 -99.833 79.5 -148.5c9.33496 1.33301 18.668 2 27.999 2h28h28c9.33301 -0 18.666 -0.666992 27.999 -2c-40 61.333 -79.167 123 -117.5 185s-76.5 125.333 -114.5 190c34 54 69.333 106.333 106 157s74 102.334 112 155
c-14.667 -3.33301 -27 -5 -37 -5s-22.333 1.66699 -37 5c-28 -51.333 -55.167 -98.5 -81.5 -141.5s-54.833 -87.167 -85.5 -132.5z" />
    <glyph glyph-name="Y" unicode="Y" horiz-adv-x="611" 
d="M265 279c0 -54 -0.336914 -105.668 -1.00391 -155.001s-3 -91.333 -7 -126c15.334 1.33301 31.667 2 49 2c17.334 0 33.667 -0.666992 49 -2c-1.33301 14 -2.5 32.5 -3.5 55.5s-1.83301 48 -2.5 75s-1.16699 54.5 -1.5 82.5s-0.5 54.333 -0.5 79
c10.667 20.667 23.334 43.834 38.001 69.501s31.667 54.5 51 86.5c19.334 32 41.667 67.667 67 107s54 83.333 86 132c-16.667 -3.33301 -29.667 -5 -39 -5s-22.333 1.66699 -39 5c-13.333 -28.667 -27.666 -58.167 -42.999 -88.5s-31.333 -60.5 -48 -90.5
s-33.334 -59.333 -50 -88c-16.667 -28.667 -32.667 -55 -48 -79c-34.667 60.667 -67.5 119 -98.5 175s-61.5 113 -91.5 171c-9.33301 -1.33301 -18.5 -2.5 -27.5 -3.5s-18.167 -1.5 -27.5 -1.5s-18.5 0.5 -27.5 1.5s-18.167 2.16699 -27.5 3.5
c6.66699 -10.667 16.334 -26.5 29.001 -47.5s26.834 -44.667 42.501 -71s32.167 -54 49.5 -83s33.833 -56.667 49.5 -83s30 -50.333 43 -72s22.833 -38.167 29.5 -49.5z" />
    <glyph glyph-name="Z" unicode="Z" horiz-adv-x="611" 
d="M23 12v-14c12.667 0.666992 32 1.16699 58 1.5s54.833 0.5 86.5 0.5h96.5h89h55h55c18.667 -0 38.167 -0.166992 58.5 -0.5s42.5 -0.833008 66.5 -1.5c-3.33301 10.667 -5 20.334 -5 29.001c0 5.33301 0.5 10.666 1.5 15.999s2.16699 11 3.5 17
c-17.333 -2 -40.833 -4 -70.5 -6s-61.167 -4 -94.5 -6s-66.833 -3.5 -100.5 -4.5s-63.167 -1.5 -88.5 -1.5c-13.333 0 -26.5 0.166992 -39.5 0.5s-27.5 1.16602 -43.5 2.49902c10 16 25.833 40.5 47.5 73.5s46.5 70.167 74.5 111.5s57.667 84.666 89 129.999
s61.5 88.333 90.5 129s55.5 77 79.5 109s42.667 55 56 69v18c-17.333 -1.33301 -35 -2.5 -53 -3.5s-36 -1.5 -54 -1.5c-104 0 -191.333 0.166992 -262 0.5s-122.334 1.83301 -155.001 4.5c3.33301 -12 5 -22.333 5 -31s-1.66699 -19 -5 -31c18.667 2 41.5 3.83301 68.5 5.5
c27 1.68555 55.333 3.35254 85 5c29.667 1.67188 59.167 2.83887 88.5 3.50098c29.333 0.666992 56 1 80 1c10.667 0 22 -0.166992 34 -0.5s24 -0.833008 36 -1.5c-8.66699 -13.333 -21.667 -32.833 -39 -58.5s-37.666 -55.667 -60.999 -90s-49 -71.666 -77 -111.999
s-56.667 -81.333 -86 -123s-58.5 -83.167 -87.5 -124.5s-56.5 -80 -82.5 -116z" />
    <glyph glyph-name="bracketleft" unicode="[" horiz-adv-x="333" 
d="M138 407v-252.001c0 -93.333 -2 -184.333 -6 -273c15.333 2 32.333 3 51 3c8 0 17.167 -0.166992 27.5 -0.5l31 -1c10.333 -0.333008 20.166 -0.666016 29.499 -0.999023s17.333 -0.5 24 -0.5c-0.666992 2.66699 -1.16699 5 -1.5 7s-0.5 4.33301 -0.5 7
c0 1.33301 0.166992 3.33301 0.5 6s0.833008 5.66699 1.5 9c-14 -0.666992 -28.833 -1.16699 -44.5 -1.5s-31.167 -0.5 -46.5 -0.5c-2.66699 42 -4.66699 83 -6 123s-2 81 -2 123v252c0 42 0.666992 83.5 2 124.5s3.33301 82.5 6 124.5c15.333 0 30.833 -0.166992 46.5 -0.5
s30.5 -0.833008 44.5 -1.5c-0.666992 3.33301 -1.16699 6.33301 -1.5 9s-0.5 4.66699 -0.5 6c0 2.66699 0.166992 5 0.5 7s0.833008 4.33301 1.5 7c-6.66699 0 -14.667 -0.166992 -24 -0.5c-9.33301 -0.34375 -19.166 -0.676758 -29.499 -1l-31 -1
c-10.333 -0.333008 -19.5 -0.5 -27.5 -0.5c-18.667 0 -35.667 1 -51 3c4 -90.667 6 -182.667 6 -276z" />
    <glyph glyph-name="backslash" unicode="\" horiz-adv-x="500" 
d="M86 703l276 -723c11.333 3.33301 20 5 26 5s14.667 -1.66699 26 -5l-276 723c-11.333 -3.33301 -20 -5 -26 -5s-14.667 1.66699 -26 5z" />
    <glyph glyph-name="bracketright" unicode="]" horiz-adv-x="333" 
d="M137 407v-251.999c0 -42 -0.666992 -83 -2 -123s-3.33301 -81 -6 -123c-15.333 0 -30.833 0.166992 -46.5 0.5s-30.5 0.833008 -44.5 1.5c0.666992 -3.33301 1.16699 -6.33301 1.5 -9s0.5 -4.66699 0.5 -6c0 -2.66699 -0.166992 -5 -0.5 -7s-0.833008 -4.33301 -1.5 -7
c6.66699 0 14.667 0.166992 24 0.5s19.166 0.666016 29.499 1l31 1c10.333 0.333008 19.5 0.5 27.5 0.5c19.333 0 36.333 -1 51 -3c-4 88.667 -6 179.667 -6 273v252c0 93.333 2 185.333 6 276c-14.667 -2 -31.667 -3 -51 -3c-8 0 -17.167 0.166992 -27.5 0.5l-31 1
c-10.333 0.333008 -20.166 0.666016 -29.499 0.999023s-17.333 0.5 -24 0.5c0.666992 -2.66699 1.16699 -5 1.5 -7s0.5 -4.33301 0.5 -7c0 -1.33301 -0.166992 -3.33301 -0.5 -6s-0.833008 -5.66699 -1.5 -9c14 0.666992 28.833 1.16699 44.5 1.5s31.167 0.5 46.5 0.5
c2.66699 -42 4.66699 -83.5 6 -124.5s2 -82.5 2 -124.5z" />
    <glyph glyph-name="asciicircum" unicode="^" horiz-adv-x="606" 
d="M278 656l-236 -453h52l209 406l209 -406h52l-234 453h-52z" />
    <glyph glyph-name="underscore" unicode="_" horiz-adv-x="500" 
d="M0 -128h500v50h-500v-50z" />
    <glyph glyph-name="grave" unicode="`" horiz-adv-x="333" 
d="M46 653l147.001 -94h42l-147 149c-16 16 -31 24 -45 24c-6.66699 0 -13.834 -2.66699 -21.501 -8s-11.5 -13.333 -11.5 -24c0 -12 4 -21.5 12 -28.5s16 -13.167 24 -18.5z" />
    <glyph glyph-name="a" unicode="a" horiz-adv-x="500" 
d="M333 247l-4 -150c-11.333 -18.667 -27.5 -35 -48.5 -49s-44.167 -21 -69.5 -21c-22 0 -42 8 -60 24s-27 39.667 -27 71c0 18.667 3.5 34 10.5 46s16.333 22 28 30s25 14.333 40 19s30.167 8.5 45.5 11.5s30.5 5.83301 45.5 8.5s28.167 6 39.5 10zM86 425v-52h11
c11.333 21.333 28.5 38 51.5 50s47.833 18 74.5 18c20 0 37 -3.5 51 -10.5s25.333 -16.167 34 -27.5s15 -24.666 19 -39.999s6 -31.333 6 -48c0 -10 -1 -18.167 -3 -24.5s-7.83301 -11.833 -17.5 -16.5s-24.667 -9.16699 -45 -13.5s-48.5 -9.5 -84.5 -15.5
c-44 -7.33301 -78.5 -22 -103.5 -44s-37.5 -53 -37.5 -93c0 -19.333 3.83301 -36.5 11.5 -51.5s17.667 -27.833 30 -38.5s26.5 -18.334 42.5 -23.001s32.333 -7 49 -7c34 0 62.667 5.66699 86 17s47 29 71 53c2 -17.333 8.66699 -31.5 20 -42.5
c11.334 -11 27.667 -16.5 49 -16.5c13.333 0 25.5 1 36.5 3s20.167 4.66699 27.5 8v22c-3.33301 -2 -6.83301 -3.16699 -10.5 -3.5s-7.16699 -0.5 -10.5 -0.5c-10 0 -17.5 2.33301 -22.5 7s-8.83301 10.5 -11.5 17.5s-4.16699 15 -4.5 24s-0.5 17.5 -0.5 25.5
c0 42 0.666992 81.833 2 119.5s2 75.5 2 113.5c0 22 -4 42.167 -12 60.5s-19 34 -33 47s-31 23 -51 30s-42 10.5 -66 10.5c-26.667 0 -52.667 -4 -78 -12s-53 -23.333 -83 -46z" />
    <glyph glyph-name="b" unicode="b" 
d="M426 251c0 -35.333 -3.66699 -67.333 -11 -96s-17.5 -53.334 -30.5 -74.001s-28.167 -36.5 -45.5 -47.5s-36.333 -16.5 -57 -16.5c-97.333 0 -146 67 -146 201c0 41.334 4.16699 76.167 12.5 104.5s19.5 51.333 33.5 69s30.5 30.334 49.5 38.001s38.833 11.5 59.5 11.5
c17.334 0 34.167 -4.16699 50.5 -12.5c16.334 -8.33301 30.667 -20.5 43 -36.5s22.333 -35.833 30 -59.5s11.5 -50.834 11.5 -81.5zM514 248c0 31.334 -4.16699 61.1699 -12.5 89.5029c-8.33301 28.334 -20.833 53.167 -37.5 74.5s-37.667 38.5 -63 51.5
s-55.333 19.5 -90 19.5c-36 0 -67.667 -8.33301 -95 -25s-52.333 -43 -75 -79h-2c0.666992 30.667 1.33398 64.834 2 102.501c0.666992 37.668 1.33398 74.335 2 110.001c0.666992 35.667 1.66699 68 3 97s3 50.167 5 63.5c-9.33301 -1.33301 -18 -2.5 -26 -3.5
s-15.667 -1.5 -23 -1.5c-11.333 0 -26.333 1.66699 -45 5c1.33301 -16.667 2.5 -36.834 3.5 -60.501s1.83301 -48.5 2.5 -74.5c0.667969 -26 1.16797 -52.333 1.5 -79c0.333008 -26.667 0.5 -51.334 0.5 -74v-181c0 -22.667 -0.166992 -47.334 -0.5 -74.001
s-0.833008 -52.834 -1.5 -78.501s-1.5 -49.834 -2.5 -72.501s-2.16699 -42 -3.5 -58h18c20.667 19.333 43 38.666 67 57.999c13.333 -19.333 32.833 -35.833 58.5 -49.5s54.5 -20.5 86.5 -20.5s61.833 6.16699 89.5 18.5s51.667 30 72 53s36.333 50.5 48 82.5
s17.5 67.333 17.5 106z" />
    <glyph glyph-name="c" unicode="c" horiz-adv-x="500" 
d="M42 234c0 -45.333 7.16797 -83.6689 21.501 -115.002s33.166 -56.833 56.499 -76.5s49.5 -33.667 78.5 -42s57.833 -12.5 86.5 -12.5c32 0 62.833 5.66699 92.5 17s54.5 25 74.5 41c0.666992 16.667 2.66699 33 6 49l-5 3c-8.66797 -10 -18.835 -19.333 -30.501 -28
c-11.667 -8.66699 -24.167 -16.167 -37.5 -22.5s-27 -11.333 -41 -15s-27.667 -5.5 -41 -5.5c-56.667 0 -99.667 17.5 -129 52.5s-44 86.833 -44 155.5c0 30.667 3.16699 59.167 9.5 85.5c6.33301 26.334 16.333 49.167 30 68.5s31.334 34.5 53.001 45.5
s47.5 16.5 77.5 16.5c16 0 30.667 -2.5 44 -7.5s25.5 -11.333 36.5 -19s20.5 -16 28.5 -25s14.333 -17.833 19 -26.5h8c2.66699 12 5.83398 23.5 9.50098 34.5s7.83398 21.5 12.501 31.5c-12.667 11.333 -33.5 21.5 -62.5 30.5s-61.833 13.5 -98.5 13.5
c-32 0 -63.333 -4.83301 -94 -14.5s-57.834 -24.667 -81.501 -45s-42.834 -46.166 -57.501 -77.499s-22 -68.666 -22 -111.999z" />
    <glyph glyph-name="d" unicode="d" 
d="M130 225c0 30 2.83301 58.168 8.5 84.501s14.334 49.333 26 69c11.667 19.667 26.334 35 44 46c17.667 11 38.5 16.5 62.5 16.5c48 0 84.333 -16.833 109 -50.5s37 -82.5 37 -146.5c0 -26.667 -2.83301 -53.334 -8.5 -80.001s-14.667 -50.5 -27 -71.5
s-27.833 -38 -46.5 -51s-41 -19.5 -67 -19.5c-16 0 -32.333 3 -49 9s-31.5 16.833 -44.5 32.5s-23.667 36.5 -32 62.5s-12.5 59 -12.5 99zM416 93.001l-3.00195 -95c13.333 1.33301 26 2 38 2c12.667 0 25.667 -0.666992 39 -2c-0.673828 38.667 -1.34082 76.334 -2 113.001
c-0.666992 36.667 -1 78 -1 124c0 42.667 0.333008 89.667 1 141s1.5 101.333 2.5 150s2.16699 93.167 3.5 133.5s3 71.166 5 92.499c-8.66699 -1.33301 -16.5 -2.5 -23.5 -3.5s-14.167 -1.5 -21.5 -1.5s-14.666 0.5 -21.999 1.5s-15 2.16699 -23 3.5
c0.666992 -16 1.16699 -34.333 1.5 -55c0.339844 -20.667 0.672852 -42.667 1 -66c0.334961 -23.333 0.667969 -47.833 1 -73.5c0.333008 -25.667 0.5 -51.167 0.5 -76.5v-98h-2c-28.667 66.667 -80 100 -154 100c-26 0 -51.833 -5.16699 -77.5 -15.5s-48.667 -26 -69 -47
s-36.833 -47.167 -49.5 -78.5s-19 -68.333 -19 -111c0 -43.333 5.83301 -80.5 17.5 -111.5s27 -56.333 46 -76s40.667 -33.834 65 -42.501s49.166 -13 74.499 -13c24.667 0 46.334 3.33301 65.001 10s34.834 15.334 48.501 26.001s25 22.167 34 34.5
s16.167 23.833 21.5 34.5h2z" />
    <glyph glyph-name="e" unicode="e" horiz-adv-x="500" 
d="M266 451c26 0 46.999 -5.66895 62.999 -17.002s28.5 -25.666 37.5 -42.999s15 -36 18 -56s4.5 -39 4.5 -57c-21.333 -0.670898 -43.333 -1.33789 -66 -2c-22.667 -0.666992 -45 -1 -67 -1c-21.333 0 -43.166 0.333008 -65.499 1s-43.833 1.33398 -64.5 2.00098
c1.33301 18 4.83301 37.167 10.5 57.5s14 39 25 56s25 31.167 42 42.5s37.833 17 62.5 17zM34.999 219.998c0 -33.333 5.83105 -64.333 17.498 -93s28.334 -53.5 50.001 -74.5s47.334 -37 77.001 -48s62.5 -16.5 98.5 -16.5c32 0 62.833 5.66699 92.5 17s54.5 25 74.5 41
l6 49l-5 3c-8.66699 -10 -18.834 -19.333 -30.5 -28c-11.667 -8.66699 -24.167 -16.167 -37.5 -22.5s-27 -11.333 -41 -15s-27.667 -5.5 -41 -5.5c-28 0 -52.667 4.83301 -74 14.5s-39.333 22.667 -54 39s-25.834 35.833 -33.501 58.5s-11.5 47 -11.5 73v13
c0 6.66699 0.333008 11.667 1 15c22 0.668945 43.833 1.33594 65.5 2.00098c21.667 0.666992 43.5 1 65.5 1c36 0 71.667 -0.333008 107 -1s71 -1.33398 107 -2.00098c0.666992 6.66699 1.16699 13.167 1.5 19.5s0.5 12.833 0.5 19.5c0 28 -4.16699 54.333 -12.5 79
s-21.166 46.167 -38.499 64.5s-38.833 33 -64.5 44s-56.167 16.5 -91.5 16.5c-74.667 0 -131.5 -23.333 -170.5 -70s-58.5 -111 -58.5 -193z" />
    <glyph glyph-name="f" unicode="f" horiz-adv-x="278" 
d="M288 669l6.00098 2.99707c0 13.333 0.5 26.666 1.5 39.999s1.83301 26.666 2.5 39.999c-6 2 -12.667 3 -20 3c-19.333 0 -38.166 -4.66699 -56.499 -14s-33.5 -20 -45.5 -32c-13.333 -13.333 -25.333 -29.833 -36 -49.5s-19.834 -40.5 -27.501 -62.5
s-13.5 -44.333 -17.5 -67s-6 -43.667 -6 -63c-11.333 0 -23.166 0.166992 -35.499 0.5s-24.5 0.5 -36.5 0.5c0.666992 -3.33301 1.16699 -6.66602 1.5 -9.99902s0.5 -6.66602 0.5 -9.99902s-0.166992 -6.66602 -0.5 -9.99902s-0.833008 -6.66602 -1.5 -9.99902l36 2
c12 0.666992 24 1 36 1c0 -74 -0.333008 -146.5 -1 -217.5s-3.33398 -142.833 -8.00098 -215.5c15.333 1.33301 30 2 44 2h21c7.33301 0 14.666 -0.666992 21.999 -2c-2 72.667 -3.16699 144.834 -3.5 216.501s-0.5 143.834 -0.5 216.501c17.333 0 34.5 -0.333008 51.5 -1
c17 -0.672852 34.167 -1.33984 51.5 -2c-0.666992 3.33984 -1.16699 6.67285 -1.5 10c-0.333008 3.33984 -0.5 6.67285 -0.5 9.99902c0 3.33984 0.166992 6.67285 0.5 9.99902c0.333008 3.34082 0.833008 6.67383 1.5 10c-17.333 0 -34.5 -0.166992 -51.5 -0.5
s-34.167 -0.5 -51.5 -0.5c-3.33398 20.667 -6.16699 42.334 -8.5 65.001s-3.5 40 -3.5 52c0 13.333 1.5 26 4.5 38s7.83301 22.5 14.5 31.5s15.167 16.333 25.5 22s22.833 8.5 37.5 8.5c20.667 0 39 -5 55 -15z" />
    <glyph glyph-name="g" unicode="g" horiz-adv-x="500" 
d="M405 -108c0 -22.667 -4.66699 -42.167 -14 -58.5s-21.5 -29.833 -36.5 -40.5s-32.167 -18.667 -51.5 -24s-39 -8 -59 -8c-20.667 0 -40 2.33301 -58 7s-33.5 12 -46.5 22s-23.333 23 -31 39s-11.5 35.333 -11.5 58c0 42.667 13.667 72.167 41 88.5s66 24.5 116 24.5
c54 0 92.667 -8 116 -24s35 -44 35 -84zM351 325c0 -18.667 -2.16699 -36.5 -6.5 -53.5s-11 -32 -20 -45s-20.333 -23.333 -34 -31s-30.167 -11.5 -49.5 -11.5c-38.667 0 -67.167 12.167 -85.5 36.5s-27.5 57.5 -27.5 99.5c0 40.667 10 73.167 30 97.5s48 36.5 84 36.5
c32.667 0 59 -11 79 -33s30 -54 30 -96zM50 320c0 -36.667 8.66895 -67.1689 26.002 -91.502c17.333 -24.334 41.333 -43.167 72 -56.5v-2c-8 -1.33301 -16.333 -4.33301 -25 -9s-16.334 -10.667 -23.001 -18s-12.167 -15.666 -16.5 -24.999s-6.5 -19.666 -6.5 -30.999
c0 -19.333 5.33301 -36 16 -50s26.334 -24 47.001 -30v-2c-13.333 -3.33301 -26.333 -8.33301 -39 -15s-24 -15.667 -34 -27s-18.167 -24.333 -24.5 -39s-9.5 -30.667 -9.5 -48c0 -44.667 18.667 -79.834 56 -105.501s88.333 -38.5 153 -38.5c42 0 78 6.33301 108 19
s54.5 28.667 73.5 48s33 41 42 65s13.5 47.667 13.5 71c0 17.333 -3.16699 33.333 -9.5 48s-16.333 27.667 -30 39s-31.334 20.333 -53 27c-21.667 6.66699 -47.834 10.334 -78.501 11.001c-18.667 0.666992 -37 1.16699 -55 1.5s-36.333 0.833008 -55 1.5
c-22.667 0.666992 -38.167 5 -46.5 13s-12.5 20.667 -12.5 38c0 13.333 5.16699 24.333 15.5 33s21.5 13 33.5 13c9.33301 0 18.5 -0.333008 27.5 -1s18.167 -1 27.5 -1c56.667 0 101.834 14.167 135.501 42.5s50.5 67.5 50.5 117.5c0 25.333 -6.33301 49.833 -19 73.5
s-29.334 41.167 -50 52.5l2 2c18 -0.680664 36.167 -1.84766 54.5 -3.50098c18.334 -1.66699 37.167 -3.16699 56.499 -4.5c-0.666992 3.33301 -1.16699 6.83301 -1.5 10.5s-0.5 7.16699 -0.5 10.5s0.166992 6.83301 0.5 10.5s0.833008 7.16699 1.5 10.5
c-16.667 -3.33301 -43.667 -5 -81 -5c-7.33301 0 -17 0.333008 -29 1s-25.667 1.66699 -41 3c-18 1.33301 -32.833 2.33301 -44.5 3s-23.834 1 -36.501 1c-26 0 -50.5 -3.33301 -73.5 -10s-43.333 -16.667 -61 -30s-31.5 -30.166 -41.5 -50.499s-15 -44.5 -15 -72.5z" />
    <glyph glyph-name="h" unicode="h" 
d="M84 464l-0.000976562 -180.997c0 -22.667 -0.166992 -47.334 -0.5 -74.001s-0.833008 -53 -1.5 -79s-1.5 -50.667 -2.5 -74s-2.16699 -42.666 -3.5 -57.999c15.333 1.33301 30.333 2 45 2s29.667 -0.666992 45 -2c-1.33301 14.667 -2.5 33.667 -3.5 57
s-1.83301 47.5 -2.5 72.5s-1.16699 49.833 -1.5 74.5s-0.5 46.334 -0.5 65.001c0 52 10.833 92.333 32.5 121s55.834 43 102.501 43c34 0 60.667 -12.833 80 -38.5s29 -63.5 29 -113.5v-61c0 -38.667 -0.833008 -76.334 -2.5 -113.001s-3.16699 -72.334 -4.5 -107.001
c13.333 1.33301 27 2 41 2c14.667 0 28.667 -0.666992 42 -2c-0.666992 9.33301 -1.16699 19.166 -1.5 29.499s-0.5 20.833 -0.5 31.5v65c0 34 0.666992 66.167 2 96.5s2 59.833 2 88.5c0 34.667 -4.83301 63.167 -14.5 85.5s-22.167 40 -37.5 53s-32.5 22.167 -51.5 27.5
s-37.833 8 -56.5 8c-36 0 -67 -7.83301 -93 -23.5s-48.333 -37.834 -67 -66.5h-2v76c0 22 0.166992 46 0.5 72s0.833008 51.833 1.5 77.5s1.5 50.167 2.5 73.5s2.16699 43.333 3.5 60c-18.667 -3.33301 -33.667 -5 -45 -5s-26.333 1.66699 -45 5
c1.33301 -16.667 2.5 -36.834 3.5 -60.501s1.83301 -48.5 2.5 -74.5s1.16699 -52.333 1.5 -79s0.5 -51.334 0.5 -74z" />
    <glyph glyph-name="i" unicode="i" horiz-adv-x="278" 
d="M88 647c0 -14 5 -26 15 -36s22 -15 36 -15s26 5 36 15s15 22 15 36s-5 26 -15 36s-22 15 -36 15s-26 -5 -36 -15s-15 -22 -15 -36zM102 286v-104c0 -30 -0.5 -61.5 -1.5 -94.5s-3.16699 -62.833 -6.5 -89.5c15.333 1.33301 30.333 2 45 2s29.667 -0.666992 45 -2
c-3.33301 26.667 -5.5 56.5 -6.5 89.5s-1.5 64.5 -1.5 94.5v104c0 30 0.5 61.5 1.5 94.5s3.16699 63.833 6.5 92.5c-18.667 -3.33301 -33.667 -5 -45 -5s-26.333 1.66699 -45 5c3.33301 -28.667 5.5 -59.5 6.5 -92.5s1.5 -64.5 1.5 -94.5z" />
    <glyph glyph-name="j" unicode="j" horiz-adv-x="278" 
d="M88 647c0 -14 5 -26 15 -36s22 -15 36 -15s26 5 36 15s15 22 15 36s-5 26 -15 36s-22 15 -36 15s-26 -5 -36 -15s-15 -22 -15 -36zM102 246v-294.001c0 -22 -1 -44.167 -3 -66.5s-6.33301 -42.5 -13 -60.5s-15.834 -32.667 -27.501 -44s-27.167 -17 -46.5 -17
c-3.33301 0 -6.16602 0.166992 -8.49902 0.5s-3.83301 0.833008 -4.5 1.5l4 -34c32 1.33301 60.5 9 85.5 23s44.833 31.667 59.5 53c15.333 22.667 24.5 45.834 27.5 69.501s4.5 49.5 4.5 77.5c0 36.667 -0.666992 74 -2 112s-2 76.333 -2 115v104c0 30 0.5 61.5 1.5 94.5
s3.16699 63.833 6.5 92.5c-18.667 -3.33301 -33.667 -5 -45 -5s-26.333 1.66699 -45 5c2 -14 3.5 -30 4.5 -48s1.66699 -37 2 -57c0.333984 -20 0.666992 -40.333 1 -61s0.5 -41 0.5 -61z" />
    <glyph glyph-name="k" unicode="k" horiz-adv-x="500" 
d="M84 464l-0.00292969 -181.001c0 -22.667 -0.166992 -47.334 -0.5 -74.001s-0.833008 -53 -1.5 -79s-1.5 -50.667 -2.5 -74s-2.16699 -42.666 -3.5 -57.999c15.333 1.33301 30.333 2 45 2s29.667 -0.666992 45 -2c-3.33301 28.667 -5.5 57.167 -6.5 85.5
s-1.5 57.5 -1.5 87.5v60c0 8 3.33301 12 10 12c2.66699 0 5.33398 -1 8 -3c2.66699 -2 5 -4.33301 7 -7c12 -12.667 26.333 -28.667 43 -48s34.167 -40 52.5 -62s36.833 -44.167 55.5 -66.5s35.334 -41.833 50.001 -58.5c9.33301 1.33301 18.333 2 27 2h24h26.5
c9 0 19.167 -0.666992 30.5 -2c-42 44.667 -83.167 90 -123.5 136s-79.5 92 -117.5 138c34.667 34 71.167 67.5 109.5 100.5s78.5 66.5 120.5 100.5c-11.333 -1.33301 -20.666 -2.5 -27.999 -3.5s-14.666 -1.5 -21.999 -1.5c-12 0 -24.667 1.66699 -38 5
c-15.333 -18 -32.333 -37 -51 -57s-36.834 -38.833 -54.5 -56.5c-17.667 -17.667 -33.667 -33.167 -48 -46.5s-24.5 -22.333 -30.5 -27c-8 -6 -15.167 -11.333 -21.5 -16c-6.33398 -4.66699 -12.167 -7 -17.5 -7c-8 0 -12 6.33301 -12 19v182
c0 22.667 0.166992 47.334 0.5 74.001s0.833008 53 1.5 79s1.5 50.833 2.5 74.5c1 23.6699 2.16699 43.8369 3.5 60.501c-18.667 -3.33301 -33.667 -5 -45 -5s-26.333 1.66699 -45 5c1.33301 -16.667 2.5 -36.834 3.5 -60.501s1.83301 -48.5 2.5 -74.5
s1.16699 -52.333 1.5 -79s0.5 -51.334 0.5 -74z" />
    <glyph glyph-name="l" unicode="l" horiz-adv-x="278" 
d="M102 464v-181.001c0 -22.667 -0.166992 -47.334 -0.5 -74.001s-0.833008 -53 -1.5 -79s-1.5 -50.667 -2.5 -74s-2.16699 -42.666 -3.5 -57.999c15.333 1.33301 30.333 2 45 2s29.667 -0.666992 45 -2c-1.33301 15.333 -2.5 34.666 -3.5 57.999s-1.83301 48 -2.5 74
s-1.16699 52.333 -1.5 79s-0.5 51.334 -0.5 74.001v181c0 22.667 0.166992 47.334 0.5 74.001s0.833008 53 1.5 79s1.5 50.833 2.5 74.5c1 23.6699 2.16699 43.8369 3.5 60.501c-18.667 -3.33301 -33.667 -5 -45 -5s-26.333 1.66699 -45 5
c1.33301 -16.667 2.5 -36.834 3.5 -60.501s1.83301 -48.5 2.5 -74.5s1.16699 -52.333 1.5 -79s0.5 -51.334 0.5 -74z" />
    <glyph glyph-name="m" unicode="m" horiz-adv-x="833" 
d="M78 286l-0.000976562 -103.999c0 -30 -0.5 -61.5 -1.5 -94.5s-3.16699 -62.833 -6.5 -89.5c15.333 1.33301 30.333 2 45 2s29.667 -0.666992 45 -2c-3.33301 26.667 -5.5 56.5 -6.5 89.5s-1.5 64.5 -1.5 94.5v85c0 52 10.333 92.333 31 121s53 43 97 43
c16.667 0 32.834 -4.5 48.501 -13.5s27.167 -19.833 34.5 -32.5c4 -8 7.16699 -15.333 9.5 -22c2.33887 -6.66699 4.17188 -15.167 5.49902 -25.5c1.34473 -10.333 2.17773 -24.333 2.49902 -42c0.333008 -17.667 0.5 -42.167 0.5 -73.5c0 -36.667 -0.666992 -74 -2 -112
s-3.66602 -75.333 -6.99902 -112c15.333 1.33301 30 2 44 2s28.667 -0.666992 44 -2c-1.33301 28 -2.5 53.833 -3.5 77.5s-1.5 49.834 -1.5 78.501c0 47.333 0.333008 84.5 1 111.5s1.83398 48 3.50098 63s4 26.167 7 33.5c3 7.33496 7.16699 14.668 12.5 22
c9.33301 12.667 22.333 23.667 39 33s37 14 61 14c20 0 36.667 -3.16699 50 -9.5s24 -14.833 32 -25.5c8 -10.668 13.833 -23.335 17.5 -38c3.66699 -14.667 5.5 -30.334 5.5 -47c0 -90.667 -1.16699 -161.334 -3.5 -212.001s-4.5 -84.334 -6.5 -101.001
c7.33301 1.33301 14.666 2 21.999 2h22h21c7.33301 -0 14.666 -0.666992 21.999 -2c-1.35645 19.333 -2.18945 37.333 -2.5 54c-0.333008 16.667 -0.5 34 -0.5 52c0 29.333 0.333008 55.166 1 77.499c0.669922 22.333 1.33691 42.333 2.00098 60
c0.678711 17.667 1.3457 33.167 2.00098 46.5c0.666992 13.335 1 25.668 1 37c0 28 -3.83301 52 -11.5 72s-18.334 36.333 -32.001 49s-29.834 22 -48.501 28s-39 9 -61 9c-36 0 -67.833 -8.5 -95.5 -25.5s-49.5 -41.5 -65.5 -73.5h-2
c-3.33301 14 -9.66602 27.167 -18.999 39.5s-20.5 22.833 -33.5 31.5s-27.5 15.5 -43.5 20.5s-32.333 7.5 -49 7.5c-64 0 -113.667 -30 -149 -90h-2c0 26.667 1 53.334 3 80.001c-8.66699 -1.33301 -16.167 -2.5 -22.5 -3.5s-12.166 -1.5 -17.499 -1.5
c-11.333 0 -26.333 1.66699 -45 5c3.33301 -28.667 5.5 -59.5 6.5 -92.5s1.5 -64.5 1.5 -94.5z" />
    <glyph glyph-name="n" unicode="n" 
d="M402 279l-0.00195312 -60.998c0 -38.667 -0.833008 -76.334 -2.5 -113.001s-3.16699 -72.334 -4.5 -107.001c13.333 1.33301 27 2 41 2c14.667 -0 28.667 -0.666992 42 -2c-0.666992 9.33301 -1.16699 19.166 -1.5 29.499s-0.5 20.833 -0.5 31.5v65
c0 34 0.666992 66.167 2 96.5s2 59.833 2 88.5c0 34.667 -4.83301 63.167 -14.5 85.5s-22.167 40 -37.5 53s-32.5 22.167 -51.5 27.5s-37.833 8 -56.5 8c-36 0 -67 -7.83301 -93 -23.5s-48.333 -37.834 -67 -66.5h-2c0 26.667 1 53.334 3 80.001
c-8.66699 -1.33301 -16.167 -2.5 -22.5 -3.5s-12.166 -1.5 -17.499 -1.5c-11.333 0 -26.333 1.66699 -45 5c3.33301 -28.667 5.5 -59.5 6.5 -92.5s1.5 -64.5 1.5 -94.5v-104c0 -30 -0.5 -61.5 -1.5 -94.5s-3.16699 -62.833 -6.5 -89.5c15.333 1.33301 30.333 2 45 2
s29.667 -0.666992 45 -2c-3.33301 26.667 -5.5 56.5 -6.5 89.5s-1.5 64.5 -1.5 94.5v85c0 52 10.833 92.333 32.5 121s55.834 43 102.501 43c34 0 60.667 -12.833 80 -38.5s29 -63.5 29 -113.5z" />
    <glyph glyph-name="o" unicode="o" 
d="M123 234c0 28 2.5 55 7.5 81s13.5 49.167 25.5 69.5s28 36.5 48 48.5s44.667 18 74 18s54 -6 74 -18s36 -28.167 48 -48.5s20.5 -43.5 25.5 -69.5s7.5 -53 7.5 -81s-2.5 -55 -7.5 -81s-13.5 -49.167 -25.5 -69.5s-28 -36.5 -48 -48.5s-44.667 -18 -74 -18s-54 6 -74 18
s-36 28.167 -48 48.5s-20.5 43.5 -25.5 69.5s-7.5 53 -7.5 81zM35 234c0 -45.333 7.16699 -83.834 21.5 -115.501s33.166 -57.334 56.499 -77.001s49.5 -33.5 78.5 -41.5s57.833 -12 86.5 -12c29.333 0 58.333 4 87 12s54.667 21.833 78 41.5
c23.334 19.667 42.167 45.334 56.499 77.001c14.333 31.667 21.5 70.167 21.5 115.5s-7.16699 83.833 -21.5 115.5s-33.166 57.334 -56.499 77.001s-49.333 34 -78 43s-57.667 13.5 -87 13.5c-28.667 0 -57.5 -4.5 -86.5 -13.5s-55.167 -23.333 -78.5 -43
s-42.166 -45.334 -56.499 -77c-14.333 -31.667 -21.5 -70.167 -21.5 -115.5z" />
    <glyph glyph-name="p" unicode="p" 
d="M65 182l0.00292969 -162c0 -21.333 -0.166992 -45.166 -0.5 -71.499s-0.833008 -52.5 -1.5 -78.5s-1.5 -50.833 -2.5 -74.5s-2.16699 -43.834 -3.5 -60.501c18.667 3.33301 33.667 5 45 5s26.333 -1.66699 45 -5c-1.33301 16.667 -2.5 36.834 -3.5 60.501
s-1.83301 48.5 -2.5 74.5s-1.16699 52.167 -1.5 78.5s-0.5 50.166 -0.5 71.499v63h2c31.333 -63.333 83.666 -95 156.999 -95c26 0 52 4.83301 78 14.5s49.167 24.834 69.5 45.501s36.833 46.667 49.5 78s19 68.333 19 111s-5.83301 79.5 -17.5 110.5s-27 56.5 -46 76.5
s-40.833 34.833 -65.5 44.5s-49.667 14.5 -75 14.5c-24.667 0 -46.667 -3.66699 -66 -11s-35.833 -16.5 -49.5 -27.5s-24.834 -22.667 -33.501 -35s-15.334 -23.833 -20.001 -34.5h-2c0 16 0.666992 32 2 48s3.33301 32.667 6 50c-18.667 -3.33301 -33.667 -5 -45 -5
s-26.333 1.66699 -45 5c1.33301 -17.333 2.5 -38 3.5 -62s1.83301 -49.167 2.5 -75.5c0.667969 -26.333 1.16797 -52.833 1.5 -79.5c0.333008 -26.667 0.5 -51.334 0.5 -74.001zM426.003 238c0 -30 -2.83301 -58.168 -8.5 -84.501c-5.66797 -26.333 -14.335 -49.333 -26 -69
c-11.668 -19.667 -26.335 -35 -44 -46c-17.667 -11 -38.5 -16.5 -62.5 -16.5c-97.333 0 -146 69.333 -146 208c0 28.667 2.66699 55.834 8 81.501s14 48 26 67s27.5 34.167 46.5 45.5s41.833 17 68.5 17c16 0 32.333 -3 49 -9s31.5 -16.833 44.5 -32.5
s23.667 -36.5 32 -62.5s12.5 -59 12.5 -99z" />
    <glyph glyph-name="q" unicode="q" 
d="M491 20l0.000976562 161.999c0 22.667 0.166992 47.334 0.5 74c0.333008 26.667 0.833008 53.167 1.5 79.5s1.5 51.5 2.5 75.5s2.16699 44.667 3.5 62c-18.667 -3.33301 -33.667 -5 -45 -5s-26.333 1.66699 -45 5c2.66699 -17.333 4.66699 -34 6 -50s2 -32 2 -48h-2
c-11.333 30.667 -30 56.334 -56 77.001s-61.667 31 -107 31c-24.667 0 -49.5 -5 -74.5 -15s-47.5 -25.167 -67.5 -45.5s-36.333 -46.333 -49 -78s-19 -69.5 -19 -113.5c0 -46 6.33301 -84.667 19 -116s29 -56.5 49 -75.5s42.5 -32.333 67.5 -40s49.833 -11.5 74.5 -11.5
c32.667 0 63.167 8.33301 91.5 25s52.166 44 71.499 82h2v-75c0 -21.333 -0.166992 -45.166 -0.5 -71.499s-0.833008 -52.5 -1.5 -78.5s-1.5 -50.833 -2.5 -74.5s-2.16699 -43.834 -3.5 -60.501c18.667 3.33301 33.667 5 45 5s26.333 -1.66699 45 -5
c-1.33301 16.667 -2.5 36.834 -3.5 60.501s-1.83301 48.5 -2.5 74.5s-1.16699 52.167 -1.5 78.5s-0.5 50.166 -0.5 71.499zM417.001 243.999c0 -27.333 -3.16699 -54.333 -9.5 -81s-16 -50.5 -29 -71.5s-29 -37.833 -48 -50.5s-41.167 -19 -66.5 -19
c-22 0 -41.5 5.16699 -58.5 15.5s-31 24.5 -42 42.5s-19.333 39.167 -25 63.5s-8.5 50.833 -8.5 79.5c0 44 4.33301 80 13 108s20 50.167 34 66.5c14 16.335 29.5 27.668 46.5 34c17 6.33301 33.5 9.5 49.5 9.5c26 0 48 -5.5 66 -16.5s32.833 -25.667 44.5 -44
s20.167 -39.333 25.5 -63s8 -48.167 8 -73.5z" />
    <glyph glyph-name="r" unicode="r" horiz-adv-x="333" 
d="M305 391l7.00098 4.99902c0 13.334 0.333008 28.167 1 44.499c0.666992 16.333 2.66699 28.5 6 36.5c-6.66699 2.66699 -12.167 4.33398 -16.5 5.00098s-9.5 1 -15.5 1c-48.667 0 -92.667 -36 -132 -108l-2 1c0 12.667 0.166992 26 0.5 40s1.83301 33 4.5 57
c-7.33301 -1.33301 -14.333 -2.5 -21 -3.5s-13 -1.5 -19 -1.5c-7.33301 0 -14.333 0.5 -21 1.5s-13.667 2.16699 -21 3.5c2 -44 3.16699 -83 3.5 -117s0.5 -64 0.5 -90v-32c0 -56.667 -0.166992 -104.5 -0.5 -143.5s-1.5 -69.833 -3.5 -92.5c13.333 1.33301 27.333 2 42 2
c13.333 0 26.666 -0.666992 39.999 -2c-2 14.667 -3.16699 33.834 -3.5 57.501s-0.5 57.834 -0.5 102.501v110c0 19.333 2.33301 37.5 7 54.5s11.334 31.667 20 44c8.66699 12.333 19.334 22.166 32 29.499c12.667 7.33301 27 11 43 11c10 0 19.833 -1.66699 29.5 -5
s16.167 -7 19.5 -11z" />
    <glyph glyph-name="s" unicode="s" horiz-adv-x="389" 
d="M71 91l-11.998 -0.00488281c0 -10 -2.16699 -22.5 -6.5 -37.5s-8.5 -26.833 -12.5 -35.5c14 -8 31.333 -15 52 -21s46.334 -9 77.001 -9c28 0 53 4.16699 75 12.5s40.833 20 56.5 35s27.667 31.833 36 50.5s12.5 37.667 12.5 57c0 28 -5.83301 50 -17.5 66
s-26.167 28.5 -43.5 37.5s-36.333 16 -57 21s-39.667 10.833 -57 17.5s-31.833 15.834 -43.5 27.501s-17.5 28.167 -17.5 49.5c0 14.667 2.66699 27.334 8 38.001s12 19.334 20 26.001s17 11.667 27 15s20 5 30 5c22.667 0 41.667 -6.33301 57 -19
c15.334 -12.667 25.667 -27 30.999 -43h12c1.33301 8 4.33301 19.333 9 34s9.66699 27 15 37c-15.333 5.33301 -31.5 11.333 -48.5 18s-37.833 10 -62.5 10c-26.667 0 -50.334 -3.83301 -71.001 -11.5s-38 -18.167 -52 -31.5s-24.667 -29.166 -32 -47.499
s-11 -38.5 -11 -60.5c0 -28 5.83301 -50 17.5 -66s26.167 -28.833 43.5 -38.5s36.333 -17.167 57 -22.5s39.667 -11.5 57 -18.5s31.833 -16 43.5 -27s17.5 -26.833 17.5 -47.5c0 -14.667 -2.66699 -27.667 -8 -39s-12.5 -20.666 -21.5 -27.999s-19.333 -13 -31 -17
s-23.834 -6 -36.501 -6c-14 0 -27.167 2.33301 -39.5 7s-23.333 10.5 -33 17.5s-18 14.5 -25 22.5s-12.167 15.333 -15.5 22z" />
    <glyph glyph-name="t" unicode="t" horiz-adv-x="278" 
d="M162 607l-83 -35.0049c1.33496 -21.333 2.16797 -42 2.5 -62c0.333008 -20 0.833008 -36.667 1.5 -50c-14 0 -36 1 -66 3c0.666992 -3.33301 1.16699 -6.66602 1.5 -9.99902s0.5 -6.66602 0.5 -9.99902c0 -4 -0.166992 -7.83301 -0.5 -11.5s-0.833008 -7.5 -1.5 -11.5
c6.66699 0.666992 13 1.16699 19 1.5s11.667 0.5 17 0.5h32c0 -37.333 -0.333008 -71.166 -1 -101.499s-1.5 -58 -2.5 -83s-1.83301 -48 -2.5 -69s-1 -40.5 -1 -58.5c0 -40 10 -70.333 30 -91s51 -31 93 -31c12.667 0 25.834 1.5 39.5 4.5c13.667 3 26.167 5.5 37.5 7.5v24
c-6.66699 -2 -14.5 -3.66699 -23.5 -5s-16.167 -2 -21.5 -2c-20 0 -35.333 4.33301 -46 13s-18.667 20.167 -24 34.5s-8.5 30.5 -9.5 48.5s-1.5 36.333 -1.5 55c0 22 0.166992 47 0.5 75s0.833008 54.833 1.5 80.5s1.5 47.834 2.5 66.501s1.83301 29.334 2.5 32.001h49
c10.667 0 20.667 -0.166992 30 -0.5s18.333 -0.833008 27 -1.5c-0.666992 2 -1 5.33301 -1 10v11v10c0 5.33301 0.333008 9 1 11c-23.333 -1.33301 -45 -2.16602 -65 -2.49902s-33.667 -0.5 -41 -0.5c1.33301 24.667 2.5 49.167 3.5 73.5s2.5 49.166 4.5 74.499h-5z" />
    <glyph glyph-name="u" unicode="u" 
d="M76 149c0 -52 14.8359 -91.834 44.5029 -119.501s70.5 -41.5 122.5 -41.5c32 0 61.667 7.5 89 22.5c27.334 15 49.667 38.5 67 70.5h2v-43c0 -7.33301 -0.166992 -14.333 -0.5 -21s-0.833008 -13 -1.5 -19c13.333 1.33301 26.333 2 39 2s25.667 -0.666992 39 -2
c-1.33301 26.667 -2.33301 54.334 -3 83.001s-1 58 -1 88c0 54 0.333008 105.167 1 153.5s2.66699 98.5 6 150.5c-6.66992 -1.33301 -13.3369 -2.5 -20 -3.5c-6.66699 -1 -13.667 -1.5 -21 -1.5s-14.333 0.5 -21 1.5s-13.667 2.16699 -21 3.5
c0.666992 -12 1.16699 -24.667 1.5 -38s0.5 -27.333 0.5 -42v-84c0 -39.333 -0.166992 -70.333 -0.5 -93s-1.33301 -40.667 -3 -54c-1.67285 -13.333 -3.83984 -24 -6.50098 -32c-2.66992 -8 -6.33691 -17.667 -11.001 -29c-8.66699 -18 -22.334 -33.167 -41 -45.5
c-18.667 -12.333 -42 -18.5 -70 -18.5c-19.334 0 -36.167 3.5 -50.5 10.5c-14.334 7 -26.167 15.833 -35.5 26.5c-8.66699 9.33301 -16 23.166 -22 41.499s-9 44.833 -9 79.5c0 50 0.833008 98.833 2.5 146.5s4.16699 91.5 7.5 131.5
c-16.667 -3.33301 -30.334 -5 -41.001 -5c-11.333 0 -25.333 1.66699 -42 5c0.666992 -28 1.16699 -55.667 1.5 -83s0.5 -52.666 0.5 -75.999c0 -24.667 -0.5 -49.5 -1.5 -74.5s-1.5 -55.167 -1.5 -90.5z" />
    <glyph glyph-name="v" unicode="v" horiz-adv-x="500" 
d="M215 -2c10.667 1.33301 21.3311 1.99902 31.9971 1.99902c10.667 0 21 -0.666992 31 -2c28.667 78.667 60.334 157.334 95.001 236.001s70 158.334 106 239.001c-12 -3.33301 -22.333 -5 -31 -5s-19 1.66699 -31 5c-12 -32.667 -24.167 -66.167 -36.5 -100.5
s-25 -68.5 -38 -102.5s-26 -66.833 -39 -98.5s-26.167 -61.167 -39.5 -88.5c-30 66.667 -57.167 131.834 -81.5 195.501s-46.833 128.5 -67.5 194.5c-7.33301 -1.33301 -14.666 -2.5 -21.999 -3.5s-14.666 -1.5 -21.999 -1.5c-8.66699 0 -17 0.5 -25 1.5
s-16.333 2.16699 -25 3.5c36.667 -80.667 70.5 -160.334 101.5 -239.001s61.833 -157.334 92.5 -236.001z" />
    <glyph glyph-name="w" unicode="w" horiz-adv-x="778" 
d="M193 -2c8 1.33301 17.333 1.99902 28 1.99902s20 -0.666992 28 -2c9.33301 28 20 59.5 32 94.5s24 69.5 36 103.5s23.667 65.833 35 95.5s21 54.5 29 74.5c26.667 -66 50.334 -129 71.001 -189s39.667 -119.667 57 -179c3.33301 1.33301 7.33301 2 12 2h14
c10 0 18.667 -0.666992 26 -2c28.667 78.667 59.5 157.334 92.5 236.001s68.5 158.334 106.5 239.001c-11.333 -3.33301 -21.333 -5 -30 -5c-8 0 -18.667 1.66699 -32 5c-11.333 -31.333 -23.5 -65 -36.5 -101s-25.833 -71.167 -38.5 -105.5s-24.834 -67 -36.501 -98
s-21.834 -57.167 -30.501 -78.5c-24 66.667 -47 131.167 -69 193.5s-41.333 125.5 -58 189.5l-14 -3.5c-4 -1 -8.66699 -1.5 -14 -1.5c-8 0 -18 1.66699 -30 5c-9.33301 -31.333 -20 -65.333 -32 -102s-24 -72.667 -36 -108s-23.667 -68.333 -35 -99
s-21 -55.334 -29 -74.001c-26 66.667 -49.5 131.5 -70.5 194.5s-40.167 125.833 -57.5 188.5c-8.66699 -1.33301 -16.667 -2.5 -24 -3.5s-14.666 -1.5 -21.999 -1.5c-8 0 -15.833 0.5 -23.5 1.5s-15.5 2.16699 -23.5 3.5c16.667 -40 33.5 -82.5 50.5 -127.5
s33.333 -89 49 -132s30.167 -83.5 43.5 -121.5s24 -69.333 32 -94z" />
    <glyph glyph-name="x" unicode="x" horiz-adv-x="500" 
d="M259 286c-23.333 32 -45.5049 63.165 -66.5049 93.498s-41.167 61.5 -60.5 93.5c-9.33301 -1.33301 -18.166 -2.5 -26.499 -3.5s-17.166 -1.5 -26.499 -1.5s-18.166 0.5 -26.499 1.5s-17.166 2.16699 -26.499 3.5c32 -42 63.167 -83 93.5 -123s60.5 -80.333 90.5 -121
c-30 -40 -60.333 -79.167 -91 -117.5s-62 -76.166 -94 -113.499c10.667 1.33301 22 2 34 2c11.333 0 22.333 -0.666992 33 -2c22.667 32.667 45.834 65.834 69.501 99.501s47.834 67.5 72.5 101.5c24 -34 47.667 -67.833 71 -101.5s46 -66.834 68 -99.501
c9.33301 1.33301 18.333 2 27 2h24h24c8.66699 0 17.667 -0.666992 27 -2c-34 42.667 -67.167 85.5 -99.5 128.5s-63.5 86.5 -93.5 130.5c30 36 60.167 71.833 90.5 107.5s61.5 71.834 93.5 108.501c-14.667 -3.33301 -26 -5 -34 -5c-6 0 -11.833 0.5 -17.5 1.5
s-11.5 2.16699 -17.5 3.5c-22 -32 -44.5 -63.167 -67.5 -93.5s-46.5 -61.5 -70.5 -93.5z" />
    <glyph glyph-name="y" unicode="y" horiz-adv-x="500" 
d="M222 -3c-36.667 -87.333 -81.3311 -174.666 -133.998 -261.999c13.333 3.33301 24.666 5 33.999 5s20.666 -1.66699 33.999 -5c5.33301 16.667 13.5 39.167 24.5 67.5s23.833 60 38.5 95s30.667 72 48 111s34.833 78.333 52.5 118s35 78.334 52 116.001s32.667 72 47 103
c14.334 31 26.667 57.667 36.999 80c10.333 22.334 17.833 38.167 22.5 47.499c-13.333 -3.33301 -24.333 -5 -33 -5s-19.667 1.66699 -33 5c-20 -64 -42.833 -129.333 -68.5 -196s-52.5 -129.334 -80.5 -188.001c-28 66.667 -54.667 131.334 -80 194.001
s-48.333 126 -69 190c-8.66699 -1.33301 -16.667 -2.5 -24 -3.5s-14.666 -1.5 -21.999 -1.5s-14.666 0.5 -21.999 1.5s-15.333 2.16699 -24 3.5c4.66699 -10.667 11.667 -27 21 -49s20.166 -47.5 32.499 -76.5s25.5 -60 39.5 -93s27.667 -65.333 41 -97
s25.833 -61.834 37.5 -90.501s21.167 -52 28.5 -70z" />
    <glyph glyph-name="z" unicode="z" horiz-adv-x="500" 
d="M34 9l-0.00390625 -11.0039c30 1.33301 59.5 2 88.5 2h88.5h125c41.333 0 83 -0.666992 125 -2c-2.66699 6 -4 14.333 -4 25s1.33301 20 4 28c-35.333 -3.33301 -66.333 -5.83301 -93 -7.5s-51.667 -3 -75 -4s-46.5 -1.66699 -69.5 -2s-48.167 -0.5 -75.5 -0.5
c12.667 17.333 31.334 42.5 56.001 75.5s52 69.333 82 109s60.833 80.334 92.5 122.001s60.834 79.834 87.501 114.501v15c-10.668 -0.667969 -20.835 -1.33496 -30.5 -2.00098c-9.66699 -0.669922 -19.5 -1.33691 -29.5 -2c-10 -0.666992 -21 -1 -33 -1h-38
c-62.667 0 -114.667 0.333008 -156 1s-72.666 2 -93.999 4c2 -10.668 3 -20.335 3 -29c0 -9.33301 -1 -18.666 -3 -27.999c18.667 2 42.5 3.83301 71.5 5.5s57.5 3.33398 85.5 5.00098s52.833 2.83398 74.5 3.50098s34.834 1 39.501 1c-18 -24 -39.5 -53 -64.5 -87
s-51.833 -70 -80.5 -108s-58.167 -76.667 -88.5 -116s-59.833 -76.333 -88.5 -111z" />
    <glyph glyph-name="braceleft" unicode="{" horiz-adv-x="333" 
d="M57 302v-42c24 0 42.167 -8.66699 54.5 -26s18.5 -40 18.5 -68v-167c0 -45.333 7.66699 -76.166 23 -92.499s37 -24.5 65 -24.5h58v37h-32c-17.333 0 -30.333 5 -39 15s-13 31.667 -13 65v161c0 34 -7.66699 60 -23 78s-37 32 -65 42v2c28 10 49.667 24 65 42
s23 44 23 78v164c0 33.333 4.33301 55 13 65s21.667 15 39 15h32v37h-58c-28 0 -49.667 -8.33301 -65 -25s-23 -47.334 -23 -92.001v-170c0 -28 -6.16699 -50.667 -18.5 -68s-30.5 -26 -54.5 -26z" />
    <glyph glyph-name="bar" unicode="|" horiz-adv-x="333" 
d="M141 750v-998h52v998h-52z" />
    <glyph glyph-name="braceright" unicode="}" horiz-adv-x="333" 
d="M276 260v42.001c-24 0 -42.167 8.66699 -54.5 26s-18.5 40 -18.5 68v170c0 44.668 -7.66699 75.335 -23 92c-15.333 16.667 -37 25 -65 25h-58v-37h32c17.333 0 30.333 -5 39 -15s13 -31.667 13 -65v-164c0 -34 7.66699 -60 23 -78s37 -32 65 -42v-2
c-28 -10 -49.667 -24 -65 -42s-23 -44 -23 -78v-161c0 -33.333 -4.33301 -55 -13 -65s-21.667 -15 -39 -15h-32v-37h58c28 0 49.667 8.16699 65 24.5s23 47.166 23 92.499v167c0 28 6.16699 50.667 18.5 68s30.5 26 54.5 26z" />
    <glyph glyph-name="asciitilde" unicode="~" horiz-adv-x="606" 
d="M75 230l29.001 -43.999c3.33301 8 7.5 16.333 12.5 25s11.5 16.834 19.5 24.5c8 7.66797 17.5 13.835 28.5 18.501c11 4.66699 23.833 7 38.5 7c13.333 0 27.666 -2.83301 42.999 -8.5c15.334 -5.66699 31.667 -13.167 49 -22.5c21.333 -11.333 41 -20.333 59 -27
s36.333 -10 55 -10c14.667 0 28 2.5 40 7.5s23 11.667 33 20s19 17.5 27 27.5s15.333 20 22 30l-29 42c-4 -8 -9.33301 -16.333 -16 -25c-6.66699 -8.66797 -14 -16.835 -22 -24.501c-8 -7.66797 -16.667 -13.835 -26 -18.501c-9.33301 -4.66699 -18.666 -7 -27.999 -7
c-21.333 0 -40.833 4.66699 -58.5 14s-37.834 19 -60.5 29c-14 6.66699 -28.167 12.5 -42.5 17.5s-31.5 7.5 -51.5 7.5c-30.667 0 -54.834 -7.5 -72.501 -22.5s-34.167 -35.167 -49.5 -60.5z" />
    <glyph glyph-name="nonbreakingspace" unicode="&#xa0;" horiz-adv-x="278" 
 />
    <glyph glyph-name="exclamdown" unicode="&#xa1;" horiz-adv-x="333" 
d="M109 426c0 -15.333 5.66797 -28.667 17.001 -40s24.666 -17 39.999 -17s28.666 5.66699 39.999 17c11.333 11.335 17 24.668 17 40c0 15.333 -5.66699 28.666 -17 39.999c-11.334 11.333 -24.667 17 -40 17s-28.666 -5.66699 -39.999 -17s-17 -24.666 -17 -39.999z
M176.001 299.999l-20 0.00195312c-2.66699 -32 -5.5 -65.333 -8.5 -100s-6 -69.167 -9 -103.5s-5.66699 -66.833 -8 -97.5c-2.33398 -30.667 -4.50098 -58.334 -6.5 -83.001c-2 -24.667 -3.66699 -45.167 -5 -61.5s-2 -26.166 -2 -29.5c0 -18 5 -30.667 15 -38
s21.333 -11 34 -11s24 3.66699 34 11s15 20 15 38c0 3.33301 -0.666992 13.166 -2 29.499s-3 36.833 -5 61.5s-4.16699 52.5 -6.5 83.5s-5 63.5 -8 97.5s-6 68.5 -9 103.5s-5.83301 68.167 -8.5 99.5z" />
    <glyph glyph-name="cent" unicode="&#xa2;" 
d="M79 234c0 -42 6.16602 -77.832 18.499 -107.499s28.666 -54.334 48.999 -74.001s43.5 -34.334 69.5 -44.001s52.333 -15.834 79 -18.501v-7c0 -15.333 -0.5 -32.833 -1.5 -52.5s-2.16699 -36.5 -3.5 -50.5c11.333 3.33301 20 5 26 5s14.667 -1.66699 26 -5
c-1.33301 15.333 -2.5 32.333 -3.5 51s-1.5 35.667 -1.5 51v8c28.667 1.33301 56.5 7.16602 83.5 17.499s49.833 23.166 68.5 38.499c0.666992 16.667 2.66699 33 6 49l-5 3c-8.66895 -10 -18.8359 -19.333 -30.501 -28c-11.667 -8.66699 -24.167 -16.167 -37.5 -22.5
s-27 -11.333 -41 -15s-27.667 -5.5 -41 -5.5h-3v424c16 0 30.833 -2.5 44.5 -7.5s26 -11.333 37 -19s20.333 -16 28 -25s13.834 -17.833 18.501 -26.5h8c2.66699 12 5.83398 23.5 9.50098 34.5s7.83398 21.5 12.501 31.5c-12.667 11.333 -33.167 21.333 -61.5 30
s-60.5 13.334 -96.5 14.001v6c0 14 0.333008 29.5 1 46.5s2 33.167 4 48.5c-11.333 -3.33301 -20 -5 -26 -5s-14.667 1.66699 -26 5c2 -15.333 3.33301 -31.833 4 -49.5s1 -33.167 1 -46.5v-8c-28.667 -3.33301 -56 -10.666 -82 -21.999s-49 -27.166 -69 -47.499
s-35.833 -45.166 -47.5 -74.499s-17.5 -63.333 -17.5 -102zM294.999 447.001v-415c-85.333 17.333 -128 85 -128 203c0 54 10 100.167 30 138.5s52.667 62.833 98 73.5z" />
    <glyph glyph-name="sterling" unicode="&#xa3;" 
d="M59 59h-14.002c0.666992 -5.33301 1.16699 -10.666 1.5 -15.999s0.5 -10.666 0.5 -15.999c0 -6 -0.166992 -11.667 -0.5 -17s-0.833008 -9.33301 -1.5 -12c38 1.33301 76 2 114 2h114h117.5c38.333 0 77.5 -0.666992 117.5 -2c-2 8.66699 -3 20 -3 34c0 12.667 1 26 3 40
c-50 -2 -104.333 -4.33301 -163 -7s-116.334 -4 -173.001 -4v2c26 20.667 48.833 50.167 68.5 88.5s29.5 82.833 29.5 133.5c0 8 -0.166992 15.833 -0.5 23.5s-0.833008 15.167 -1.5 22.5c26 0 51.167 -0.166992 75.5 -0.5c24.334 -0.333008 49.167 -0.833008 74.5 -1.5
c-0.666992 4 -1.16699 7.83301 -1.5 11.5s-0.5 7.5 -0.5 11.5c0 3.33301 0.166992 6.83301 0.5 10.5s0.833008 7.16699 1.5 10.5c-26 -1.33301 -50.167 -2.5 -72.5 -3.5s-49.166 -1.5 -80.499 -1.5c-1.33301 18 -2.66602 37.5 -3.99902 58.5s-2 45.5 -2 73.5
c0 19.333 2.83301 37.166 8.5 53.499s13.834 30.5 24.501 42.5s23.334 21.5 38.001 28.5s31 10.5 49 10.5c20.667 0 38.834 -5.66699 54.501 -17s26.5 -28 32.5 -50l4 -3c6.66699 11.333 13.167 21.333 19.5 30s12.5 16.667 18.5 24c-12 18 -30.333 31.333 -55 40
s-49.334 13 -74 13c-22 0 -45 -3.66699 -69 -11s-45.833 -20 -65.5 -38s-35.834 -42.167 -48.501 -72.5c-12.667 -30.334 -19 -68.501 -19 -114.501c0 -10.667 0.5 -21.667 1.5 -33s2.16699 -23 3.5 -35c-19.333 0 -37 0.333008 -53 1s-29 2 -39 4
c1.33301 -4 2 -7.66699 2 -11v-10v-12c0 -2 -0.666992 -5.66699 -2 -11c16 0 32 0.166992 48 0.5s32.333 0.833008 49 1.5c2 -16 4 -33 6 -51s3 -36 3 -54c0 -25.333 -1.83301 -48.333 -5.5 -69s-10.5 -38.167 -20.5 -52.5s-23.833 -25.5 -41.5 -33.5
s-40.834 -12 -69.501 -12z" />
    <glyph glyph-name="currency" unicode="&#xa4;" 
d="M488 576l-55.002 -55.001c-21.333 17.333 -45 30.833 -71 40.5s-54 14.5 -84 14.5s-58.167 -5 -84.5 -15s-50.166 -23.667 -71.499 -41l-56 56l-36 -36l55 -57c-17.333 -20.667 -30.833 -44.167 -40.5 -70.5s-14.5 -54.5 -14.5 -84.5c0 -58 18 -109 54 -153l-54 -55
l36 -38l56 55c20.667 -18 44.334 -32 71.001 -42s55 -15 85 -15s58 4.83301 84 14.5s49.667 23.5 71 41.5l55 -54l36 38l-53 53c17.333 21.333 30.833 45 40.5 71s14.5 54 14.5 84s-5 58.333 -15 85s-24 50.334 -42 71.001l55 56zM473.998 327.999
c0 -28 -5.00098 -54.167 -15.001 -78.5s-23.833 -45.5 -41.5 -63.5s-38.334 -32.333 -62 -43c-23.667 -10.667 -49.5 -16 -77.5 -16s-53.833 5.33301 -77.5 16s-44.334 25 -62.001 43s-31.5 39.167 -41.5 63.5s-15 50.5 -15 78.5s5 54.167 15 78.5s23.833 45.5 41.5 63.5
s38.334 32.333 62.001 43s49.5 16 77.5 16s53.833 -5.33301 77.5 -16s44.334 -25 62.001 -43s31.5 -39.167 41.5 -63.5s15 -50.5 15 -78.5z" />
    <glyph glyph-name="yen" unicode="&#xa5;" 
d="M236 331l-0.00488281 -87h-86h-42c-14 0 -28.333 0.333008 -43 1c0.666992 -3.33301 1.16699 -6.83301 1.5 -10.5s0.5 -7.16699 0.5 -10.5s-0.166992 -6.83301 -0.5 -10.5s-0.833008 -7.16699 -1.5 -10.5c28.667 1.33301 57.167 2.33301 85.5 3s56.833 1 85.5 1
c0 -36 -0.5 -71.167 -1.5 -105.5s-2.83301 -68.833 -5.5 -103.5c15.333 1.33301 30.666 2 45.999 2c15.334 -0 30.667 -0.666992 46 -2c-2.66699 30.667 -4.5 63.667 -5.5 99s-1.5 72 -1.5 110c30 0 59 -0.333008 87 -1s57 -1.66699 87 -3
c-0.666992 3.33301 -1.16699 6.83301 -1.5 10.5s-0.5 7.16699 -0.5 10.5s0.166992 6.83301 0.5 10.5s0.833008 7.16699 1.5 10.5c-14.668 -0.666992 -29.335 -1 -44.001 -1h-43h-87v87c30 0 59 -0.333008 87 -1c28 -0.671875 57 -1.33887 87 -2.00098
c-0.666992 3.33301 -1.16699 6.83301 -1.5 10.5s-0.5 7.16699 -0.5 10.5s0.166992 6.83301 0.5 10.5s0.833008 7.16699 1.5 10.5c-28 -0.666992 -55.167 -1.16699 -81.5 -1.5s-53.5 -0.5 -81.5 -0.5c40 60 78.833 117.833 116.5 173.5s71.5 103.5 101.5 143.5
c-13.3369 -3.33301 -24.6699 -5 -33.999 -5c-9.33301 0 -20.666 1.66699 -33.999 5c-25.333 -46.667 -53.166 -94.667 -83.499 -144s-61.5 -99 -93.5 -149c-14.667 24 -30.834 50.667 -48.5 80c-17.667 29.333 -34.5 57.833 -50.5 85.5
c-16 27.6689 -30.167 52.8359 -42.5 75.5c-12.333 22.667 -20.833 40 -25.5 52c-9.33301 -1.33301 -18.166 -2.5 -26.499 -3.5s-17.166 -1.5 -26.499 -1.5s-18.166 0.5 -26.499 1.5s-17.166 2.16699 -26.499 3.5c34.667 -54 68.5 -107.167 101.5 -159.5
s66.5 -104.833 100.5 -157.5c-28 0 -55 0.166992 -81 0.5s-53 0.833008 -81 1.5c0.666992 -3.33301 1.16699 -6.83301 1.5 -10.5s0.5 -7.16699 0.5 -10.5s-0.166992 -6.83301 -0.5 -10.5s-0.833008 -7.16699 -1.5 -10.5c28.667 0.666992 57.167 1.33398 85.5 2.00098
s56.833 1 85.5 1z" />
    <glyph glyph-name="brokenbar" unicode="&#xa6;" horiz-adv-x="333" 
d="M141 675v-350h52v350h-52zM141 175v-348h52v348h-52z" />
    <glyph glyph-name="section" unicode="&#xa7;" horiz-adv-x="500" 
d="M394 241c0 -18 -2.83398 -32.6699 -8.50098 -44.0029c-5.66699 -11.334 -11.834 -21.667 -18.5 -31c-10 6.66699 -26.333 15.334 -49 26c-22.667 10.667 -57.667 26.334 -105 47c-38 16.667 -65.333 32.834 -82 48.501s-25 36.167 -25 61.5c0 16 4.16699 30.667 12.5 44
c8.33301 13.335 16.833 23.668 25.5 31c4 -3.33301 8.5 -6.66602 13.5 -9.99902s13 -8 24 -14s26.333 -13.667 46 -23s45.834 -21.333 78.501 -36c16.667 -7.33301 30.667 -14.333 42 -21s20.333 -13.667 27 -21s11.5 -15.666 14.5 -24.999s4.5 -20.333 4.5 -33z
M370.999 577.997l11.998 0.00292969c1.33301 10 4.83301 20.833 10.5 32.5s11.834 20.5 18.501 26.5c-13.333 15.333 -30.666 29.333 -51.999 42s-48.333 19 -81 19c-29.333 0 -55.166 -4.66699 -77.499 -14c-22.333 -9.33887 -41 -21.6719 -56 -37
c-15 -15.333 -26.167 -32.833 -33.5 -52.5s-11 -39.834 -11 -60.501c0 -14 0.666992 -25.5 2 -34.5c1.33398 -9 3.16699 -16.833 5.5 -23.5c2.33301 -6.66992 5.16602 -12.8369 8.49902 -18.5c3.33301 -5.66699 7 -11.5 11 -17.5c-6.66699 -4 -14 -9.66699 -22 -17
s-15.5 -16.333 -22.5 -27s-12.833 -22.667 -17.5 -36s-7 -28 -7 -44c0 -32.667 7.66699 -59.167 23 -79.5s34.333 -37.166 57 -50.499s47.5 -24.666 74.5 -33.999s51.833 -19.333 74.5 -30s41.667 -23.167 57 -37.5s23 -33.5 23 -57.5c0 -14 -3.5 -27.667 -10.5 -41
s-16.333 -25.5 -28 -36.5s-25.334 -20 -41 -27c-15.667 -7 -32.5 -10.5 -50.5 -10.5c-22.667 0 -42.5 3.33301 -59.5 10s-31.5 14.667 -43.5 24s-21.5 19.166 -28.5 29.499s-11.833 18.5 -14.5 24.5h-12c0 -9.33301 -1 -22.5 -3 -39.5s-4.66699 -31.167 -8 -42.5
c8 -6 17.5 -11.667 28.5 -17s22.667 -9.83301 35 -13.5s25.166 -6.66699 38.499 -9s26.333 -3.5 39 -3.5c34 0 64 5.5 90 16.5s48 25.5 66 43.5s31.5 38.167 40.5 60.5s13.5 45.833 13.5 70.5c0 21.333 -3.33301 39.166 -10 53.499s-15.667 26.166 -27 35.499
c6 6 12.333 13.5 19 22.5s12.834 19.167 18.501 30.5s10.5 23.5 14.5 36.5s6 26.5 6 40.5c0 29.334 -7.16699 53.167 -21.5 71.5c-14.333 18.334 -32.166 33.667 -53.499 46s-44.333 23 -69 32s-47.667 18.833 -69 29.5c-21.334 10.667 -39.167 23.5 -53.5 38.5
s-21.5 34.5 -21.5 58.5c0 15.333 3.33301 29.166 10 41.499s15.167 22.833 25.5 31.5c10.333 8.67676 22.166 15.3438 35.499 20.001c13.333 4.66699 27 7 41 7s26.833 -2.33301 38.5 -7s22 -10.834 31 -18.501s16.667 -16.5 23 -26.5s10.833 -20.333 13.5 -31z" />
    <glyph glyph-name="dieresis" unicode="&#xa8;" horiz-adv-x="333" 
d="M17 637c0 -14 5 -26 15 -36s22 -15 36 -15s26 5 36 15s15 22 15 36s-5 26 -15 36s-22 15 -36 15s-26 -5 -36 -15s-15 -22 -15 -36zM214 637c0 -14 5 -26 15 -36s22 -15 36 -15s26 5 36 15s15 22 15 36s-5 26 -15 36s-22 15 -36 15s-26 -5 -36 -15s-15 -22 -15 -36z" />
    <glyph glyph-name="copyright" unicode="&#xa9;" horiz-adv-x="750" 
d="M691 340c0 -44 -8.16699 -85.5 -24.5 -124.5s-38.666 -73 -66.999 -102s-61.833 -52 -100.5 -69s-80 -25.5 -124 -25.5s-85.333 8.5 -124 25.5s-72.167 40 -100.5 69s-50.666 63 -66.999 102s-24.5 80.5 -24.5 124.5s8.16699 85.5 24.5 124.5s38.666 73 66.999 102
s61.833 52 100.5 69s80 25.5 124 25.5s85.333 -8.5 124 -25.5s72.167 -40 100.5 -69s50.666 -63 66.999 -102s24.5 -80.5 24.5 -124.5zM17 340c0 -50 9.33301 -96.667 28 -140s44.167 -81 76.5 -113s70.333 -57 114 -75s90.167 -27 139.5 -27s95.833 9 139.5 27
s81.667 43 114 75s57.833 69.667 76.5 113s28 90 28 140c0 49.333 -9.33301 95.833 -28 139.5s-44.167 81.667 -76.5 114s-70.333 57.833 -114 76.5s-90.167 28 -139.5 28s-95.833 -9.33301 -139.5 -28s-81.667 -44.167 -114 -76.5s-57.833 -70.333 -76.5 -114
s-28 -90.167 -28 -139.5zM154 338c0 -34.667 5.8291 -66 17.4961 -94s27.834 -52 48.5 -72c20.667 -20 45.334 -35.333 74.001 -46s60.334 -16 95.001 -16c32 0 61 4.83301 87 14.5s45.667 18.5 59 26.5c0 5.33301 0.333008 11.833 1 19.5
c0.682617 7.66699 2.34961 14.5 5 20.5l-6 2c-6.66699 -6 -14.834 -12.167 -24.501 -18.5c-9.66699 -6.33398 -20.334 -12.167 -32 -17.5c-11.667 -5.33301 -24.167 -9.83301 -37.5 -13.5s-27 -5.5 -41 -5.5c-28.667 0 -54.167 5 -76.5 15s-41.166 23.833 -56.499 41.5
s-27 38.667 -35 63s-12 50.833 -12 79.5c0 42 5.16699 76.667 15.5 104s24 48.833 41 64.5s36.5 26.667 58.5 33s44.667 9.5 68 9.5c17.333 0 32.333 -2 45 -6s23.834 -8.66699 33.501 -14s17.834 -11 24.501 -17c6.6709 -6 12.3379 -11 17.001 -15l5 2
c1.33301 19.333 5.66602 36 12.999 50c-14.667 8.66699 -33.667 15.5 -57 20.5s-51.333 7.5 -84 7.5c-34 0 -66 -5 -96 -15s-56.167 -25 -78.5 -45s-39.833 -44.833 -52.5 -74.5s-19 -64.167 -19 -103.5z" />
    <glyph glyph-name="ordfeminine" unicode="&#xaa;" horiz-adv-x="324" 
d="M211 533v-92.001c-8 -8.66699 -18.333 -17.5 -31 -26.5s-27 -13.5 -43 -13.5c-15.333 0 -28.333 4.33301 -39 13s-16 21.667 -16 39c0 18.667 4.83301 32.334 14.5 41.001s21.167 15 34.5 19s27.5 7 42.5 9s27.5 5.66699 37.5 11zM53 640.999v-37h12
c4 8.66699 12.333 17.5 25 26.5s29.334 13.5 50.001 13.5c10 0 19.167 -1 27.5 -3s15.833 -5.66699 22.5 -11c6.66699 -5.33789 11.834 -13.1709 15.5 -23.499c3.66699 -10.333 5.5 -23.5 5.5 -39.5c0 -4.66699 -0.666992 -8.5 -2 -11.5s-5 -5.66699 -11 -8
s-15.167 -4.83301 -27.5 -7.5s-29.5 -6 -51.5 -10c-38.667 -6.66699 -64.834 -16.334 -78.501 -29.001s-20.5 -30.667 -20.5 -54c0 -14 2.83301 -25.833 8.5 -35.5c5.66699 -9.66992 13 -17.3369 22 -23.001c9 -5.66699 19 -9.66699 30 -12s21.833 -3.5 32.5 -3.5
c20.667 0 39 3.66699 55 11s31.333 18 46 32c1.33301 -11.333 5.5 -21.333 12.5 -30s17.167 -13 30.5 -13c10.667 0 20 1.33301 28 4s14.333 5.33398 19 8.00098v18c-5.33301 -4 -11.666 -6 -18.999 -6c-5.33301 0 -10.333 2.33301 -15 7s-7 13.667 -7 27
c0 7.33301 0.333008 16.833 1 28.5s1.16699 24.167 1.5 37.5s0.833008 27 1.5 41s1 27 1 39c0 20 -3.33301 36.167 -10 48.5s-15.334 22 -26.001 29s-22.167 11.667 -34.5 14c-12.334 2.33301 -24.167 3.5 -35.5 3.5c-26 0 -47.333 -3.33301 -64 -10
s-31.667 -13.667 -45 -21z" />
    <glyph glyph-name="guillemotleft" unicode="&#xab;" horiz-adv-x="500" 
d="M367 419l-126 -187l120 -191c2.66699 6 7.66699 11.5 15 16.5s15 8.16699 23 9.5l-106 166l111 159c-8 1.33301 -15.333 4.5 -22 9.5s-11.667 10.833 -15 17.5zM222 419l-126 -187l120 -191c2.66699 6 7.66699 11.5 15 16.5s15 8.16699 23 9.5l-106 166l111 159
c-8 1.33301 -15.333 4.5 -22 9.5s-11.667 10.833 -15 17.5z" />
    <glyph glyph-name="logicalnot" unicode="&#xac;" horiz-adv-x="606" 
d="M504 324v-216h52v268h-506v-52h454z" />
    <glyph glyph-name="registered" unicode="&#xae;" horiz-adv-x="750" 
d="M59 340c0 44 8.16699 85.5 24.5 124.5s38.666 73 66.999 102s61.833 52 100.5 69s80 25.5 124 25.5s85.333 -8.5 124 -25.5s72.167 -40 100.5 -69s50.666 -63 66.999 -102s24.5 -80.5 24.5 -124.5s-8.16699 -85.5 -24.5 -124.5s-38.666 -73 -66.999 -102
s-61.833 -52 -100.5 -69s-80 -25.5 -124 -25.5s-85.333 8.5 -124 25.5s-72.167 40 -100.5 69s-50.666 63 -66.999 102s-24.5 80.5 -24.5 124.5zM17 340c0 -50 9.33301 -96.667 28 -140s44.167 -81 76.5 -113s70.333 -57 114 -75s90.167 -27 139.5 -27s95.833 9 139.5 27
s81.667 43 114 75s57.833 69.667 76.5 113s28 90 28 140c0 49.333 -9.33301 95.833 -28 139.5s-44.167 81.667 -76.5 114s-70.333 57.833 -114 76.5s-90.167 28 -139.5 28s-95.833 -9.33301 -139.5 -28s-81.667 -44.167 -114 -76.5s-57.833 -70.333 -76.5 -114
s-28 -90.167 -28 -139.5zM294 365l-0.000976562 81c0 15.333 0.666992 31 2 47c1.33594 16 2.66895 31.667 4 47c10 1.33301 20.833 2.5 32.5 3.5s23.834 1.5 36.501 1.5c28 0 50.5 -7.33301 67.5 -22s25.5 -35 25.5 -61c0 -18 -3.33301 -33.5 -10 -46.5
c-6.66797 -13 -15.835 -23.5 -27.5 -31.5c-11.667 -8 -25 -13.833 -40 -17.5s-31.167 -5.5 -48.5 -5.5c-9.33301 0 -17.833 0.333008 -25.5 1s-13.167 1.66699 -16.5 3zM241.999 434v-171c0 -23.334 -0.833008 -46.667 -2.5 -70s-3.16699 -46.666 -4.5 -69.999
c13.333 3.33301 24.333 5 33 5c8 0 18.667 -1.66699 32 -5c-4 48 -6 96 -6 144v70h32c30 -36 58.167 -71.667 84.5 -107s51.833 -71 76.5 -107c16.667 3.33301 29.667 5 39 5c5.33301 0 11.166 -0.5 17.499 -1.5s13.166 -2.16699 20.499 -3.5v5
c-10 8.66699 -22.333 21.834 -37 39.501s-30.334 37 -47.001 58s-33 42.167 -49 63.5s-30.667 40 -44 56c12.667 0.666992 26.834 3.66699 42.501 9c15.667 5.33496 30.5 13.168 44.5 23.5c14 10.334 25.833 23.167 35.5 38.5s14.5 33 14.5 53
c0 17.334 -3.33301 32.167 -10 44.499c-6.66699 12.333 -15.667 22.666 -27 30.999s-24.666 14.5 -39.999 18.5s-31.666 6 -48.999 6c-13.333 0 -26.833 -0.833008 -40.5 -2.5s-27.167 -2.5 -40.5 -2.5c-14 0 -27.833 0.5 -41.5 1.5s-27.167 2.16699 -40.5 3.5
c2 -18.667 3.66699 -40.167 5 -64.5s2 -47.833 2 -70.5z" />
    <glyph glyph-name="macron" unicode="&#xaf;" horiz-adv-x="333" 
d="M30 656v-52h273v52h-273z" />
    <glyph glyph-name="degree" unicode="&#xb0;" horiz-adv-x="400" 
d="M92 527c0 15.333 2.83105 29.5 8.49805 42.5s13.334 24.333 23.001 34c9.66699 9.6709 21.167 17.3379 34.5 23c13.333 5.66699 27.333 8.5 42 8.5c15.333 0 29.5 -2.83301 42.5 -8.5s24.333 -13.334 34 -23.001s17.334 -21 23.001 -34s8.5 -27.167 8.5 -42.5
c0 -14.667 -2.83301 -28.667 -8.5 -42c-5.66895 -13.333 -13.3359 -24.833 -23 -34.5c-9.66699 -9.66797 -21 -17.335 -34 -23c-13 -5.66699 -27.167 -8.5 -42.5 -8.5c-14.667 0 -28.667 2.83301 -42 8.5s-24.833 13.334 -34.5 23.001s-17.334 21.167 -23 34.5
c-5.66699 13.334 -8.5 27.334 -8.5 42zM54.998 527c0 -20 3.83301 -38.833 11.5 -56.5s18 -33 31 -46s28.333 -23.333 46 -31s36.5 -11.5 56.5 -11.5s38.833 3.83301 56.5 11.5s33 18 46 31s23.333 28.333 31 46s11.5 36.5 11.5 56.5s-3.83301 38.833 -11.5 56.5
s-18 33 -31 46s-28.333 23.333 -46 31s-36.5 11.5 -56.5 11.5s-38.833 -3.83301 -56.5 -11.5s-33 -18 -46 -31s-23.333 -28.333 -31 -46s-11.5 -36.5 -11.5 -56.5z" />
    <glyph glyph-name="plusminus" unicode="&#xb1;" horiz-adv-x="606" 
d="M50 52v-52h506v52h-506zM50 324v-52h227v-182h52v182h227v52h-227v182h-52v-182h-227z" />
    <glyph glyph-name="twosuperior" unicode="&#xb2;" horiz-adv-x="333" 
d="M45 613l23.001 -29.998l5 2c0.666992 6 2.83398 12.667 6.50098 20s8.83398 14.166 15.501 20.499s15 11.666 25 15.999s21.667 6.5 35 6.5c19.333 0 36.333 -6.66699 51 -20s22 -35 22 -65c0 -25.333 -5 -49 -15 -71s-24.167 -44 -42.5 -66s-40.5 -45.167 -66.5 -69.5
s-55 -51.5 -87 -81.5v-15c23.333 1.33301 46.5 2.5 69.5 3.5s46.167 1.5 69.5 1.5s46.666 -0.5 69.999 -1.5s46.666 -2.16699 69.999 -3.5c-2.66699 8 -4 16.667 -4 26s1.33301 18 4 26c-22 -2 -46.333 -3.33301 -73 -4s-53.334 -1 -80.001 -1h-48l-2 5
c44 38.667 79.167 70.667 105.5 96s46.5 47 60.5 65s23.333 34 28 48s7 29 7 45c0 37.333 -12.333 64.333 -37 81s-55.667 25 -93 25c-28 0 -51.333 -4.66699 -70 -14s-35 -24.333 -49 -45z" />
    <glyph glyph-name="threesuperior" unicode="&#xb3;" horiz-adv-x="333" 
d="M36 318l-10 -37.999c11.333 -5.33301 25.333 -10.166 42 -14.499s37 -6.5 61 -6.5c50 0 90.167 11.667 120.5 35s45.5 54 45.5 92c0 18 -3.66699 33 -11 45s-16.5 21.5 -27.5 28.5s-22.833 12.167 -35.5 15.5s-24.667 5.33301 -36 6v2c10 2 20.167 5.66699 30.5 11
c10.333 5.33496 19.833 12.168 28.5 20.499c8.66797 8.33301 15.668 18.333 21 30c5.33301 11.6709 8 24.8379 8 39.5c0 30 -11.167 52.167 -33.5 66.5s-49.5 21.5 -81.5 21.5c-30 0 -52.833 -4 -68.5 -12s-28.167 -16 -37.5 -24l15 -32l5 1
c4.66699 11.333 13.5 21.333 26.5 30s28.167 13 45.5 13s32.833 -5.66699 46.5 -17c13.667 -11.3359 20.5 -28.6689 20.5 -52c0 -10 -1 -20.167 -3 -30.5s-5.83301 -19.833 -11.5 -28.5c-5.66699 -8.66895 -13 -15.8359 -22 -21.501c-9 -5.66699 -20.5 -8.5 -34.5 -8.5
c-12 0 -23 2.33301 -33 7c2 -6 3 -12.667 3 -20c0 -5.33301 -1 -11 -3 -17c5.33301 1.33691 11.5 2.66992 18.5 4c7 1.33301 14.5 2 22.5 2c10 0 19.833 -1.5 29.5 -4.5s18.334 -7.83301 26 -14.5c7.66797 -6.66699 13.835 -15.5 18.501 -26.5
c4.66699 -11 7 -24.833 7 -41.5c0 -28 -9 -51 -27 -69s-43 -27 -75 -27c-20.667 0 -38.334 4 -53.001 12s-25.667 15.667 -33 23h-5z" />
    <glyph glyph-name="acute" unicode="&#xb4;" horiz-adv-x="333" 
d="M245 708l-146.999 -149h42l147 94c8 5.33301 16 11.5 24 18.5s12 16.5 12 28.5c0 10.667 -3.83301 18.667 -11.5 24c-7.66797 5.33301 -14.835 8 -21.501 8c-14 0 -29 -8 -45 -24z" />
    <glyph glyph-name="mu" unicode="&#xb5;" 
d="M242 -12c32 0 61.8369 7.5 89.5039 22.5s50.167 38.5 67.5 70.5h2v-43c0 -7.33301 -0.166992 -14.333 -0.5 -21s-0.833008 -13 -1.5 -19c13.333 1.33301 26.333 2 39 2s25.667 -0.666992 39 -2c-1.33301 26.667 -2.33301 54.334 -3 83.001s-1 58 -1 88
c0 54 0.333008 105.167 1 153.5s2.66699 98.5 6 150.5c-6.66992 -1.33301 -13.3369 -2.5 -20 -3.5c-6.66699 -1 -13.667 -1.5 -21 -1.5s-14.333 0.5 -21 1.5s-13.667 2.16699 -21 3.5c0.666992 -12 1.16699 -24.667 1.5 -38s0.5 -27.333 0.5 -42v-84
c0 -39.333 -0.166992 -70.333 -0.5 -93s-1.33301 -40.667 -3 -54c-1.67285 -13.333 -3.83984 -24 -6.50098 -32c-2.66992 -8 -6.33691 -17.667 -11.001 -29c-8.66699 -18 -22.334 -33.167 -41 -45.5c-18.667 -12.333 -42 -18.5 -70 -18.5c-19.334 0 -36.167 3.5 -50.5 10.5
c-14.334 7 -26.167 15.833 -35.5 26.5c-8.66699 9.33301 -16 23.166 -22 41.499s-9 44.833 -9 79.5c0 50 0.833008 98.833 2.5 146.5s4.16699 91.5 7.5 131.5c-16.667 -3.33301 -30.334 -5 -41.001 -5c-11.333 0 -25.333 1.66699 -42 5c0 -30 0.166992 -60.167 0.5 -90.5
s0.666016 -62.166 0.999023 -95.499c0.333984 -33.333 0.666992 -68.833 1 -106.5s0.5 -78.5 0.5 -122.5c0 -31.333 -0.166992 -60.166 -0.5 -86.499s-0.833008 -52.333 -1.5 -78s-1.16699 -51.334 -1.5 -77.001s-0.5 -52.834 -0.5 -81.501c16.667 3.33301 30.667 5 42 5
s25.333 -1.66699 42 -5c-5.33301 46 -8.33301 92 -9 138s-1 93.333 -1 142c12 -10 25.667 -17 41 -21s32.333 -6 51 -6z" />
    <glyph glyph-name="paragraph" unicode="&#xb6;" horiz-adv-x="800" 
d="M499 639l0.000976562 -751h36v756l75 12v24h-261c-62.667 0 -111.5 -15 -146.5 -45s-52.5 -76.333 -52.5 -139c0 -30 5 -57.667 15 -83s25.167 -47 45.5 -65s46.166 -32 77.499 -42s68.333 -15 111 -15v-403h36v741z" />
    <glyph glyph-name="periodcentered" unicode="&#xb7;" horiz-adv-x="278" 
d="M79 306c0 -16.667 5.83398 -30.8359 17.501 -42.502c11.667 -11.667 25.834 -17.5 42.501 -17.5s30.834 5.83301 42.5 17.5c11.667 11.667 17.5 25.834 17.5 42.501s-5.83301 30.834 -17.5 42.501s-25.834 17.5 -42.501 17.5s-30.834 -5.83301 -42.501 -17.5
s-17.5 -25.834 -17.5 -42.5z" />
    <glyph glyph-name="cedilla" unicode="&#xb8;" horiz-adv-x="333" 
d="M43 -172l-14 -32c9.33301 -3.33301 21.333 -7 36 -11s32.334 -6 53.001 -6c16 0 31.167 1.83301 45.5 5.5s27 9 38 16s19.667 15.833 26 26.5s9.5 23 9.5 37c0 21.333 -7.33301 38.5 -22 51.5s-35 19.5 -61 19.5c-6.66699 0 -12.167 -0.5 -16.5 -1.5
s-8.5 -2.16699 -12.5 -3.5l25 70h-35l-41 -102l7 -7c6.66699 4.66699 21 7 43 7c14 0 26 -3 36 -9s15 -16.333 15 -31c0 -13.333 -5.83301 -23.666 -17.5 -30.999s-25.834 -11 -42.501 -11c-15.333 0 -29.333 1.16699 -42 3.5s-22.667 5.16602 -30 8.49902z" />
    <glyph glyph-name="onesuperior" unicode="&#xb9;" horiz-adv-x="333" 
d="M147 616v-200.001c0 -25.333 -0.333008 -50.666 -1 -75.999s-2 -52 -4 -80c13.333 3.33301 24.666 5 33.999 5s20.666 -1.66699 33.999 -5c-4 53.333 -6 105.333 -6 156v100c0 53.333 2 105.333 6 156h-11c-20.667 -11.333 -44.167 -22.5 -70.5 -33.5
s-52.166 -20.5 -77.499 -28.5v-10c8.66699 -4 15.334 -10.333 20.001 -19l72 37z" />
    <glyph glyph-name="ordmasculine" unicode="&#xba;" horiz-adv-x="340" 
d="M76 522c0 16 1.66699 31.5 5 46.5s8.66602 28.333 15.999 40s17 21.167 29 28.5s27 11 45 11c17.333 0 31.833 -3.66699 43.5 -11s21.167 -16.833 28.5 -28.5s12.666 -25 15.999 -40s5 -30.5 5 -46.5c0 -15.333 -1.66699 -30.5 -5 -45.5
c-3.33398 -15 -8.66699 -28.333 -15.999 -40c-7.33301 -11.667 -16.833 -21.167 -28.5 -28.5s-26.167 -11 -43.5 -11c-18 0 -33 3.66699 -45 11s-21.667 16.833 -29 28.5s-12.666 25 -15.999 40s-5 30.167 -5 45.5zM10 522c0 -27.333 4.66602 -50.5 13.999 -69.5
s21.666 -34.333 36.999 -46s32.5 -20.167 51.5 -25.5s38.5 -8 58.5 -8c19.333 0 38.333 2.66699 57 8s35.667 13.833 51 25.5c15.335 11.667 27.668 27 37 46c9.33301 19 14 42.167 14 69.5s-4.66699 50.5 -14 69.5s-21.666 34.5 -36.999 46.5s-32.333 20.667 -51 26
s-37.667 8 -57 8c-20 0 -39.5 -2.66699 -58.5 -8s-36.167 -14 -51.5 -26s-27.666 -27.5 -36.999 -46.5s-14 -42.167 -14 -69.5z" />
    <glyph glyph-name="guillemotright" unicode="&#xbb;" horiz-adv-x="500" 
d="M101 396l106 -166l-111 -159c8 -1.33301 15.333 -4.5 22 -9.5s11.667 -10.833 15 -17.5l126 187l-120 191c-2.66699 -6 -7.66699 -11.5 -15 -16.5s-15 -8.16699 -23 -9.5zM246 396l106 -166l-111 -159c8 -1.33301 15.333 -4.5 22 -9.5s11.667 -10.833 15 -17.5l126 187
l-120 191c-2.66699 -6 -7.66699 -11.5 -15 -16.5s-15 -8.16699 -23 -9.5z" />
    <glyph glyph-name="onequarter" unicode="&#xbc;" horiz-adv-x="834" 
d="M144 616v-200.001c0 -25.333 -0.333008 -50.666 -1 -75.999s-2 -52 -4 -80c13.333 3.33301 24.666 5 33.999 5s20.666 -1.66699 33.999 -5c-4 53.333 -6 105.333 -6 156v100c0 53.333 2 105.333 6 156h-11c-20.667 -11.333 -44.167 -22.5 -70.5 -33.5
s-52.166 -20.5 -77.499 -28.5v-10c8.66699 -4 15.334 -10.333 20.001 -19l72 37zM491 683.999l-277 -709c10 3.33301 17.667 5 23 5s13 -1.66699 23 -5l277 709c-10 -3.33301 -17.667 -5 -23 -5s-13 1.66699 -23 5zM653 337.999v-193h-139l-2 5
c19.333 32 41.333 63.833 66 95.5s49 63.5 73 95.5zM451 125.999l0.000976562 -22.0029c9.33301 0.666992 21.5 1.33398 36.5 2.00098s31.5 1.16699 49.5 1.5s37 0.5 57 0.5h59c0 -19.333 -0.5 -38.166 -1.5 -56.499s-2.16699 -36.166 -3.5 -53.499
c10.667 1.33301 21.667 2 33 2s22.333 -0.666992 33 -2c-1.33301 17.333 -2.33301 35.166 -3 53.499s-1 37.166 -1 56.499c25.333 0 44.666 -1.33301 57.999 -4c-2.66699 7.33301 -4 15.333 -4 24c0 8 1.33301 15.667 4 23c-7.33301 -2 -16.5 -3.5 -27.5 -4.5
s-21.167 -1.5 -30.5 -1.5c0 42.667 0.166992 85.334 0.5 128.001s1.83301 85.334 4.5 128.001c-6 -2.66699 -14.667 -4 -26 -4s-20 1.33301 -26 4c-36 -46 -71.333 -91.833 -106 -137.5s-70 -91.5 -106 -137.5z" />
    <glyph glyph-name="onehalf" unicode="&#xbd;" horiz-adv-x="834" 
d="M505 348l23.002 -29.999l5 2c0.682617 6 2.84961 12.667 6.5 20c3.6748 7.33496 8.8418 14.168 15.5 20.5c6.66699 6.33594 15 11.6689 25 15.999c10 4.33301 21.667 6.5 35 6.5c19.333 0 36.333 -6.66699 51 -20s22 -35 22 -65c0 -25.333 -5 -49 -15 -71
s-24.167 -44 -42.5 -66s-40.5 -45.167 -66.5 -69.5s-55 -51.5 -87 -81.5v-12c23.333 1.33301 46.5 2 69.5 2h69.5h70c23.333 -0 46.666 -0.666992 69.999 -2c-2.66699 6 -4 13.667 -4 23s1.33301 18 4 26c-22 -2 -46.333 -3.33301 -73 -4s-53.334 -1 -80.001 -1h-48l-2 5
c44 38.667 79.167 70.667 105.5 96s46.5 47 60.5 65s23.333 34 28 48s7 29 7 45c0 37.333 -12.333 64.333 -37 81s-55.667 25 -93 25c-28 0 -51.333 -4.66699 -70 -14s-35 -24.333 -49 -45zM144.002 616.001v-200.001c0 -25.333 -0.333008 -50.666 -1 -75.999s-2 -52 -4 -80
c13.333 3.33301 24.666 5 33.999 5s20.666 -1.66699 33.999 -5c-4 53.333 -6 105.333 -6 156v100c0 53.333 2 105.333 6 156h-11c-20.667 -11.333 -44.167 -22.5 -70.5 -33.5s-52.166 -20.5 -77.499 -28.5v-10c8.66699 -4 15.334 -10.333 20.001 -19l72 37zM488.002 684
l-277 -709c10 3.33301 17.667 5 23 5s13 -1.66699 23 -5l277 709c-10 -3.33301 -17.667 -5 -23 -5s-13 1.66699 -23 5z" />
    <glyph glyph-name="threequarters" unicode="&#xbe;" horiz-adv-x="834" 
d="M34 318l-9.99902 -37.999c11.333 -5.33301 25.333 -10.166 42 -14.499s37 -6.5 61 -6.5c50 0 90.167 11.667 120.5 35s45.5 54 45.5 92c0 18 -3.66699 33 -11 45s-16.5 21.5 -27.5 28.5s-22.833 12.167 -35.5 15.5s-24.667 5.33301 -36 6v2c10 2 20.167 5.66699 30.5 11
c10.333 5.33496 19.833 12.168 28.5 20.499c8.66797 8.33301 15.668 18.333 21 30c5.33301 11.6709 8 24.8379 8 39.5c0 30 -11.167 52.167 -33.5 66.5s-49.5 21.5 -81.5 21.5c-30 0 -52.833 -4 -68.5 -12s-28.167 -16 -37.5 -24l15 -32l5 1
c4.66699 11.333 13.5 21.333 26.5 30s28.167 13 45.5 13s32.833 -5.66699 46.5 -17c13.667 -11.3359 20.5 -28.6689 20.5 -52c0 -10 -1 -20.167 -3 -30.5s-5.83301 -19.833 -11.5 -28.5c-5.66699 -8.66895 -13 -15.8359 -22 -21.501c-9 -5.66699 -20.5 -8.5 -34.5 -8.5
c-12 0 -23 2.33301 -33 7c2 -6 3 -12.667 3 -20c0 -5.33301 -1 -11 -3 -17c5.33301 1.33691 11.5 2.66992 18.5 4c7 1.33301 14.5 2 22.5 2c10 0 19.833 -1.5 29.5 -4.5s18.334 -7.83301 26 -14.5c7.66699 -6.66699 13.834 -15.5 18.5 -26.5c4.66699 -11 7 -24.833 7 -41.5
c0 -28 -9 -51 -27 -69s-43 -27 -75 -27c-20.667 0 -38.334 4 -53.001 12s-25.667 15.667 -33 23h-5zM523.001 684.001l-277 -709c10 3.33301 17.667 5 23 5s13 -1.66699 23 -5l277 709c-10 -3.33301 -17.667 -5 -23 -5s-13 1.66699 -23 5zM673.001 338.001v-193h-139l-2 5
c19.333 32 41.333 63.833 66 95.5s49 63.5 73 95.5zM471.001 126.001l0.000976562 -22.0029c9.33301 0.666992 21.5 1.33398 36.5 2.00098s31.5 1.16699 49.5 1.5s37 0.5 57 0.5h59c0 -19.333 -0.5 -38.166 -1.5 -56.499s-2.16699 -36.166 -3.5 -53.499
c10.667 1.33301 21.667 2 33 2s22.333 -0.666992 33 -2c-1.33301 17.333 -2.33301 35.166 -3 53.499s-1 37.166 -1 56.499c25.333 0 44.666 -1.33301 57.999 -4c-2.66699 7.33301 -4 15.333 -4 24c0 8 1.33301 15.667 4 23c-7.33301 -2 -16.5 -3.5 -27.5 -4.5
s-21.167 -1.5 -30.5 -1.5c0 42.667 0.166992 85.334 0.5 128.001s1.83301 85.334 4.5 128.001c-6 -2.66699 -14.667 -4 -26 -4s-20 1.33301 -26 4c-36 -46 -71.333 -91.833 -106 -137.5s-70 -91.5 -106 -137.5z" />
    <glyph glyph-name="questiondown" unicode="&#xbf;" horiz-adv-x="389" 
d="M150 426c0 -15.333 5.66895 -28.667 17.002 -40s24.666 -17 39.999 -17s28.666 5.66699 39.999 17c11.333 11.335 17 24.668 17 40c0 15.333 -5.66699 28.666 -17 39.999c-11.334 11.333 -24.667 17 -40 17c-15.334 0 -28.667 -5.66699 -40 -17s-17 -24.666 -17 -39.999z
M144.002 263.999l5.99805 -3.99512c2.66699 1.33691 7 3.16992 13 5.49902c6 2.33301 13 3.5 21 3.5c17.333 0 30.333 -6.5 39 -19.5s13 -26.167 13 -39.5c0 -17.334 -4.33301 -33.667 -13 -49s-19.667 -30.333 -33 -45c-13.334 -14.667 -27.667 -29.334 -43 -44.001
s-29.666 -30.334 -42.999 -47.001s-24.333 -34.5 -33 -53.5s-13 -40.167 -13 -63.5c0 -18 3.16699 -35 9.5 -51s15.833 -30 28.5 -42s28.167 -21.5 46.5 -28.5s39.5 -10.5 63.5 -10.5c23.333 0 43 3.5 59 10.5s30.667 14.5 44 22.5l-6 50
c-11.333 -13.333 -24.833 -24.333 -40.5 -33s-32.5 -13 -50.5 -13c-10.667 0 -21.167 1.83301 -31.5 5.5s-19.5 9 -27.5 16s-14.5 15.5 -19.5 25.5s-7.5 21.667 -7.5 35c0 18 4.16699 34.833 12.5 50.5s19 30.167 32 43.5s26.833 27.166 41.5 41.499
s28.5 29.166 41.5 44.499s23.667 32.166 32 50.499s12.5 38.5 12.5 60.5c0 20.667 -4 38 -12 52s-17.667 25.333 -29 34s-23.166 15 -35.499 19s-22.5 6 -30.5 6c-13.333 0 -25 -1.66699 -35 -5c-0.666992 -4.66699 -2.16699 -9.66699 -4.5 -15
s-4.83301 -9.66602 -7.5 -12.999z" />
    <glyph glyph-name="Agrave" unicode="&#xc0;" horiz-adv-x="667" 
d="M213 825l147.001 -94h42l-147 149c-16 16 -31 24 -45 24c-6.66699 0 -13.834 -2.66699 -21.501 -8s-11.5 -13.333 -11.5 -24c0 -12 4 -21.5 12 -28.5s16 -13.167 24 -18.5zM316.001 563l111 -254c-18.667 -0.666992 -37.334 -1.16699 -56 -1.5
c-18.667 -0.333008 -37.334 -0.5 -56 -0.5c-17.333 0 -35.333 0.333008 -54 1s-36.667 1 -54 1zM349.001 698h-18.9951c-52 -119.333 -103.667 -236.666 -155 -351.999s-104 -231.333 -158 -348c11.333 1.33301 23.666 2 36.999 2s25.666 -0.666992 36.999 -2
c8.66699 30.667 21.667 69.5 39 116.5s36.666 96.5 57.999 148.5c20.667 0.666992 41 1.16699 61 1.5s40.333 0.5 61 0.5c22 0 44 -0.166992 66 -0.5s43.667 -0.833008 65 -1.5c8.66699 -22 18 -45.167 28 -69.5s19.833 -48.333 29.5 -72s18.5 -46.334 26.5 -68.001
s14.333 -40.167 19 -55.5c9.33301 1.33301 18.166 2 26.499 2h26.5h26.5c8.33301 -0 17.166 -0.666992 26.499 -2c-8.66699 16 -19.834 39.333 -33.501 70s-29 65.5 -46 104.5s-35.167 81.167 -54.5 126.5s-38.666 91 -57.999 137s-38.333 91.5 -57 136.5
s-36 86.833 -52 125.5z" />
    <glyph glyph-name="Aacute" unicode="&#xc1;" horiz-adv-x="667" 
d="M412 880l-147 -149h42l147 94c8 5.33301 16 11.5 24 18.5s12 16.5 12 28.5c0 10.667 -3.83301 18.667 -11.5 24c-7.66797 5.33301 -14.835 8 -21.5 8c-14 0 -29 -8 -45 -24zM316 563l111 -254c-18.667 -0.666992 -37.334 -1.16699 -56 -1.5
c-18.667 -0.333008 -37.334 -0.5 -56 -0.5c-17.333 0 -35.333 0.333008 -54 1s-36.667 1 -54 1zM349 698h-18.9951c-52 -119.333 -103.667 -236.666 -155 -351.999s-104 -231.333 -158 -348c11.333 1.33301 23.666 2 36.999 2s25.666 -0.666992 36.999 -2
c8.66699 30.667 21.667 69.5 39 116.5s36.666 96.5 57.999 148.5c20.667 0.666992 41 1.16699 61 1.5s40.333 0.5 61 0.5c22 0 44 -0.166992 66 -0.5s43.667 -0.833008 65 -1.5c8.66699 -22 18 -45.167 28 -69.5s19.833 -48.333 29.5 -72s18.5 -46.334 26.5 -68.001
s14.333 -40.167 19 -55.5c9.33301 1.33301 18.166 2 26.499 2h26.5h26.5c8.33301 -0 17.166 -0.666992 26.499 -2c-8.66699 16 -19.834 39.333 -33.501 70s-29 65.5 -46 104.5s-35.167 81.167 -54.5 126.5s-38.666 91 -57.999 137s-38.333 91.5 -57 136.5
s-36 86.833 -52 125.5z" />
    <glyph glyph-name="Acircumflex" unicode="&#xc2;" horiz-adv-x="667" 
d="M333 836l120 -105h37l-123 167h-67l-123 -167h37zM316 563l111 -254c-18.667 -0.666992 -37.334 -1.16699 -56 -1.5c-18.667 -0.333008 -37.334 -0.5 -56 -0.5c-17.333 0 -35.333 0.333008 -54 1s-36.667 1 -54 1zM349 698h-18.9951
c-52 -119.333 -103.667 -236.666 -155 -351.999s-104 -231.333 -158 -348c11.333 1.33301 23.666 2 36.999 2s25.666 -0.666992 36.999 -2c8.66699 30.667 21.667 69.5 39 116.5s36.666 96.5 57.999 148.5c20.667 0.666992 41 1.16699 61 1.5s40.333 0.5 61 0.5
c22 0 44 -0.166992 66 -0.5s43.667 -0.833008 65 -1.5c8.66699 -22 18 -45.167 28 -69.5s19.833 -48.333 29.5 -72s18.5 -46.334 26.5 -68.001s14.333 -40.167 19 -55.5c9.33301 1.33301 18.166 2 26.499 2h26.5h26.5c8.33301 -0 17.166 -0.666992 26.499 -2
c-8.66699 16 -19.834 39.333 -33.501 70s-29 65.5 -46 104.5s-35.167 81.167 -54.5 126.5s-38.666 91 -57.999 137s-38.333 91.5 -57 136.5s-36 86.833 -52 125.5z" />
    <glyph glyph-name="Atilde" unicode="&#xc3;" horiz-adv-x="667" 
d="M169 756h29.998c6 17.333 12.5 29.333 19.5 36s18.167 10 33.5 10c8 0 16.5 -1.5 25.5 -4.5s22.167 -9.16699 39.5 -18.5c15.333 -8.66699 28.833 -14.667 40.5 -18s22.167 -5 31.5 -5c20 0 36.667 4 50 12c13.335 8 24.168 17.833 32.5 29.5
c8.33301 11.667 14.5 23.5 18.5 35.5s6.66699 22 8 30h-29c-4 -13.333 -10.667 -25 -20 -35s-21.666 -15 -36.999 -15c-8.66699 0 -17.167 1.5 -25.5 4.5s-21.833 9.16699 -40.5 18.5c-18.667 8.66699 -32.667 14.667 -42 18s-19.666 5 -30.999 5
c-16 0 -30 -3.16699 -42 -9.5s-22.333 -14.5 -31 -24.5s-15.5 -21 -20.5 -33s-8.5 -24 -10.5 -36zM315.998 563l111 -254c-18.667 -0.666992 -37.334 -1.16699 -56 -1.5c-18.667 -0.333008 -37.334 -0.5 -56 -0.5c-17.333 0 -35.333 0.333008 -54 1s-36.667 1 -54 1z
M348.998 698h-18.9951c-52 -119.333 -103.667 -236.666 -155 -351.999s-104 -231.333 -158 -348c11.333 1.33301 23.666 2 36.999 2s25.666 -0.666992 36.999 -2c8.66699 30.667 21.667 69.5 39 116.5s36.666 96.5 57.999 148.5c20.667 0.666992 41 1.16699 61 1.5
s40.333 0.5 61 0.5c22 0 44 -0.166992 66 -0.5s43.667 -0.833008 65 -1.5c8.66699 -22 18 -45.167 28 -69.5s19.833 -48.333 29.5 -72s18.5 -46.334 26.5 -68.001s14.333 -40.167 19 -55.5c9.33301 1.33301 18.166 2 26.499 2h26.5h26.5
c8.33301 -0 17.166 -0.666992 26.499 -2c-8.66699 16 -19.834 39.333 -33.501 70s-29 65.5 -46 104.5s-35.167 81.167 -54.5 126.5s-38.666 91 -57.999 137s-38.333 91.5 -57 136.5s-36 86.833 -52 125.5z" />
    <glyph glyph-name="Adieresis" unicode="&#xc4;" horiz-adv-x="667" 
d="M184 809c0 -14 5 -26 15 -36s22 -15 36 -15s26 5 36 15s15 22 15 36s-5 26 -15 36s-22 15 -36 15s-26 -5 -36 -15s-15 -22 -15 -36zM381 809c0 -14 5 -26 15 -36s22 -15 36 -15s26 5 36 15s15 22 15 36s-5 26 -15 36s-22 15 -36 15s-26 -5 -36 -15s-15 -22 -15 -36z
M316 563l111 -254c-18.667 -0.666992 -37.334 -1.16699 -56 -1.5c-18.667 -0.333008 -37.334 -0.5 -56 -0.5c-17.333 0 -35.333 0.333008 -54 1s-36.667 1 -54 1zM349 698h-18.9951c-52 -119.333 -103.667 -236.666 -155 -351.999s-104 -231.333 -158 -348
c11.333 1.33301 23.666 2 36.999 2s25.666 -0.666992 36.999 -2c8.66699 30.667 21.667 69.5 39 116.5s36.666 96.5 57.999 148.5c20.667 0.666992 41 1.16699 61 1.5s40.333 0.5 61 0.5c22 0 44 -0.166992 66 -0.5s43.667 -0.833008 65 -1.5
c8.66699 -22 18 -45.167 28 -69.5s19.833 -48.333 29.5 -72s18.5 -46.334 26.5 -68.001s14.333 -40.167 19 -55.5c9.33301 1.33301 18.166 2 26.499 2h26.5h26.5c8.33301 -0 17.166 -0.666992 26.499 -2c-8.66699 16 -19.834 39.333 -33.501 70s-29 65.5 -46 104.5
s-35.167 81.167 -54.5 126.5s-38.666 91 -57.999 137s-38.333 91.5 -57 136.5s-36 86.833 -52 125.5z" />
    <glyph glyph-name="Aring" unicode="&#xc5;" horiz-adv-x="667" 
d="M273 817c0 16.6699 5.83203 30.8379 17.499 42.501c11.667 11.667 26.167 17.5 43.5 17.5c16.667 0 30.834 -5.83301 42.501 -17.5s17.5 -25.834 17.5 -42.501s-5.83301 -30.834 -17.5 -42.501s-26.167 -17.5 -43.5 -17.5c-16.667 0 -30.834 5.83301 -42.5 17.5
c-11.667 11.6699 -17.5 25.8369 -17.5 42.501zM230.999 817.001c0 -14 2.66699 -27.165 8 -39.498c5.33301 -12.3359 12.666 -23.1689 21.999 -32.499c9.33398 -9.33887 20.167 -16.6719 32.499 -22c12.333 -5.33301 25.5 -8 39.5 -8s27.333 2.66699 40 8
s23.667 12.666 33 21.999c9.33496 9.33301 16.668 20.166 22 32.499c5.33301 12.333 8 25.5 8 39.5s-2.66699 27.167 -8 39.5s-12.666 23.166 -21.999 32.499s-20.166 16.666 -32.499 21.999s-25.5 8 -39.5 8s-27.333 -2.66699 -40 -8
c-12.667 -5.34668 -23.667 -12.6797 -33 -21.999c-9.33398 -9.33984 -16.667 -20.1729 -22 -32.5c-5.33301 -12.333 -8 -25.5 -8 -39.5zM315.999 563.003l111 -254c-18.667 -0.666992 -37.334 -1.16699 -56 -1.5c-18.667 -0.333008 -37.334 -0.5 -56 -0.5
c-17.333 0 -35.333 0.333008 -54 1s-36.667 1 -54 1zM348.999 698.003h-18.9951c-52 -119.333 -103.667 -236.666 -155 -351.999s-104 -231.333 -158 -348c11.333 1.33301 23.666 2 36.999 2s25.666 -0.666992 36.999 -2c8.66699 30.667 21.667 69.5 39 116.5
s36.666 96.5 57.999 148.5c20.667 0.666992 41 1.16699 61 1.5s40.333 0.5 61 0.5c22 0 44 -0.166992 66 -0.5s43.667 -0.833008 65 -1.5c8.66699 -22 18 -45.167 28 -69.5s19.833 -48.333 29.5 -72s18.5 -46.334 26.5 -68.001s14.333 -40.167 19 -55.5
c9.33301 1.33301 18.166 2 26.499 2h26.5h26.5c8.33301 0 17.166 -0.666992 26.499 -2c-8.66699 16 -19.834 39.333 -33.501 70s-29 65.5 -46 104.5s-35.167 81.167 -54.5 126.5s-38.666 91 -57.999 137s-38.333 91.5 -57 136.5s-36 86.833 -52 125.5z" />
    <glyph glyph-name="AE" unicode="&#xc6;" horiz-adv-x="833" 
d="M451 607v-319l-209 6l198 313h11zM220 252l231.001 -5.99707c0 -42 -0.333008 -83.667 -1 -125s-3 -82.333 -7 -123c28.667 1.33301 57.167 2 85.5 2h85.5h84c28 0 57 -0.666992 87 -2c-1.33301 3.33301 -2.5 7.16602 -3.5 11.499s-1.5 9.16602 -1.5 14.499
s0.5 10.166 1.5 14.499s2.16699 9.16602 3.5 14.499c-16 -2.66699 -43 -5.16699 -81 -7.5s-93.333 -3.5 -166 -3.5c-1.33301 32.667 -2.5 65.334 -3.5 98.001s-1.5 65.334 -1.5 98.001v101c40.667 0 73.5 -0.166992 98.5 -0.5s45.333 -0.833008 61 -1.5
s28.167 -1.5 37.5 -2.5s18.666 -1.83301 27.999 -2.5c-3.33301 11.335 -5 20.668 -5 28c0 7.33496 1.66699 16.668 5 28c-8.66699 -0.666992 -17.667 -1.5 -27 -2.5s-21.833 -1.83301 -37.5 -2.5s-36 -1.16699 -61 -1.5s-58.167 -0.5 -99.5 -0.5v82
c0 30 0.5 59.167 1.5 87.5s2.16699 57.5 3.5 87.5c42 0 76.333 -0.333008 103 -1s48.5 -1.83398 65.5 -3.50098s30.667 -3.33398 41 -5.00098s20.5 -3.5 30.5 -5.5c-3.33301 12 -5 22.333 -5 31s1.66699 19 5 31c-28 -1.33301 -55.667 -2.5 -83 -3.5s-55 -1.5 -83 -1.5
c-28.667 0 -57 0.5 -85 1.5s-56 2.16699 -84 3.5c-36 -57.333 -73.833 -117.333 -113.5 -180s-79.334 -124.5 -119.001 -185.5s-78 -119.333 -115 -175s-69.833 -104.5 -98.5 -146.5c6.66699 1.33301 13.667 2 21 2h21c14 0 27.667 -0.666992 41 -2
c40.667 82.667 87.334 167.334 140.001 254.001z" />
    <glyph glyph-name="Ccedilla" unicode="&#xc7;" horiz-adv-x="667" 
d="M360 -15l-37.001 -92.9971l7 -7c6.66699 4.66699 21 7 43 7c14 0 26 -3 36 -9s15 -16.333 15 -31c0 -13.333 -5.83301 -23.666 -17.5 -31c-11.668 -7.33301 -25.835 -11 -42.5 -11c-15.333 0 -29.333 1.16699 -42 3.5s-22.667 5.16602 -30 8.49902l-14 -32
c9.33301 -3.33301 21.333 -7 36 -11s32.334 -6 53.001 -6c16 0 31.167 1.83301 45.5 5.5s27 9 38 16s19.667 15.833 26 26.5s9.5 23 9.5 37c0 21.333 -7.33301 38.5 -22 51.5s-35 19.5 -61 19.5c-6.66699 0 -12.167 -0.5 -16.5 -1.5s-8.5 -2.16699 -12.5 -3.5l21 61h12
c24.667 0 48.334 2 71.001 6s43.167 8.5 61.5 13.5s34 10.667 47 17s22.5 12.166 28.5 17.499l9 59l-4 4c-9.33301 -7.33301 -20.833 -15.833 -34.5 -25.5s-29 -18.667 -46 -27s-35.667 -15.5 -56 -21.5s-42.5 -9 -66.5 -9c-39.333 0 -75.833 6.33301 -109.5 19
s-63 32.167 -88 58.5s-44.5 59.666 -58.5 99.999s-21 88.166 -21 143.499c0 55.334 7 103.167 21 143.5s33.5 73.666 58.5 99.999s54.333 45.833 88 58.5s70.167 19 109.5 19c24 0 46 -3.16699 66 -9.5c20 -6.33789 38 -14.1709 54 -23.499c16 -9.33301 30 -19 42 -29
s21.333 -19 28 -27l6 2c2 10.667 4.66699 24 8 40s7.66602 28.667 12.999 38c-28 12.667 -60.167 23.5 -96.5 32.5s-76.5 13.5 -120.5 13.5c-55.333 0 -106 -8 -152 -24s-85.5 -39.333 -118.5 -70s-58.667 -68.167 -77 -112.5s-27.5 -94.833 -27.5 -151.5
c0 -52.667 7.83301 -100 23.5 -142s37.5 -78.167 65.5 -108.5s61.5 -54.166 100.5 -71.499s81.833 -28.333 128.5 -33z" />
    <glyph glyph-name="Egrave" unicode="&#xc8;" horiz-adv-x="500" 
d="M146 825l147.001 -94h42l-147 149c-16 16 -31 24 -45 24c-6.66699 0 -13.834 -2.66699 -21.501 -8s-11.5 -13.333 -11.5 -24c0 -12 4 -21.5 12 -28.5s16 -13.167 24 -18.5zM98.001 427l-0.00390625 -172.005c0 -44 -0.833008 -87.167 -2.5 -129.5
s-3.5 -84.833 -5.5 -127.5c30.667 1.33301 61 2 91 2h91h90.5c29.667 0 59.5 -0.666992 89.5 -2c-2 6.66699 -3 15.334 -3 26.001c0 4.66699 0.166992 9.83398 0.5 15.501c0.34668 5.66699 1.17969 10.834 2.49902 15.501c-16 -3.33301 -34.833 -5.83301 -56.5 -7.5
s-44.667 -3 -69 -4s-49.166 -1.5 -74.499 -1.5h-70c-0.666992 12.667 -1.16699 31.334 -1.5 56.001s-0.5 56 -0.5 94v60v39c0 10.667 0.166992 19.5 0.5 26.5s0.5 13.5 0.5 19.5c12 0 28.167 -0.166992 48.5 -0.5s42 -0.666016 65 -0.999023s46 -1.16602 69 -2.49902
s43.167 -3 60.5 -5c-2 10 -3 20 -3 30c0 10.667 1 21 3 31c-14.667 -1.33301 -30.167 -2.5 -46.5 -3.5s-34.166 -2 -53.499 -3s-40.666 -1.83301 -63.999 -2.5s-49.666 -1 -78.999 -1c0 12.667 -0.166992 31.334 -0.5 56.001s-0.5 50 -0.5 76c0 24.667 0.5 46.667 1.5 66
s1.83301 39.666 2.5 60.999c32.667 0 60.667 -0.5 84 -1.5s44.833 -2.16699 64.5 -3.5c19.667 -1.35254 38.334 -2.68555 56.001 -4c17.667 -1.35254 37.167 -2.68555 58.5 -4c-2 10 -3 20 -3 30s1 20 3 30c-30 -1.33301 -59.667 -2.5 -89 -3.5s-59 -1.5 -89 -1.5
s-59.833 0.5 -89.5 1.5s-59.5 2.16699 -89.5 3.5c2 -42.667 3.83301 -85.334 5.5 -128.001s2.5 -86 2.5 -130z" />
    <glyph glyph-name="Eacute" unicode="&#xc9;" horiz-adv-x="500" 
d="M345 880l-147 -149h42l147 94c8 5.33301 16 11.5 24 18.5s12 16.5 12 28.5c0 10.667 -3.83301 18.667 -11.5 24s-14.834 8 -21.5 8c-14 0 -29 -8 -45 -24zM98 427l-0.00390625 -172.005c0 -44 -0.833008 -87.167 -2.5 -129.5s-3.5 -84.833 -5.5 -127.5
c30.667 1.33301 61 2 91 2h91h90.5c29.667 0 59.5 -0.666992 89.5 -2c-2 6.66699 -3 15.334 -3 26.001c0 4.66699 0.166992 9.83398 0.5 15.501c0.34668 5.66699 1.17969 10.834 2.49902 15.501c-16 -3.33301 -34.833 -5.83301 -56.5 -7.5s-44.667 -3 -69 -4
s-49.166 -1.5 -74.499 -1.5h-70c-0.666992 12.667 -1.16699 31.334 -1.5 56.001s-0.5 56 -0.5 94v60v39c0 10.667 0.166992 19.5 0.5 26.5s0.5 13.5 0.5 19.5c12 0 28.167 -0.166992 48.5 -0.5s42 -0.666016 65 -0.999023s46 -1.16602 69 -2.49902s43.167 -3 60.5 -5
c-2 10 -3 20 -3 30c0 10.667 1 21 3 31c-14.667 -1.33301 -30.167 -2.5 -46.5 -3.5s-34.166 -2 -53.499 -3s-40.666 -1.83301 -63.999 -2.5s-49.666 -1 -78.999 -1c0 12.667 -0.166992 31.334 -0.5 56.001s-0.5 50 -0.5 76c0 24.667 0.5 46.667 1.5 66
s1.83301 39.666 2.5 60.999c32.667 0 60.667 -0.5 84 -1.5s44.833 -2.16699 64.5 -3.5c19.667 -1.35254 38.334 -2.68555 56.001 -4c17.667 -1.35254 37.167 -2.68555 58.5 -4c-2 10 -3 20 -3 30s1 20 3 30c-30 -1.33301 -59.667 -2.5 -89 -3.5s-59 -1.5 -89 -1.5
s-59.833 0.5 -89.5 1.5s-59.5 2.16699 -89.5 3.5c2 -42.667 3.83301 -85.334 5.5 -128.001s2.5 -86 2.5 -130z" />
    <glyph glyph-name="Ecircumflex" unicode="&#xca;" horiz-adv-x="500" 
d="M266 836l120 -105h37l-123 167h-67l-123 -167h37zM98 427l-0.00390625 -172.005c0 -44 -0.833008 -87.167 -2.5 -129.5s-3.5 -84.833 -5.5 -127.5c30.667 1.33301 61 2 91 2h91h90.5c29.667 0 59.5 -0.666992 89.5 -2c-2 6.66699 -3 15.334 -3 26.001
c0 4.66699 0.166992 9.83398 0.5 15.501c0.34668 5.66699 1.17969 10.834 2.49902 15.501c-16 -3.33301 -34.833 -5.83301 -56.5 -7.5s-44.667 -3 -69 -4s-49.166 -1.5 -74.499 -1.5h-70c-0.666992 12.667 -1.16699 31.334 -1.5 56.001s-0.5 56 -0.5 94v60v39
c0 10.667 0.166992 19.5 0.5 26.5s0.5 13.5 0.5 19.5c12 0 28.167 -0.166992 48.5 -0.5s42 -0.666016 65 -0.999023s46 -1.16602 69 -2.49902s43.167 -3 60.5 -5c-2 10 -3 20 -3 30c0 10.667 1 21 3 31c-14.667 -1.33301 -30.167 -2.5 -46.5 -3.5s-34.166 -2 -53.499 -3
s-40.666 -1.83301 -63.999 -2.5s-49.666 -1 -78.999 -1c0 12.667 -0.166992 31.334 -0.5 56.001s-0.5 50 -0.5 76c0 24.667 0.5 46.667 1.5 66s1.83301 39.666 2.5 60.999c32.667 0 60.667 -0.5 84 -1.5s44.833 -2.16699 64.5 -3.5
c19.667 -1.35254 38.334 -2.68555 56.001 -4c17.667 -1.35254 37.167 -2.68555 58.5 -4c-2 10 -3 20 -3 30s1 20 3 30c-30 -1.33301 -59.667 -2.5 -89 -3.5s-59 -1.5 -89 -1.5s-59.833 0.5 -89.5 1.5s-59.5 2.16699 -89.5 3.5c2 -42.667 3.83301 -85.334 5.5 -128.001
s2.5 -86 2.5 -130z" />
    <glyph glyph-name="Edieresis" unicode="&#xcb;" horiz-adv-x="500" 
d="M117 809c0 -14 5 -26 15 -36s22 -15 36 -15s26 5 36 15s15 22 15 36s-5 26 -15 36s-22 15 -36 15s-26 -5 -36 -15s-15 -22 -15 -36zM314 809c0 -14 5 -26 15 -36s22 -15 36 -15s26 5 36 15s15 22 15 36s-5 26 -15 36s-22 15 -36 15s-26 -5 -36 -15s-15 -22 -15 -36z
M98 427l-0.00390625 -172.005c0 -44 -0.833008 -87.167 -2.5 -129.5s-3.5 -84.833 -5.5 -127.5c30.667 1.33301 61 2 91 2h91h90.5c29.667 0 59.5 -0.666992 89.5 -2c-2 6.66699 -3 15.334 -3 26.001c0 4.66699 0.166992 9.83398 0.5 15.501
c0.34668 5.66699 1.17969 10.834 2.49902 15.501c-16 -3.33301 -34.833 -5.83301 -56.5 -7.5s-44.667 -3 -69 -4s-49.166 -1.5 -74.499 -1.5h-70c-0.666992 12.667 -1.16699 31.334 -1.5 56.001s-0.5 56 -0.5 94v60v39c0 10.667 0.166992 19.5 0.5 26.5s0.5 13.5 0.5 19.5
c12 0 28.167 -0.166992 48.5 -0.5s42 -0.666016 65 -0.999023s46 -1.16602 69 -2.49902s43.167 -3 60.5 -5c-2 10 -3 20 -3 30c0 10.667 1 21 3 31c-14.667 -1.33301 -30.167 -2.5 -46.5 -3.5s-34.166 -2 -53.499 -3s-40.666 -1.83301 -63.999 -2.5s-49.666 -1 -78.999 -1
c0 12.667 -0.166992 31.334 -0.5 56.001s-0.5 50 -0.5 76c0 24.667 0.5 46.667 1.5 66s1.83301 39.666 2.5 60.999c32.667 0 60.667 -0.5 84 -1.5s44.833 -2.16699 64.5 -3.5c19.667 -1.35254 38.334 -2.68555 56.001 -4c17.667 -1.35254 37.167 -2.68555 58.5 -4
c-2 10 -3 20 -3 30s1 20 3 30c-30 -1.33301 -59.667 -2.5 -89 -3.5s-59 -1.5 -89 -1.5s-59.833 0.5 -89.5 1.5s-59.5 2.16699 -89.5 3.5c2 -42.667 3.83301 -85.334 5.5 -128.001s2.5 -86 2.5 -130z" />
    <glyph glyph-name="Igrave" unicode="&#xcc;" horiz-adv-x="278" 
d="M19 825l147.001 -94h42l-147 149c-16 16 -31 24 -45 24c-6.66699 0 -13.334 -2.66699 -20.001 -8s-10 -13.333 -10 -24c0 -12 3.5 -21.5 10.5 -28.5s14.5 -13.167 22.5 -18.5zM98.001 426l0.00195312 -171.999c0 -44 -0.833008 -87.333 -2.5 -130s-3.5 -84.667 -5.5 -126
c15.333 1.33301 31.666 2 48.999 2s33.666 -0.666992 48.999 -2c-2 41.333 -3.83301 83.333 -5.5 126s-2.5 86 -2.5 130v172c0 44 0.833008 87.167 2.5 129.5s3.5 85.5 5.5 129.5c-8.66699 -1.33301 -17 -2.5 -25 -3.5s-16 -1.5 -24 -1.5s-16 0.5 -24 1.5
s-16.333 2.16699 -25 3.5c2 -44 3.83301 -87.167 5.5 -129.5c1.66699 -42.334 2.5 -85.501 2.5 -129.501z" />
    <glyph glyph-name="Iacute" unicode="&#xcd;" horiz-adv-x="278" 
d="M218 880l-146.999 -149h42l147 94c8 5.33301 16 11.5 24 18.5s12 16.5 12 28.5c0 10.667 -3.83301 18.667 -11.5 24c-7.66797 5.33301 -14.835 8 -21.501 8c-14 0 -29 -8 -45 -24zM98.001 426l0.00195312 -171.999c0 -44 -0.833008 -87.333 -2.5 -130
s-3.5 -84.667 -5.5 -126c15.333 1.33301 31.666 2 48.999 2s33.666 -0.666992 48.999 -2c-2 41.333 -3.83301 83.333 -5.5 126s-2.5 86 -2.5 130v172c0 44 0.833008 87.167 2.5 129.5s3.5 85.5 5.5 129.5c-8.66699 -1.33301 -17 -2.5 -25 -3.5s-16 -1.5 -24 -1.5
s-16 0.5 -24 1.5s-16.333 2.16699 -25 3.5c2 -44 3.83301 -87.167 5.5 -129.5c1.66699 -42.334 2.5 -85.501 2.5 -129.501z" />
    <glyph glyph-name="Icircumflex" unicode="&#xce;" horiz-adv-x="278" 
d="M139 836l120 -105h37l-123 167h-67l-120 -167h34zM98 426l0.00195312 -171.999c0 -44 -0.833008 -87.333 -2.5 -130s-3.5 -84.667 -5.5 -126c15.333 1.33301 31.666 2 48.999 2s33.666 -0.666992 48.999 -2c-2 41.333 -3.83301 83.333 -5.5 126s-2.5 86 -2.5 130v172
c0 44 0.833008 87.167 2.5 129.5s3.5 85.5 5.5 129.5c-8.66699 -1.33301 -17 -2.5 -25 -3.5s-16 -1.5 -24 -1.5s-16 0.5 -24 1.5s-16.333 2.16699 -25 3.5c2 -44 3.83301 -87.167 5.5 -129.5c1.66699 -42.334 2.5 -85.501 2.5 -129.501z" />
    <glyph glyph-name="Idieresis" unicode="&#xcf;" horiz-adv-x="278" 
d="M-7 809c0 -14 4.5 -26 13.5 -36s20.5 -15 34.5 -15s26 5 36 15s15 22 15 36s-5 26 -15 36s-22 15 -36 15s-25.5 -5 -34.5 -15s-13.5 -22 -13.5 -36zM187 809c0 -14 5 -26 15 -36s22 -15 36 -15s26 5 36 15s15 22 15 36s-5 26 -15 36s-22 15 -36 15s-26 -5 -36 -15
s-15 -22 -15 -36zM98 426l0.00195312 -171.999c0 -44 -0.833008 -87.333 -2.5 -130s-3.5 -84.667 -5.5 -126c15.333 1.33301 31.666 2 48.999 2s33.666 -0.666992 48.999 -2c-2 41.333 -3.83301 83.333 -5.5 126s-2.5 86 -2.5 130v172c0 44 0.833008 87.167 2.5 129.5
s3.5 85.5 5.5 129.5c-8.66699 -1.33301 -17 -2.5 -25 -3.5s-16 -1.5 -24 -1.5s-16 0.5 -24 1.5s-16.333 2.16699 -25 3.5c2 -44 3.83301 -87.167 5.5 -129.5c1.66699 -42.334 2.5 -85.501 2.5 -129.501z" />
    <glyph glyph-name="Eth" unicode="&#xd0;" horiz-adv-x="778" 
d="M98 426l0.000976562 -24.001h-47c-7.33301 0 -15.333 0.166992 -24 0.5s-17.667 0.833008 -27 1.5c0.666992 -3.33301 1.16699 -6.66602 1.5 -9.99902s0.5 -6.66602 0.5 -9.99902s-0.166992 -6.83301 -0.5 -10.5s-0.833008 -7.16699 -1.5 -10.5
c9.33301 0.666992 18.333 1.16699 27 1.5s16.667 0.5 24 0.5h47v-111c0 -44 -0.833008 -87.333 -2.5 -130s-3.5 -84.667 -5.5 -126c22.667 1.33301 45 2 67 2h67c22.667 0 45 -0.333008 67 -1s44.333 -1 67 -1c39.333 0 80.5 5.83301 123.5 17.5s82.333 31.5 118 59.5
s65 64.833 88 110.5s34.5 101.834 34.5 168.501c0 51.333 -6.16699 97.5 -18.5 138.5s-31.833 75.667 -58.5 104s-60.834 50.166 -102.501 65.499s-91.834 23 -150.5 23c-25.333 0 -50.5 -0.833008 -75.5 -2.5s-50.167 -2.5 -75.5 -2.5s-50.5 0.5 -75.5 1.5
s-50.167 2.16699 -75.5 3.5c2 -44 3.83301 -87.167 5.5 -129.5c1.66699 -42.334 2.5 -85.501 2.5 -129.501zM180.001 253.999l-0.000976562 110.999c32 0 64.333 -0.333008 97 -1s64.334 -1.66699 95.001 -3c-2 8 -3 15.667 -3 23s1 14.333 3 21
c-30.667 -1.33301 -62.334 -2.16602 -95 -2.49902c-32.667 -0.333008 -65 -0.5 -97 -0.5v24c0 36 0.5 71.5 1.5 106.5s2.5 68.5 4.5 100.5c20.667 2.66699 44 5 70 7s54 3 84 3c41.333 0 79.333 -4.16699 114 -12.5s64.5 -23.333 89.5 -45s44.667 -51.167 59 -88.5
s21.5 -85 21.5 -143c0 -66 -9.16699 -119.833 -27.5 -161.5s-42 -74.5 -71 -98.5s-61.833 -40.333 -98.5 -49s-73.334 -13 -110 -13c-25.333 0 -50 0.833008 -74 2.5s-43 4.16699 -57 7.5c-4 69.333 -6 140 -6 212z" />
    <glyph glyph-name="Ntilde" unicode="&#xd1;" horiz-adv-x="778" 
d="M241 756h29.999c6 17.333 12.5 29.333 19.5 36s18.167 10 33.5 10c8 0 16.5 -1.5 25.5 -4.5s22.167 -9.16699 39.5 -18.5c15.333 -8.66699 28.833 -14.667 40.5 -18s22.167 -5 31.5 -5c20 0 36.667 4 50 12s24.166 17.833 32.499 29.5s14.5 23.5 18.5 35.5
s6.66699 22 8 30h-29c-4 -13.333 -10.667 -25 -20 -35s-21.666 -15 -36.999 -15c-8.66699 0 -17.167 1.5 -25.5 4.5s-21.833 9.16699 -40.5 18.5c-18.667 8.66699 -32.667 14.667 -42 18s-19.666 5 -30.999 5c-16 0 -30 -3.16699 -42 -9.5s-22.333 -14.5 -31 -24.5
s-15.5 -21 -20.5 -33s-8.5 -24 -10.5 -36zM660.999 -15l14 -0.00292969v33c0 16 -0.166992 34.833 -0.5 56.5c-0.34375 21.667 -0.676758 45 -1 70c-0.353516 25 -0.686523 49.833 -0.999023 74.5c-0.333008 24.667 -0.5 48.334 -0.5 71.001v60c0 19.333 0.666992 45 2 77
s2.83301 64.667 4.5 98c1.6875 33.333 3.35449 64.666 5 93.999c1.66699 29.333 3.16699 51.333 4.5 66c-13.333 -3.33301 -24 -5 -32 -5c-9.33398 0 -20.667 1.66699 -34 5c3.33301 -58.667 5.5 -121.167 6.5 -187.5s1.5 -134.5 1.5 -204.5v-136
c-30.667 30.667 -66.5 67.834 -107.5 111.501s-84.333 90 -130 139s-91.667 98.667 -138 149s-89.833 97.5 -130.5 141.5h-16c1.33496 -22.667 2.16797 -57 2.5 -103c0.333008 -46 0.5 -101 0.5 -165c0 -22 -0.333008 -47 -1 -75s-1.5 -56.667 -2.5 -86
s-2.33301 -58.666 -4 -87.999s-3.16699 -56.5 -4.5 -81.5s-2.83301 -46.5 -4.5 -64.5s-3.16699 -30.333 -4.5 -37c11.333 1.33301 23.666 2 36.999 2c12.667 0 24.334 -0.666992 35.001 -2c-0.666992 5.33301 -1.33398 15.5 -2.00098 30.5s-1.33398 32.5 -2.00098 52.5
s-1.33398 41.667 -2.00098 65s-1.16699 46.333 -1.5 69c-0.333984 22.667 -0.666992 44.334 -1 65.001s-0.5 38 -0.5 52c0 54 0.333008 96.667 1 128c0.667969 31.334 1.33496 56.334 2 75c86.667 -92 173.334 -184.5 260.001 -277.5s168.334 -183.833 245.001 -272.5z" />
    <glyph glyph-name="Ograve" unicode="&#xd2;" horiz-adv-x="833" 
d="M296 825l147.001 -94h42l-147 149c-16 16 -31 24 -45 24c-6.66797 0 -13.835 -2.66699 -21.501 -8c-7.66699 -5.33301 -11.5 -13.333 -11.5 -24c0 -12 4 -21.5 12 -28.5s16 -13.167 24 -18.5zM42.001 340c0 -56.667 9.16699 -107.167 27.5 -151.5s44 -81.833 77 -112.5
s72.5 -53.5 118.5 -68.5s96.333 -22.5 151 -22.5c55.333 0 106 7.5 152 22.5s85.5 37.833 118.5 68.5s58.667 68.167 77 112.5s27.5 94.833 27.5 151.5s-9.16699 107.167 -27.5 151.5s-44 81.833 -77 112.5s-72.5 54 -118.5 70s-96.667 24 -152 24
c-54.667 0 -105 -8 -151 -24s-85.5 -39.333 -118.5 -70s-58.667 -68.167 -77 -112.5s-27.5 -94.833 -27.5 -151.5zM693.001 340c0 -55.333 -7.00098 -103.167 -21.001 -143.5s-33.5 -73.666 -58.5 -99.999s-54.333 -45.833 -88 -58.5s-70.167 -19 -109.5 -19
c-38.667 0 -74.834 6.33301 -108.5 19c-33.667 12.667 -63 32.167 -88 58.5s-44.5 59.666 -58.5 99.999s-21 88.166 -21 143.499c0 55.334 7 103.167 21 143.5s33.5 73.666 58.5 99.999s54.333 45.833 88 58.5s69.834 19 108.501 19c39.333 0 75.833 -6.33301 109.5 -19
s63 -32.167 88 -58.5c25 -26.334 44.5 -59.667 58.5 -99.999c14 -40.333 21 -88.166 21 -143.499z" />
    <glyph glyph-name="Oacute" unicode="&#xd3;" horiz-adv-x="833" 
d="M495 880l-146.999 -149h42l147 94c8 5.33301 16 11.5 24 18.5s12 16.5 12 28.5c0 10.667 -3.83301 18.667 -11.5 24s-14.834 8 -21.501 8c-14 0 -29 -8 -45 -24zM42.001 340c0 -56.667 9.16699 -107.167 27.5 -151.5s44 -81.833 77 -112.5s72.5 -53.5 118.5 -68.5
s96.333 -22.5 151 -22.5c55.333 0 106 7.5 152 22.5s85.5 37.833 118.5 68.5s58.667 68.167 77 112.5s27.5 94.833 27.5 151.5s-9.16699 107.167 -27.5 151.5s-44 81.833 -77 112.5s-72.5 54 -118.5 70s-96.667 24 -152 24c-54.667 0 -105 -8 -151 -24
s-85.5 -39.333 -118.5 -70s-58.667 -68.167 -77 -112.5s-27.5 -94.833 -27.5 -151.5zM693.001 340c0 -55.333 -7.00098 -103.167 -21.001 -143.5s-33.5 -73.666 -58.5 -99.999s-54.333 -45.833 -88 -58.5s-70.167 -19 -109.5 -19c-38.667 0 -74.834 6.33301 -108.5 19
c-33.667 12.667 -63 32.167 -88 58.5s-44.5 59.666 -58.5 99.999s-21 88.166 -21 143.499c0 55.334 7 103.167 21 143.5s33.5 73.666 58.5 99.999s54.333 45.833 88 58.5s69.834 19 108.501 19c39.333 0 75.833 -6.33301 109.5 -19s63 -32.167 88 -58.5
c25 -26.334 44.5 -59.667 58.5 -99.999c14 -40.333 21 -88.166 21 -143.499z" />
    <glyph glyph-name="Ocircumflex" unicode="&#xd4;" horiz-adv-x="833" 
d="M416 836l120 -105h37l-123 167h-67l-123 -167h37zM42 340c0 -56.667 9.16699 -107.167 27.5 -151.5s44 -81.833 77 -112.5s72.5 -53.5 118.5 -68.5s96.333 -22.5 151 -22.5c55.333 0 106 7.5 152 22.5s85.5 37.833 118.5 68.5s58.667 68.167 77 112.5
s27.5 94.833 27.5 151.5s-9.16699 107.167 -27.5 151.5s-44 81.833 -77 112.5s-72.5 54 -118.5 70s-96.667 24 -152 24c-54.667 0 -105 -8 -151 -24s-85.5 -39.333 -118.5 -70s-58.667 -68.167 -77 -112.5s-27.5 -94.833 -27.5 -151.5zM693 340
c0 -55.333 -7.00098 -103.167 -21.001 -143.5s-33.5 -73.666 -58.5 -99.999s-54.333 -45.833 -88 -58.5s-70.167 -19 -109.5 -19c-38.667 0 -74.834 6.33301 -108.5 19c-33.667 12.667 -63 32.167 -88 58.5s-44.5 59.666 -58.5 99.999s-21 88.166 -21 143.499
c0 55.334 7 103.167 21 143.5s33.5 73.666 58.5 99.999s54.333 45.833 88 58.5s69.834 19 108.501 19c39.333 0 75.833 -6.33301 109.5 -19s63 -32.167 88 -58.5c25 -26.334 44.5 -59.667 58.5 -99.999c14 -40.333 21 -88.166 21 -143.499z" />
    <glyph glyph-name="Otilde" unicode="&#xd5;" horiz-adv-x="833" 
d="M252 756h29.999c6 17.333 12.5 29.333 19.5 36s18.167 10 33.5 10c8 0 16.5 -1.5 25.5 -4.5s22.167 -9.16699 39.5 -18.5c15.333 -8.66699 28.833 -14.667 40.5 -18s22.167 -5 31.5 -5c20 0 36.667 4 50 12s24.166 17.833 32.499 29.5s14.5 23.5 18.5 35.5
s6.66699 22 8 30h-29c-4 -13.333 -10.667 -25 -20 -35s-21.666 -15 -36.999 -15c-8.66699 0 -17.167 1.5 -25.5 4.5s-21.833 9.16699 -40.5 18.5c-18.667 8.66699 -32.667 14.667 -42 18s-19.666 5 -30.999 5c-16 0 -30 -3.16699 -42 -9.5s-22.333 -14.5 -31 -24.5
s-15.5 -21 -20.5 -33s-8.5 -24 -10.5 -36zM41.999 340c0 -56.667 9.16699 -107.167 27.5 -151.5s44 -81.833 77 -112.5s72.5 -53.5 118.5 -68.5s96.333 -22.5 151 -22.5c55.333 0 106 7.5 152 22.5s85.5 37.833 118.5 68.5s58.667 68.167 77 112.5s27.5 94.833 27.5 151.5
s-9.16699 107.167 -27.5 151.5s-44 81.833 -77 112.5s-72.5 54 -118.5 70s-96.667 24 -152 24c-54.667 0 -105 -8 -151 -24s-85.5 -39.333 -118.5 -70s-58.667 -68.167 -77 -112.5s-27.5 -94.833 -27.5 -151.5zM692.999 340c0 -55.333 -7.00098 -103.167 -21.001 -143.5
s-33.5 -73.666 -58.5 -99.999s-54.333 -45.833 -88 -58.5s-70.167 -19 -109.5 -19c-38.667 0 -74.834 6.33301 -108.5 19c-33.667 12.667 -63 32.167 -88 58.5s-44.5 59.666 -58.5 99.999s-21 88.166 -21 143.499c0 55.334 7 103.167 21 143.5s33.5 73.666 58.5 99.999
s54.333 45.833 88 58.5s69.834 19 108.501 19c39.333 0 75.833 -6.33301 109.5 -19s63 -32.167 88 -58.5c25 -26.334 44.5 -59.667 58.5 -99.999c14 -40.333 21 -88.166 21 -143.499z" />
    <glyph glyph-name="Odieresis" unicode="&#xd6;" horiz-adv-x="833" 
d="M267 809c0 -14 5 -26 15 -36s22 -15 36 -15s26 5 36 15s15 22 15 36s-5 26 -15 36s-22 15 -36 15s-26 -5 -36 -15s-15 -22 -15 -36zM464 809c0 -14 5 -26 15 -36s22 -15 36 -15s26 5 36 15s15 22 15 36s-5 26 -15 36s-22 15 -36 15s-26 -5 -36 -15s-15 -22 -15 -36z
M42 340c0 -56.667 9.16699 -107.167 27.5 -151.5s44 -81.833 77 -112.5s72.5 -53.5 118.5 -68.5s96.333 -22.5 151 -22.5c55.333 0 106 7.5 152 22.5s85.5 37.833 118.5 68.5s58.667 68.167 77 112.5s27.5 94.833 27.5 151.5s-9.16699 107.167 -27.5 151.5
s-44 81.833 -77 112.5s-72.5 54 -118.5 70s-96.667 24 -152 24c-54.667 0 -105 -8 -151 -24s-85.5 -39.333 -118.5 -70s-58.667 -68.167 -77 -112.5s-27.5 -94.833 -27.5 -151.5zM693 340c0 -55.333 -7.00098 -103.167 -21.001 -143.5s-33.5 -73.666 -58.5 -99.999
s-54.333 -45.833 -88 -58.5s-70.167 -19 -109.5 -19c-38.667 0 -74.834 6.33301 -108.5 19c-33.667 12.667 -63 32.167 -88 58.5s-44.5 59.666 -58.5 99.999s-21 88.166 -21 143.499c0 55.334 7 103.167 21 143.5s33.5 73.666 58.5 99.999s54.333 45.833 88 58.5
s69.834 19 108.501 19c39.333 0 75.833 -6.33301 109.5 -19s63 -32.167 88 -58.5c25 -26.334 44.5 -59.667 58.5 -99.999c14 -40.333 21 -88.166 21 -143.499z" />
    <glyph glyph-name="multiply" unicode="&#xd7;" horiz-adv-x="606" 
d="M266 253l-184 -184l37 -37l184 184l185 -184l36 37l-184 184l184 185l-36 36l-185 -184l-184 184l-37 -36z" />
    <glyph glyph-name="Oslash" unicode="&#xd8;" horiz-adv-x="833" 
d="M220 96l413.001 463.998c19.333 -26.667 34.166 -58 44.499 -94s15.5 -78 15.5 -126c0 -55.333 -7 -103.166 -21 -143.499s-33.5 -73.666 -58.5 -99.999s-54.333 -45.833 -88 -58.5s-70.167 -19 -109.5 -19c-40 0 -76.5 6.33301 -109.5 19s-61.833 32 -86.5 58z
M42.001 339.998c0 -60.667 10.001 -113.666 30.001 -158.999s48 -83 84 -113c-7.33398 -8 -15.667 -17.333 -25 -28s-18.5 -20.5 -27.5 -29.5l-25 -25c-7.66699 -7.66699 -13.167 -12.834 -16.5 -15.501c11.333 -6.66699 20.666 -14.667 27.999 -24
c3.33301 6 8.5 13.5 15.5 22.5s14.833 18.167 23.5 27.5s17.5 18.833 26.5 28.5s16.833 18.167 23.5 25.5c64 -43.333 143 -65 237 -65c55.333 0 106 7.5 152 22.5s85.5 37.833 118.5 68.5s58.667 68.167 77 112.5s27.5 94.833 27.5 151.5c0 60 -9.83301 112.5 -29.5 157.5
s-47.5 82.833 -83.5 113.5l22.5 25c9 10 18 19.833 27 29.5s17.5 18.5 25.5 26.5s14 13.333 18 16c-10.667 6.66699 -20 14.667 -28 24c-2 -4 -6.5 -10.667 -13.5 -20c-7 -9.33887 -15 -19.1719 -24 -29.5c-9 -10.333 -18 -20.5 -27 -30.5s-16.5 -18 -22.5 -24
c-62.667 46.667 -142.667 70 -240 70c-54.667 0 -105 -8 -151 -24s-85.5 -39.333 -118.5 -70s-58.667 -68.167 -77 -112.5s-27.5 -94.833 -27.5 -151.5zM615.002 581.999l-413.001 -463.999c-19.333 25.333 -34.5 56.5 -45.5 93.5s-16.5 79.833 -16.5 128.5
c0 55.334 7 103.167 21 143.5s33.5 73.666 58.5 99.999s54.333 45.833 88 58.5s69.834 19 108.501 19c40 0 77 -6.16699 111 -18.5s63.333 -32.5 88 -60.5z" />
    <glyph glyph-name="Ugrave" unicode="&#xd9;" horiz-adv-x="778" 
d="M269 825l147.001 -94h42l-147 149c-16 16 -31 24 -45 24c-6.66699 0 -13.834 -2.66699 -21.501 -8s-11.5 -13.333 -11.5 -24c0 -12 4 -21.5 12 -28.5s16 -13.167 24 -18.5zM619.001 360c0 -20.667 -0.329102 -43.333 -0.996094 -67.999
c-0.666992 -24.667 -3 -49.334 -7 -74.001s-10.5 -48.334 -19.5 -71.001s-21.5 -42.667 -37.5 -60s-36.5 -31.333 -61.5 -42s-55.833 -16 -92.5 -16c-37.333 0 -68.666 4.5 -93.999 13.5s-46.333 21.333 -63 37s-29.5 34 -38.5 55s-15.5 43 -19.5 66s-6.33301 46.667 -7 71
s-1 47.833 -1 70.5c0 37.333 0.333008 73.333 1 108s1.66699 67 3 97s2.66602 56.833 3.99902 80.5c1.33301 23.6689 2.66602 42.8359 3.99902 57.5c-7.33301 -1.33301 -14.5 -2.5 -21.5 -3.5s-14.167 -1.5 -21.5 -1.5c-8 0 -16.667 0.5 -26 1.5s-18 2.16699 -26 3.5
c1.33301 -30 2.66602 -66.667 3.99902 -110c1.33301 -43.334 2 -93.001 2 -149.001c0 -25.333 -0.833008 -50.166 -2.5 -74.499s-2.5 -52.166 -2.5 -83.499c0 -98 22.667 -169.667 68 -215s118 -68 218 -68c45.333 0 85.5 6.33301 120.5 19s64.5 31.334 88.5 56.001
s42.5 54.667 55.5 90s19.833 75.333 20.5 120c0.666992 36.667 1.66699 74.5 3 113.5s2.66602 77 3.99902 114s3 71.667 5 104s4 60.166 6 83.499c-11.333 -3.33301 -21.333 -5 -30 -5c-6.66699 0 -13.334 0.5 -20.001 1.5s-13.667 2.16699 -21 3.5
c2.68555 -19.335 4.35254 -54.668 5 -106c0.666992 -51.334 1 -124.334 1 -219z" />
    <glyph glyph-name="Uacute" unicode="&#xda;" horiz-adv-x="778" 
d="M468 880l-146.999 -149h42l147 94c8 5.33301 16 11.5 24 18.5s12 16.5 12 28.5c0 10.667 -3.83301 18.667 -11.5 24s-14.834 8 -21.501 8c-14 0 -29 -8 -45 -24zM619.001 360c0 -20.667 -0.329102 -43.333 -0.996094 -67.999c-0.666992 -24.667 -3 -49.334 -7 -74.001
s-10.5 -48.334 -19.5 -71.001s-21.5 -42.667 -37.5 -60s-36.5 -31.333 -61.5 -42s-55.833 -16 -92.5 -16c-37.333 0 -68.666 4.5 -93.999 13.5s-46.333 21.333 -63 37s-29.5 34 -38.5 55s-15.5 43 -19.5 66s-6.33301 46.667 -7 71s-1 47.833 -1 70.5
c0 37.333 0.333008 73.333 1 108s1.66699 67 3 97s2.66602 56.833 3.99902 80.5c1.33301 23.6689 2.66602 42.8359 3.99902 57.5c-7.33301 -1.33301 -14.5 -2.5 -21.5 -3.5s-14.167 -1.5 -21.5 -1.5c-8 0 -16.667 0.5 -26 1.5s-18 2.16699 -26 3.5
c1.33301 -30 2.66602 -66.667 3.99902 -110c1.33301 -43.334 2 -93.001 2 -149.001c0 -25.333 -0.833008 -50.166 -2.5 -74.499s-2.5 -52.166 -2.5 -83.499c0 -98 22.667 -169.667 68 -215s118 -68 218 -68c45.333 0 85.5 6.33301 120.5 19s64.5 31.334 88.5 56.001
s42.5 54.667 55.5 90s19.833 75.333 20.5 120c0.666992 36.667 1.66699 74.5 3 113.5s2.66602 77 3.99902 114s3 71.667 5 104s4 60.166 6 83.499c-11.333 -3.33301 -21.333 -5 -30 -5c-6.66699 0 -13.334 0.5 -20.001 1.5s-13.667 2.16699 -21 3.5
c2.68555 -19.335 4.35254 -54.668 5 -106c0.666992 -51.334 1 -124.334 1 -219z" />
    <glyph glyph-name="Ucircumflex" unicode="&#xdb;" horiz-adv-x="778" 
d="M389 836l120 -105h37l-123 167h-67l-123 -167h37zM619 360c0 -20.667 -0.329102 -43.333 -0.996094 -67.999c-0.666992 -24.667 -3 -49.334 -7 -74.001s-10.5 -48.334 -19.5 -71.001s-21.5 -42.667 -37.5 -60s-36.5 -31.333 -61.5 -42s-55.833 -16 -92.5 -16
c-37.333 0 -68.666 4.5 -93.999 13.5s-46.333 21.333 -63 37s-29.5 34 -38.5 55s-15.5 43 -19.5 66s-6.33301 46.667 -7 71s-1 47.833 -1 70.5c0 37.333 0.333008 73.333 1 108s1.66699 67 3 97s2.66602 56.833 3.99902 80.5c1.33301 23.6689 2.66602 42.8359 3.99902 57.5
c-7.33301 -1.33301 -14.5 -2.5 -21.5 -3.5s-14.167 -1.5 -21.5 -1.5c-8 0 -16.667 0.5 -26 1.5s-18 2.16699 -26 3.5c1.33301 -30 2.66602 -66.667 3.99902 -110c1.33301 -43.334 2 -93.001 2 -149.001c0 -25.333 -0.833008 -50.166 -2.5 -74.499s-2.5 -52.166 -2.5 -83.499
c0 -98 22.667 -169.667 68 -215s118 -68 218 -68c45.333 0 85.5 6.33301 120.5 19s64.5 31.334 88.5 56.001s42.5 54.667 55.5 90s19.833 75.333 20.5 120c0.666992 36.667 1.66699 74.5 3 113.5s2.66602 77 3.99902 114s3 71.667 5 104s4 60.166 6 83.499
c-11.333 -3.33301 -21.333 -5 -30 -5c-6.66699 0 -13.334 0.5 -20.001 1.5s-13.667 2.16699 -21 3.5c2.68555 -19.335 4.35254 -54.668 5 -106c0.666992 -51.334 1 -124.334 1 -219z" />
    <glyph glyph-name="Udieresis" unicode="&#xdc;" horiz-adv-x="778" 
d="M240 809c0 -14 5 -26 15 -36s22 -15 36 -15s26 5 36 15s15 22 15 36s-5 26 -15 36s-22 15 -36 15s-26 -5 -36 -15s-15 -22 -15 -36zM437 809c0 -14 5 -26 15 -36s22 -15 36 -15s26 5 36 15s15 22 15 36s-5 26 -15 36s-22 15 -36 15s-26 -5 -36 -15s-15 -22 -15 -36z
M619 360c0 -20.667 -0.329102 -43.333 -0.996094 -67.999c-0.666992 -24.667 -3 -49.334 -7 -74.001s-10.5 -48.334 -19.5 -71.001s-21.5 -42.667 -37.5 -60s-36.5 -31.333 -61.5 -42s-55.833 -16 -92.5 -16c-37.333 0 -68.666 4.5 -93.999 13.5s-46.333 21.333 -63 37
s-29.5 34 -38.5 55s-15.5 43 -19.5 66s-6.33301 46.667 -7 71s-1 47.833 -1 70.5c0 37.333 0.333008 73.333 1 108s1.66699 67 3 97s2.66602 56.833 3.99902 80.5c1.33301 23.6689 2.66602 42.8359 3.99902 57.5c-7.33301 -1.33301 -14.5 -2.5 -21.5 -3.5
s-14.167 -1.5 -21.5 -1.5c-8 0 -16.667 0.5 -26 1.5s-18 2.16699 -26 3.5c1.33301 -30 2.66602 -66.667 3.99902 -110c1.33301 -43.334 2 -93.001 2 -149.001c0 -25.333 -0.833008 -50.166 -2.5 -74.499s-2.5 -52.166 -2.5 -83.499c0 -98 22.667 -169.667 68 -215
s118 -68 218 -68c45.333 0 85.5 6.33301 120.5 19s64.5 31.334 88.5 56.001s42.5 54.667 55.5 90s19.833 75.333 20.5 120c0.666992 36.667 1.66699 74.5 3 113.5s2.66602 77 3.99902 114s3 71.667 5 104s4 60.166 6 83.499c-11.333 -3.33301 -21.333 -5 -30 -5
c-6.66699 0 -13.334 0.5 -20.001 1.5s-13.667 2.16699 -21 3.5c2.68555 -19.335 4.35254 -54.668 5 -106c0.666992 -51.334 1 -124.334 1 -219z" />
    <glyph glyph-name="Yacute" unicode="&#xdd;" horiz-adv-x="611" 
d="M384 870l-147 -149h42l147 94c8 5.33301 16 11.5 24 18.5s12 16.5 12 28.5c0 10.667 -3.83301 18.667 -11.5 24c-7.66797 5.33301 -14.835 8 -21.5 8c-14 0 -29 -8 -45 -24zM265 279c0 -54 -0.336914 -105.668 -1.00391 -155.001s-3 -91.333 -7 -126
c15.334 1.33301 31.667 2 49 2c17.334 0 33.667 -0.666992 49 -2c-1.33301 14 -2.5 32.5 -3.5 55.5s-1.83301 48 -2.5 75s-1.16699 54.5 -1.5 82.5s-0.5 54.333 -0.5 79c10.667 20.667 23.334 43.834 38.001 69.501s31.667 54.5 51 86.5c19.334 32 41.667 67.667 67 107
s54 83.333 86 132c-16.667 -3.33301 -29.667 -5 -39 -5s-22.333 1.66699 -39 5c-13.333 -28.667 -27.666 -58.167 -42.999 -88.5s-31.333 -60.5 -48 -90.5s-33.334 -59.333 -50 -88c-16.667 -28.667 -32.667 -55 -48 -79c-34.667 60.667 -67.5 119 -98.5 175
s-61.5 113 -91.5 171c-9.33301 -1.33301 -18.5 -2.5 -27.5 -3.5s-18.167 -1.5 -27.5 -1.5s-18.5 0.5 -27.5 1.5s-18.167 2.16699 -27.5 3.5c6.66699 -10.667 16.334 -26.5 29.001 -47.5s26.834 -44.667 42.501 -71s32.167 -54 49.5 -83s33.833 -56.667 49.5 -83
s30 -50.333 43 -72s22.833 -38.167 29.5 -49.5z" />
    <glyph glyph-name="Thorn" unicode="&#xde;" 
d="M98 426l0.00195312 -171.999c0 -44 -0.833008 -87.333 -2.5 -130s-3.5 -84.667 -5.5 -126c15.333 1.33301 31.666 2 48.999 2s33.666 -0.666992 48.999 -2c-1.33301 4 -2.5 11.167 -3.5 21.5s-1.83301 22 -2.5 35s-1.16699 26.833 -1.5 41.5s-0.5 29 -0.5 43v56
c14 -1.33301 28.5 -2.33301 43.5 -3s31.5 -1 49.5 -1c29.334 0 58.667 3 88 9c29.334 6 55.667 16.167 79 30.5s42.333 33.666 57 57.999s22 54.833 22 91.5c0 60.667 -19 104.834 -57 132.501s-91 41.5 -159 41.5h-123c0 22 0.833008 43.833 2.5 65.5s3.5 43.5 5.5 65.5
c-8.66699 -1.33301 -17 -2.5 -25 -3.5s-16 -1.5 -24 -1.5s-16 0.5 -24 1.5s-16.333 2.16699 -25 3.5c2 -44 3.83301 -87.167 5.5 -129.5c1.66699 -42.334 2.5 -85.501 2.5 -129.501zM180.002 232.001l-0.000976562 284.999h89c29.334 0 54.167 -4 74.5 -12
c20.334 -8 36.667 -18.5 49 -31.5c12.335 -13 21.168 -27.667 26.5 -44c5.33301 -16.333 8 -33.166 8 -50.499c0 -26 -4.83301 -48.5 -14.5 -67.5c-9.66797 -19 -22.335 -34.667 -38 -47c-15.667 -12.333 -33.667 -21.5 -54 -27.5s-41.166 -9 -62.499 -9
c-15.334 0 -30.167 0.333008 -44.5 1s-25.5 1.66699 -33.5 3z" />
    <glyph glyph-name="germandbls" unicode="&#xdf;" 
d="M87 406l-0.000976562 -123.002c0 -22.667 -0.166992 -47.334 -0.5 -74.001s-0.833008 -53 -1.5 -79s-1.5 -50.667 -2.5 -74s-2.16699 -42.666 -3.5 -57.999c15.333 1.33301 30.333 2 45 2s29.667 -0.666992 45 -2c-1.33301 15.333 -2.5 34.666 -3.5 57.999
s-1.83301 48 -2.5 74s-1.16699 52.333 -1.5 79s-0.5 51.334 -0.5 74.001v235c0 66.667 8.66699 117.5 26 152.5s49 52.5 95 52.5c32 0 56.5 -8.83301 73.5 -26.5s25.5 -39.834 25.5 -66.501s-7 -50.5 -21 -71.5s-29.333 -40.833 -46 -59.5s-32 -36.667 -46 -54
s-21 -35.666 -21 -54.999c0 -18.667 5.16699 -35.167 15.5 -49.5s23.5 -27.666 39.5 -39.999s33 -24.333 51 -36s35 -24 51 -37s29.167 -27.5 39.5 -43.5s15.5 -34.667 15.5 -56c0 -16 -3 -30.667 -9 -44s-14 -24.5 -24 -33.5s-21.5 -16 -34.5 -21s-26.5 -7.5 -40.5 -7.5
c-20.667 0 -40.167 4.5 -58.5 13.5s-31.166 19.5 -38.499 31.5h-5c-1.33301 -9.33301 -3.5 -19.666 -6.5 -30.999s-6.83301 -20.666 -11.5 -27.999c11.333 -5.33301 25.5 -10 42.5 -14s36.167 -6 57.5 -6c26 0 50.833 5.16699 74.5 15.5s44.5 24.5 62.5 42.5
s32.333 38 43 60s16 44 16 66c0 23.333 -5.16699 43.666 -15.5 60.999s-23.5 32.833 -39.5 46.5s-33 26 -51 37s-35 22 -51 33s-29.167 22.5 -39.5 34.5s-15.5 25.667 -15.5 41s6.16699 30.333 18.5 45s25.833 30.5 40.5 47.5s28.167 35.5 40.5 55.5s18.5 43 18.5 69
c0 17.333 -4.66699 32.833 -14 46.5s-21.333 25.5 -36 35.5s-30.5 17.667 -47.5 23s-33.167 8 -48.5 8c-22 0 -45 -4.16699 -69 -12.5s-45.833 -21.5 -65.5 -39.5s-36 -41.5 -49 -70.5s-19.5 -64.167 -19.5 -105.5c0 -7.33496 0.5 -21.335 1.5 -42
c1 -20.667 1.5 -47 1.5 -79z" />
    <glyph glyph-name="agrave" unicode="&#xe0;" horiz-adv-x="500" 
d="M130 653l147.001 -94h42l-147 149c-16 16 -31 24 -45 24c-6.66699 0 -13.834 -2.66699 -21.501 -8s-11.5 -13.333 -11.5 -24c0 -12 4 -21.5 12 -28.5s16 -13.167 24 -18.5zM333.001 247l-4 -150c-11.333 -18.667 -27.5 -35 -48.5 -49s-44.167 -21 -69.5 -21
c-22 0 -42 8 -60 24s-27 39.667 -27 71c0 18.667 3.5 34 10.5 46s16.333 22 28 30s25 14.333 40 19s30.167 8.5 45.5 11.5s30.5 5.83301 45.5 8.5s28.167 6 39.5 10zM86.001 425v-52h11c11.333 21.333 28.5 38 51.5 50s47.833 18 74.5 18c20 0 37 -3.5 51 -10.5
s25.333 -16.167 34 -27.5s15 -24.666 19 -39.999s6 -31.333 6 -48c0 -10 -1 -18.167 -3 -24.5s-7.83301 -11.833 -17.5 -16.5s-24.667 -9.16699 -45 -13.5s-48.5 -9.5 -84.5 -15.5c-44 -7.33301 -78.5 -22 -103.5 -44s-37.5 -53 -37.5 -93
c0 -19.333 3.83301 -36.5 11.5 -51.5s17.667 -27.833 30 -38.5s26.5 -18.334 42.5 -23.001s32.333 -7 49 -7c34 0 62.667 5.66699 86 17s47 29 71 53c2 -17.333 8.66699 -31.5 20 -42.5c11.334 -11 27.667 -16.5 49 -16.5c13.333 0 25.5 1 36.5 3s20.167 4.66699 27.5 8v22
c-3.33301 -2 -6.83301 -3.16699 -10.5 -3.5s-7.16699 -0.5 -10.5 -0.5c-10 0 -17.5 2.33301 -22.5 7s-8.83301 10.5 -11.5 17.5s-4.16699 15 -4.5 24s-0.5 17.5 -0.5 25.5c0 42 0.666992 81.833 2 119.5s2 75.5 2 113.5c0 22 -4 42.167 -12 60.5s-19 34 -33 47
s-31 23 -51 30s-42 10.5 -66 10.5c-26.667 0 -52.667 -4 -78 -12s-53 -23.333 -83 -46z" />
    <glyph glyph-name="aacute" unicode="&#xe1;" horiz-adv-x="500" 
d="M329 708l-146.999 -149h42l147 94c8 5.33301 16 11.5 24 18.5s12 16.5 12 28.5c0 10.667 -3.83301 18.667 -11.5 24s-14.834 8 -21.501 8c-14 0 -29 -8 -45 -24zM333.001 247l-4 -150c-11.333 -18.667 -27.5 -35 -48.5 -49s-44.167 -21 -69.5 -21c-22 0 -42 8 -60 24
s-27 39.667 -27 71c0 18.667 3.5 34 10.5 46s16.333 22 28 30s25 14.333 40 19s30.167 8.5 45.5 11.5s30.5 5.83301 45.5 8.5s28.167 6 39.5 10zM86.001 425v-52h11c11.333 21.333 28.5 38 51.5 50s47.833 18 74.5 18c20 0 37 -3.5 51 -10.5s25.333 -16.167 34 -27.5
s15 -24.666 19 -39.999s6 -31.333 6 -48c0 -10 -1 -18.167 -3 -24.5s-7.83301 -11.833 -17.5 -16.5s-24.667 -9.16699 -45 -13.5s-48.5 -9.5 -84.5 -15.5c-44 -7.33301 -78.5 -22 -103.5 -44s-37.5 -53 -37.5 -93c0 -19.333 3.83301 -36.5 11.5 -51.5
s17.667 -27.833 30 -38.5s26.5 -18.334 42.5 -23.001s32.333 -7 49 -7c34 0 62.667 5.66699 86 17s47 29 71 53c2 -17.333 8.66699 -31.5 20 -42.5c11.334 -11 27.667 -16.5 49 -16.5c13.333 0 25.5 1 36.5 3s20.167 4.66699 27.5 8v22
c-3.33301 -2 -6.83301 -3.16699 -10.5 -3.5s-7.16699 -0.5 -10.5 -0.5c-10 0 -17.5 2.33301 -22.5 7s-8.83301 10.5 -11.5 17.5s-4.16699 15 -4.5 24s-0.5 17.5 -0.5 25.5c0 42 0.666992 81.833 2 119.5s2 75.5 2 113.5c0 22 -4 42.167 -12 60.5s-19 34 -33 47
s-31 23 -51 30s-42 10.5 -66 10.5c-26.667 0 -52.667 -4 -78 -12s-53 -23.333 -83 -46z" />
    <glyph glyph-name="acircumflex" unicode="&#xe2;" horiz-adv-x="500" 
d="M250 664l120 -105h37l-123 167h-67l-123 -167h37zM333 247l-4 -150c-11.333 -18.667 -27.5 -35 -48.5 -49s-44.167 -21 -69.5 -21c-22 0 -42 8 -60 24s-27 39.667 -27 71c0 18.667 3.5 34 10.5 46s16.333 22 28 30s25 14.333 40 19s30.167 8.5 45.5 11.5
s30.5 5.83301 45.5 8.5s28.167 6 39.5 10zM86 425v-52h11c11.333 21.333 28.5 38 51.5 50s47.833 18 74.5 18c20 0 37 -3.5 51 -10.5s25.333 -16.167 34 -27.5s15 -24.666 19 -39.999s6 -31.333 6 -48c0 -10 -1 -18.167 -3 -24.5s-7.83301 -11.833 -17.5 -16.5
s-24.667 -9.16699 -45 -13.5s-48.5 -9.5 -84.5 -15.5c-44 -7.33301 -78.5 -22 -103.5 -44s-37.5 -53 -37.5 -93c0 -19.333 3.83301 -36.5 11.5 -51.5s17.667 -27.833 30 -38.5s26.5 -18.334 42.5 -23.001s32.333 -7 49 -7c34 0 62.667 5.66699 86 17s47 29 71 53
c2 -17.333 8.66699 -31.5 20 -42.5c11.334 -11 27.667 -16.5 49 -16.5c13.333 0 25.5 1 36.5 3s20.167 4.66699 27.5 8v22c-3.33301 -2 -6.83301 -3.16699 -10.5 -3.5s-7.16699 -0.5 -10.5 -0.5c-10 0 -17.5 2.33301 -22.5 7s-8.83301 10.5 -11.5 17.5s-4.16699 15 -4.5 24
s-0.5 17.5 -0.5 25.5c0 42 0.666992 81.833 2 119.5s2 75.5 2 113.5c0 22 -4 42.167 -12 60.5s-19 34 -33 47s-31 23 -51 30s-42 10.5 -66 10.5c-26.667 0 -52.667 -4 -78 -12s-53 -23.333 -83 -46z" />
    <glyph glyph-name="atilde" unicode="&#xe3;" horiz-adv-x="500" 
d="M86 584h29.999c6 17.333 12.5 29.333 19.5 36s18.167 10 33.5 10c8 0 16.5 -1.5 25.5 -4.5s22.167 -9.16699 39.5 -18.5c15.333 -8.66699 28.833 -14.667 40.5 -18s22.167 -5 31.5 -5c20 0 36.667 4 50 12c13.334 8 24.167 17.833 32.5 29.5s14.5 23.5 18.5 35.5
s6.66699 22 8 30h-29c-4 -13.333 -10.667 -25 -20 -35s-21.666 -15 -36.999 -15c-8.66699 0 -17.167 1.5 -25.5 4.5s-21.833 9.16699 -40.5 18.5c-18.667 8.66699 -32.667 14.667 -42 18c-9.33398 3.33301 -19.667 5 -31 5c-16 0 -30 -3.16699 -42 -9.5
s-22.333 -14.5 -31 -24.5s-15.5 -21 -20.5 -33s-8.5 -24 -10.5 -36zM332.999 247l-4 -150c-11.333 -18.667 -27.5 -35 -48.5 -49s-44.167 -21 -69.5 -21c-22 0 -42 8 -60 24s-27 39.667 -27 71c0 18.667 3.5 34 10.5 46s16.333 22 28 30s25 14.333 40 19
s30.167 8.5 45.5 11.5s30.5 5.83301 45.5 8.5s28.167 6 39.5 10zM85.999 425v-52h11c11.333 21.333 28.5 38 51.5 50s47.833 18 74.5 18c20 0 37 -3.5 51 -10.5s25.333 -16.167 34 -27.5s15 -24.666 19 -39.999s6 -31.333 6 -48c0 -10 -1 -18.167 -3 -24.5
s-7.83301 -11.833 -17.5 -16.5s-24.667 -9.16699 -45 -13.5s-48.5 -9.5 -84.5 -15.5c-44 -7.33301 -78.5 -22 -103.5 -44s-37.5 -53 -37.5 -93c0 -19.333 3.83301 -36.5 11.5 -51.5s17.667 -27.833 30 -38.5s26.5 -18.334 42.5 -23.001s32.333 -7 49 -7
c34 0 62.667 5.66699 86 17s47 29 71 53c2 -17.333 8.66699 -31.5 20 -42.5c11.334 -11 27.667 -16.5 49 -16.5c13.333 0 25.5 1 36.5 3s20.167 4.66699 27.5 8v22c-3.33301 -2 -6.83301 -3.16699 -10.5 -3.5s-7.16699 -0.5 -10.5 -0.5c-10 0 -17.5 2.33301 -22.5 7
s-8.83301 10.5 -11.5 17.5s-4.16699 15 -4.5 24s-0.5 17.5 -0.5 25.5c0 42 0.666992 81.833 2 119.5s2 75.5 2 113.5c0 22 -4 42.167 -12 60.5s-19 34 -33 47s-31 23 -51 30s-42 10.5 -66 10.5c-26.667 0 -52.667 -4 -78 -12s-53 -23.333 -83 -46z" />
    <glyph glyph-name="adieresis" unicode="&#xe4;" horiz-adv-x="500" 
d="M101 637c0 -14 5 -26 15 -36s22 -15 36 -15s26 5 36 15s15 22 15 36s-5 26 -15 36s-22 15 -36 15s-26 -5 -36 -15s-15 -22 -15 -36zM298 637c0 -14 5 -26 15 -36s22 -15 36 -15s26 5 36 15s15 22 15 36s-5 26 -15 36s-22 15 -36 15s-26 -5 -36 -15s-15 -22 -15 -36z
M333 247l-4 -150c-11.333 -18.667 -27.5 -35 -48.5 -49s-44.167 -21 -69.5 -21c-22 0 -42 8 -60 24s-27 39.667 -27 71c0 18.667 3.5 34 10.5 46s16.333 22 28 30s25 14.333 40 19s30.167 8.5 45.5 11.5s30.5 5.83301 45.5 8.5s28.167 6 39.5 10zM86 425v-52h11
c11.333 21.333 28.5 38 51.5 50s47.833 18 74.5 18c20 0 37 -3.5 51 -10.5s25.333 -16.167 34 -27.5s15 -24.666 19 -39.999s6 -31.333 6 -48c0 -10 -1 -18.167 -3 -24.5s-7.83301 -11.833 -17.5 -16.5s-24.667 -9.16699 -45 -13.5s-48.5 -9.5 -84.5 -15.5
c-44 -7.33301 -78.5 -22 -103.5 -44s-37.5 -53 -37.5 -93c0 -19.333 3.83301 -36.5 11.5 -51.5s17.667 -27.833 30 -38.5s26.5 -18.334 42.5 -23.001s32.333 -7 49 -7c34 0 62.667 5.66699 86 17s47 29 71 53c2 -17.333 8.66699 -31.5 20 -42.5
c11.334 -11 27.667 -16.5 49 -16.5c13.333 0 25.5 1 36.5 3s20.167 4.66699 27.5 8v22c-3.33301 -2 -6.83301 -3.16699 -10.5 -3.5s-7.16699 -0.5 -10.5 -0.5c-10 0 -17.5 2.33301 -22.5 7s-8.83301 10.5 -11.5 17.5s-4.16699 15 -4.5 24s-0.5 17.5 -0.5 25.5
c0 42 0.666992 81.833 2 119.5s2 75.5 2 113.5c0 22 -4 42.167 -12 60.5s-19 34 -33 47s-31 23 -51 30s-42 10.5 -66 10.5c-26.667 0 -52.667 -4 -78 -12s-53 -23.333 -83 -46z" />
    <glyph glyph-name="aring" unicode="&#xe5;" horiz-adv-x="500" 
d="M190 645c0 16.6719 5.83301 30.8408 17.5 42.502c11.667 11.667 26.167 17.5 43.5 17.5c16.667 0 30.834 -5.83301 42.501 -17.5s17.5 -25.834 17.5 -42.501s-5.83301 -30.834 -17.5 -42.501s-26.167 -17.5 -43.5 -17.5c-16.667 0 -30.834 5.83301 -42.501 17.5
c-11.667 11.6689 -17.5 25.8359 -17.5 42.5zM148 645.002c0 -14 2.66699 -27.1641 8 -39.4971c5.33301 -12.3379 12.666 -23.1709 21.999 -32.5c9.33301 -9.33398 20.166 -16.667 32.499 -21.999c12.333 -5.33301 25.5 -8 39.5 -8s27.333 2.66699 40 8
s23.667 12.666 33 21.999c9.33398 9.33301 16.667 20.166 22 32.499s8 25.5 8 39.5s-2.66699 27.167 -8 39.5s-12.666 23.166 -21.999 32.499s-20.166 16.666 -32.499 21.999s-25.5 8 -39.5 8s-27.333 -2.66699 -40 -8c-12.667 -5.34473 -23.667 -12.6777 -33 -22
c-9.33398 -9.33887 -16.667 -20.1719 -22 -32.5c-5.33301 -12.333 -8 -25.5 -8 -39.5zM333 247.005l-4 -150c-11.333 -18.667 -27.5 -35 -48.5 -49s-44.167 -21 -69.5 -21c-22 0 -42 8 -60 24s-27 39.667 -27 71c0 18.667 3.5 34 10.5 46s16.333 22 28 30s25 14.333 40 19
s30.167 8.5 45.5 11.5s30.5 5.83301 45.5 8.5s28.167 6 39.5 10zM86 425.005v-52h11c11.333 21.333 28.5 38 51.5 50s47.833 18 74.5 18c20 0 37 -3.5 51 -10.5s25.333 -16.167 34 -27.5s15 -24.666 19 -39.999s6 -31.333 6 -48c0 -10 -1 -18.167 -3 -24.5
s-7.83301 -11.833 -17.5 -16.5s-24.667 -9.16699 -45 -13.5s-48.5 -9.5 -84.5 -15.5c-44 -7.33301 -78.5 -22 -103.5 -44s-37.5 -53 -37.5 -93c0 -19.333 3.83301 -36.5 11.5 -51.5s17.667 -27.833 30 -38.5s26.5 -18.334 42.5 -23.001s32.333 -7 49 -7
c34 0 62.667 5.66699 86 17s47 29 71 53c2 -17.333 8.66699 -31.5 20 -42.5c11.334 -11 27.667 -16.5 49 -16.5c13.333 0 25.5 1 36.5 3s20.167 4.66699 27.5 8v22c-3.33301 -2 -6.83301 -3.16699 -10.5 -3.5s-7.16699 -0.5 -10.5 -0.5c-10 0 -17.5 2.33301 -22.5 7
s-8.83301 10.5 -11.5 17.5s-4.16699 15 -4.5 24s-0.5 17.5 -0.5 25.5c0 42 0.666992 81.833 2 119.5s2 75.5 2 113.5c0 22 -4 42.167 -12 60.5s-19 34 -33 47s-31 23 -51 30s-42 10.5 -66 10.5c-26.667 0 -52.667 -4 -78 -12s-53 -23.333 -83 -46z" />
    <glyph glyph-name="ae" unicode="&#xe6;" horiz-adv-x="778" 
d="M544 451c26 0 46.999 -5.66895 62.999 -17.002s28.5 -25.666 37.5 -42.999s15 -36 18 -56s4.5 -39 4.5 -57c-21.333 -0.670898 -43.333 -1.33789 -66 -2c-22.667 -0.666992 -45 -1 -67 -1c-21.333 0 -43.166 0.333008 -65.499 1s-43.833 1.33398 -64.5 2.00098
c1.33301 18 4.83301 37.167 10.5 57.5s14 39 25 56s25 31.167 42 42.5c17.001 11.333 37.834 17 62.5 17zM78.999 424.998l0.000976562 -52.002h11c11.333 21.333 28.5 38 51.5 50s47.833 18 74.5 18c20 0 37 -3.5 51 -10.5s25.333 -16.167 34 -27.5s15 -24.666 19 -39.999
s6 -31.333 6 -48c0 -10 -1 -18.167 -3 -24.5s-7.83301 -11.833 -17.5 -16.5s-24.667 -9.16699 -45 -13.5s-48.5 -9.5 -84.5 -15.5c-44 -7.33301 -78.5 -22 -103.5 -44s-37.5 -53 -37.5 -93c0 -19.333 3.83301 -36.5 11.5 -51.5s17.667 -27.833 30 -38.5
s26.5 -18.334 42.5 -23.001s32.333 -7 49 -7c28 0 52.167 3 72.5 9s37.833 14.5 52.5 25.5s26.667 23.667 36 38c9.33594 14.333 16.6689 28.833 22 43.5c16.667 -38.667 43 -67.667 79 -87s78 -29 126 -29c32 0 62.833 5.66699 92.5 17s54.5 25 74.5 41l6 49l-5 3
c-8.66699 -10 -18.834 -19.333 -30.501 -28s-24.167 -16.167 -37.5 -22.5s-27 -11.333 -41 -15s-27.667 -5.5 -41 -5.5c-28 0 -52.667 4.83301 -74 14.5s-39.333 22.667 -54 39c-14.668 16.333 -25.835 35.833 -33.5 58.5c-7.66699 22.667 -11.5 47 -11.5 73v13
c0 6.66699 0.333008 11.667 1 15c22 0.668945 43.833 1.33594 65.5 2.00098c21.667 0.666992 43.5 1 65.5 1c36 0 71.667 -0.333008 107 -1s71 -1.33398 107 -2.00098c0.666992 6.66699 1.16699 13.167 1.5 19.5s0.5 12.833 0.5 19.5c0 28 -4.16699 54.333 -12.5 79
c-8.33594 24.667 -21.1689 46.167 -38.5 64.5c-17.333 18.333 -38.833 33 -64.5 44s-56.167 16.5 -91.5 16.5c-32 0 -61 -6.66699 -87 -20s-47.667 -31.666 -65 -54.999c-11.333 15.333 -23.5 27.833 -36.5 37.5s-26 17.334 -39 23.001s-25.833 9.5 -38.5 11.5
s-24.667 3 -36 3c-26.667 0 -52.667 -4 -78 -12s-53 -23.333 -83 -46zM117 121.996c0 18.667 3.50195 34 10.502 46s16.333 22 28 30s25 14.333 40 19s30.167 8.5 45.5 11.5s30.5 5.83301 45.5 8.5s28.167 6 39.5 10c-0.666992 -19.333 -0.833984 -38.333 -0.500977 -57
s-0.166992 -37.667 -1.5 -57c-1.33301 -18 -5.33301 -33.5 -12 -46.5c-6.66797 -13 -15.335 -24 -26.001 -33c-10.667 -9 -22.5 -15.667 -35.5 -20s-26.167 -6.5 -39.5 -6.5c-28.667 0 -51.5 8.66699 -68.5 26s-25.5 40.333 -25.5 69z" />
    <glyph glyph-name="ccedilla" unicode="&#xe7;" horiz-adv-x="500" 
d="M194 -172l-14 -32.002c9.33301 -3.33301 21.333 -7 36 -11s32.334 -6 53.001 -6c16 0 31.167 1.83301 45.5 5.5s27 9 38 16s19.667 15.833 26 26.5s9.5 23 9.5 37c0 21.333 -7.33301 38.5 -22 51.5s-35 19.5 -61 19.5c-6.66699 0 -12.167 -0.5 -16.5 -1.5
s-8.5 -2.16699 -12.5 -3.5l21 59c30 1.33301 58.667 7.33301 86 18s50.333 23.667 69 39c0.666992 16.667 2.66699 33 6 49l-5 3c-8.66797 -10 -18.835 -19.333 -30.501 -28c-11.667 -8.66699 -24.167 -16.167 -37.5 -22.5s-27 -11.333 -41 -15s-27.667 -5.5 -41 -5.5
c-56.667 0 -99.667 17.5 -129 52.5s-44 86.833 -44 155.5c0 30.667 3.16699 59.167 9.5 85.5c6.33301 26.334 16.333 49.167 30 68.5s31.334 34.5 53.001 45.5s47.5 16.5 77.5 16.5c16 0 30.667 -2.5 44 -7.5s25.5 -11.333 36.5 -19s20.5 -16 28.5 -25
s14.333 -17.833 19 -26.5h8c2.66699 12 5.83398 23.5 9.50098 34.5s7.83398 21.5 12.501 31.5c-12.667 11.333 -33.5 21.5 -62.5 30.5s-61.833 13.5 -98.5 13.5c-32 0 -63.333 -4.83301 -94 -14.5s-57.834 -24.667 -81.501 -45s-42.834 -46.166 -57.501 -77.499
s-22 -68.666 -22 -111.999c0 -42 6.33301 -78 19 -108s29.167 -55 49.5 -75s43.666 -34.667 69.999 -44s52.833 -15 79.5 -17l-35 -92l7 -7c6.66699 4.66699 21 7 43 7c14 0 26 -3 36 -9s15 -16.333 15 -31c0 -13.333 -5.83301 -23.666 -17.5 -30.999s-25.834 -11 -42.5 -11
c-15.333 0 -29.333 1.16699 -42 3.5s-22.667 5.16602 -30 8.49902z" />
    <glyph glyph-name="egrave" unicode="&#xe8;" horiz-adv-x="500" 
d="M146 653l147.001 -94h42l-147 149c-16 16 -31 24 -45 24c-6.66699 0 -13.834 -2.66699 -21.501 -8s-11.5 -13.333 -11.5 -24c0 -12 4 -21.5 12 -28.5s16 -13.167 24 -18.5zM266.001 451c26 0 46.999 -5.66895 62.999 -17.002s28.5 -25.666 37.5 -42.999s15 -36 18 -56
s4.5 -39 4.5 -57c-21.333 -0.670898 -43.333 -1.33789 -66 -2c-22.667 -0.666992 -45 -1 -67 -1c-21.333 0 -43.166 0.333008 -65.499 1s-43.833 1.33398 -64.5 2.00098c1.33301 18 4.83301 37.167 10.5 57.5s14 39 25 56s25 31.167 42 42.5s37.833 17 62.5 17zM35 219.998
c0 -33.333 5.83105 -64.333 17.498 -93s28.334 -53.5 50.001 -74.5s47.334 -37 77.001 -48s62.5 -16.5 98.5 -16.5c32 0 62.833 5.66699 92.5 17s54.5 25 74.5 41l6 49l-5 3c-8.66699 -10 -18.834 -19.333 -30.5 -28c-11.667 -8.66699 -24.167 -16.167 -37.5 -22.5
s-27 -11.333 -41 -15s-27.667 -5.5 -41 -5.5c-28 0 -52.667 4.83301 -74 14.5s-39.333 22.667 -54 39s-25.834 35.833 -33.501 58.5s-11.5 47 -11.5 73v13c0 6.66699 0.333008 11.667 1 15c22 0.668945 43.833 1.33594 65.5 2.00098c21.667 0.666992 43.5 1 65.5 1
c36 0 71.667 -0.333008 107 -1s71 -1.33398 107 -2.00098c0.666992 6.66699 1.16699 13.167 1.5 19.5s0.5 12.833 0.5 19.5c0 28 -4.16699 54.333 -12.5 79s-21.166 46.167 -38.499 64.5s-38.833 33 -64.5 44s-56.167 16.5 -91.5 16.5c-74.667 0 -131.5 -23.333 -170.5 -70
s-58.5 -111 -58.5 -193z" />
    <glyph glyph-name="eacute" unicode="&#xe9;" horiz-adv-x="500" 
d="M345 708l-147 -149h42l147 94c8 5.33301 16 11.5 24 18.5s12 16.5 12 28.5c0 10.667 -3.83301 18.667 -11.5 24s-14.834 8 -21.5 8c-14 0 -29 -8 -45 -24zM266 451c26 0 46.999 -5.66895 62.999 -17.002s28.5 -25.666 37.5 -42.999s15 -36 18 -56s4.5 -39 4.5 -57
c-21.333 -0.670898 -43.333 -1.33789 -66 -2c-22.667 -0.666992 -45 -1 -67 -1c-21.333 0 -43.166 0.333008 -65.499 1s-43.833 1.33398 -64.5 2.00098c1.33301 18 4.83301 37.167 10.5 57.5s14 39 25 56s25 31.167 42 42.5s37.833 17 62.5 17zM34.999 219.998
c0 -33.333 5.83105 -64.333 17.498 -93s28.334 -53.5 50.001 -74.5s47.334 -37 77.001 -48s62.5 -16.5 98.5 -16.5c32 0 62.833 5.66699 92.5 17s54.5 25 74.5 41l6 49l-5 3c-8.66699 -10 -18.834 -19.333 -30.5 -28c-11.667 -8.66699 -24.167 -16.167 -37.5 -22.5
s-27 -11.333 -41 -15s-27.667 -5.5 -41 -5.5c-28 0 -52.667 4.83301 -74 14.5s-39.333 22.667 -54 39s-25.834 35.833 -33.501 58.5s-11.5 47 -11.5 73v13c0 6.66699 0.333008 11.667 1 15c22 0.668945 43.833 1.33594 65.5 2.00098c21.667 0.666992 43.5 1 65.5 1
c36 0 71.667 -0.333008 107 -1s71 -1.33398 107 -2.00098c0.666992 6.66699 1.16699 13.167 1.5 19.5s0.5 12.833 0.5 19.5c0 28 -4.16699 54.333 -12.5 79s-21.166 46.167 -38.499 64.5s-38.833 33 -64.5 44s-56.167 16.5 -91.5 16.5c-74.667 0 -131.5 -23.333 -170.5 -70
s-58.5 -111 -58.5 -193z" />
    <glyph glyph-name="ecircumflex" unicode="&#xea;" horiz-adv-x="500" 
d="M266 664l120 -105h37l-123 167h-67l-123 -167h37zM266 451c26 0 46.999 -5.66895 62.999 -17.002s28.5 -25.666 37.5 -42.999s15 -36 18 -56s4.5 -39 4.5 -57c-21.333 -0.670898 -43.333 -1.33789 -66 -2c-22.667 -0.666992 -45 -1 -67 -1
c-21.333 0 -43.166 0.333008 -65.499 1s-43.833 1.33398 -64.5 2.00098c1.33301 18 4.83301 37.167 10.5 57.5s14 39 25 56s25 31.167 42 42.5s37.833 17 62.5 17zM34.999 219.998c0 -33.333 5.83105 -64.333 17.498 -93s28.334 -53.5 50.001 -74.5s47.334 -37 77.001 -48
s62.5 -16.5 98.5 -16.5c32 0 62.833 5.66699 92.5 17s54.5 25 74.5 41l6 49l-5 3c-8.66699 -10 -18.834 -19.333 -30.5 -28c-11.667 -8.66699 -24.167 -16.167 -37.5 -22.5s-27 -11.333 -41 -15s-27.667 -5.5 -41 -5.5c-28 0 -52.667 4.83301 -74 14.5
s-39.333 22.667 -54 39s-25.834 35.833 -33.501 58.5s-11.5 47 -11.5 73v13c0 6.66699 0.333008 11.667 1 15c22 0.668945 43.833 1.33594 65.5 2.00098c21.667 0.666992 43.5 1 65.5 1c36 0 71.667 -0.333008 107 -1s71 -1.33398 107 -2.00098
c0.666992 6.66699 1.16699 13.167 1.5 19.5s0.5 12.833 0.5 19.5c0 28 -4.16699 54.333 -12.5 79s-21.166 46.167 -38.499 64.5s-38.833 33 -64.5 44s-56.167 16.5 -91.5 16.5c-74.667 0 -131.5 -23.333 -170.5 -70s-58.5 -111 -58.5 -193z" />
    <glyph glyph-name="edieresis" unicode="&#xeb;" horiz-adv-x="500" 
d="M117 637c0 -14 5 -26 15 -36s22 -15 36 -15s26 5 36 15s15 22 15 36s-5 26 -15 36s-22 15 -36 15s-26 -5 -36 -15s-15 -22 -15 -36zM314 637c0 -14 5 -26 15 -36s22 -15 36 -15s26 5 36 15s15 22 15 36s-5 26 -15 36s-22 15 -36 15s-26 -5 -36 -15s-15 -22 -15 -36z
M266 451c26 0 46.999 -5.66895 62.999 -17.002s28.5 -25.666 37.5 -42.999s15 -36 18 -56s4.5 -39 4.5 -57c-21.333 -0.670898 -43.333 -1.33789 -66 -2c-22.667 -0.666992 -45 -1 -67 -1c-21.333 0 -43.166 0.333008 -65.499 1s-43.833 1.33398 -64.5 2.00098
c1.33301 18 4.83301 37.167 10.5 57.5s14 39 25 56s25 31.167 42 42.5s37.833 17 62.5 17zM34.999 219.998c0 -33.333 5.83105 -64.333 17.498 -93s28.334 -53.5 50.001 -74.5s47.334 -37 77.001 -48s62.5 -16.5 98.5 -16.5c32 0 62.833 5.66699 92.5 17s54.5 25 74.5 41
l6 49l-5 3c-8.66699 -10 -18.834 -19.333 -30.5 -28c-11.667 -8.66699 -24.167 -16.167 -37.5 -22.5s-27 -11.333 -41 -15s-27.667 -5.5 -41 -5.5c-28 0 -52.667 4.83301 -74 14.5s-39.333 22.667 -54 39s-25.834 35.833 -33.501 58.5s-11.5 47 -11.5 73v13
c0 6.66699 0.333008 11.667 1 15c22 0.668945 43.833 1.33594 65.5 2.00098c21.667 0.666992 43.5 1 65.5 1c36 0 71.667 -0.333008 107 -1s71 -1.33398 107 -2.00098c0.666992 6.66699 1.16699 13.167 1.5 19.5s0.5 12.833 0.5 19.5c0 28 -4.16699 54.333 -12.5 79
s-21.166 46.167 -38.499 64.5s-38.833 33 -64.5 44s-56.167 16.5 -91.5 16.5c-74.667 0 -131.5 -23.333 -170.5 -70s-58.5 -111 -58.5 -193z" />
    <glyph glyph-name="igrave" unicode="&#xec;" horiz-adv-x="278" 
d="M19 653l147.001 -94h42l-147 149c-16 16 -31 24 -45 24c-6.66699 0 -13.334 -2.66699 -20.001 -8s-10 -13.333 -10 -24c0 -12 3.5 -21.5 10.5 -28.5s14.5 -13.167 22.5 -18.5zM102.001 286v-104c0 -30 -0.5 -61.5 -1.5 -94.5s-3.16699 -62.833 -6.5 -89.5
c15.333 1.33301 30.333 2 45 2s29.667 -0.666992 45 -2c-3.33301 26.667 -5.5 56.5 -6.5 89.5s-1.5 64.5 -1.5 94.5v104c0 30 0.5 61.5 1.5 94.5s3.16699 63.833 6.5 92.5c-18.667 -3.33301 -33.667 -5 -45 -5s-26.333 1.66699 -45 5c3.33301 -28.667 5.5 -59.5 6.5 -92.5
s1.5 -64.5 1.5 -94.5z" />
    <glyph glyph-name="iacute" unicode="&#xed;" horiz-adv-x="278" 
d="M218 708l-146.999 -149h42l147 94c8 5.33301 16 11.5 24 18.5s12 16.5 12 28.5c0 10.667 -3.83301 18.667 -11.5 24c-7.66797 5.33301 -14.835 8 -21.501 8c-14 0 -29 -8 -45 -24zM102.001 286v-104c0 -30 -0.5 -61.5 -1.5 -94.5s-3.16699 -62.833 -6.5 -89.5
c15.333 1.33301 30.333 2 45 2s29.667 -0.666992 45 -2c-3.33301 26.667 -5.5 56.5 -6.5 89.5s-1.5 64.5 -1.5 94.5v104c0 30 0.5 61.5 1.5 94.5s3.16699 63.833 6.5 92.5c-18.667 -3.33301 -33.667 -5 -45 -5s-26.333 1.66699 -45 5c3.33301 -28.667 5.5 -59.5 6.5 -92.5
s1.5 -64.5 1.5 -94.5z" />
    <glyph glyph-name="icircumflex" unicode="&#xee;" horiz-adv-x="278" 
d="M139 664l120 -105h37l-123 167h-67l-120 -167h34zM102 286v-104c0 -30 -0.5 -61.5 -1.5 -94.5s-3.16699 -62.833 -6.5 -89.5c15.333 1.33301 30.333 2 45 2s29.667 -0.666992 45 -2c-3.33301 26.667 -5.5 56.5 -6.5 89.5s-1.5 64.5 -1.5 94.5v104c0 30 0.5 61.5 1.5 94.5
s3.16699 63.833 6.5 92.5c-18.667 -3.33301 -33.667 -5 -45 -5s-26.333 1.66699 -45 5c3.33301 -28.667 5.5 -59.5 6.5 -92.5s1.5 -64.5 1.5 -94.5z" />
    <glyph glyph-name="idieresis" unicode="&#xef;" horiz-adv-x="278" 
d="M-7 637c0 -14 4.5 -26 13.5 -36s20.5 -15 34.5 -15s26 5 36 15s15 22 15 36s-5 26 -15 36s-22 15 -36 15s-25.5 -5 -34.5 -15s-13.5 -22 -13.5 -36zM187 637c0 -14 5 -26 15 -36s22 -15 36 -15s26 5 36 15s15 22 15 36s-5 26 -15 36s-22 15 -36 15s-26 -5 -36 -15
s-15 -22 -15 -36zM102 286v-104c0 -30 -0.5 -61.5 -1.5 -94.5s-3.16699 -62.833 -6.5 -89.5c15.333 1.33301 30.333 2 45 2s29.667 -0.666992 45 -2c-3.33301 26.667 -5.5 56.5 -6.5 89.5s-1.5 64.5 -1.5 94.5v104c0 30 0.5 61.5 1.5 94.5s3.16699 63.833 6.5 92.5
c-18.667 -3.33301 -33.667 -5 -45 -5s-26.333 1.66699 -45 5c3.33301 -28.667 5.5 -59.5 6.5 -92.5s1.5 -64.5 1.5 -94.5z" />
    <glyph glyph-name="eth" unicode="&#xf0;" 
d="M35 234c0 -45.333 7.16602 -83.8301 21.499 -115.497s33.166 -57.334 56.499 -77.001s49.5 -33.5 78.5 -41.5s57.833 -12 86.5 -12c29.333 0 58.333 4 87 12s54.667 21.833 78 41.5c23.334 19.667 42.167 45.334 56.499 77.001c14.333 31.667 21.5 70.167 21.5 115.5
c0 34 -4.66699 67.167 -14 99.5c-9.33301 32.334 -23.666 64.667 -42.999 97s-44.333 65.333 -75 99s-67.334 68.5 -110 104.5c19.334 6 38.667 11.667 58 17c19.334 5.33301 39.667 10.666 61 15.999c-9.33301 11.333 -16.333 23 -21 35
c-18.667 -7.33887 -38.5 -14.6719 -59.5 -22c-21 -7.33887 -43.167 -14.6719 -66.5 -22c-18.667 15.333 -38.667 31 -60 47s-44 32.667 -68 50l-70 -18c22.667 -17.333 44 -34.333 64 -51s39.333 -33.667 58 -51c-21.333 -6.66699 -42.5 -12.834 -63.5 -18.501
s-41.5 -11.167 -61.5 -16.5c8 -12 15 -24 21 -36c22.667 8 44.667 15.667 66 23l64 22c23.333 -21.333 45.333 -42.833 66 -64.5s41.334 -43.834 62.001 -66.501l-2 -2c-8 3.33301 -16 5.33301 -24 6s-16.333 1 -25 1c-28.667 0 -57.5 -4.5 -86.5 -13.5
s-55.167 -23.333 -78.5 -43s-42.166 -45.334 -56.499 -77c-14.333 -31.667 -21.5 -70.167 -21.5 -115.5zM432.999 234.003c0 -28 -2.5 -55 -7.5 -81s-13.5 -49.167 -25.5 -69.5s-28 -36.5 -48 -48.5s-44.667 -18 -74 -18s-54 6 -74 18s-36 28.167 -48 48.5
s-20.5 43.5 -25.5 69.5s-7.5 53 -7.5 81s2.5 55 7.5 81s13.5 49.167 25.5 69.5s28 36.5 48 48.5s44.667 18 74 18s54 -6 74 -18s36 -28.167 48 -48.5s20.5 -43.5 25.5 -69.5s7.5 -53 7.5 -81z" />
    <glyph glyph-name="ntilde" unicode="&#xf1;" 
d="M114 584h29.999c6 17.333 12.5 29.333 19.5 36s18.167 10 33.5 10c8 0 16.5 -1.5 25.5 -4.5s22.167 -9.16699 39.5 -18.5c15.333 -8.66699 28.833 -14.667 40.5 -18s22.167 -5 31.5 -5c20 0 36.667 4 50 12c13.335 8 24.168 17.833 32.5 29.5
c8.33301 11.667 14.5 23.5 18.5 35.5s6.66699 22 8 30h-29c-4 -13.333 -10.667 -25 -20 -35s-21.666 -15 -36.999 -15c-8.66699 0 -17.167 1.5 -25.5 4.5s-21.833 9.16699 -40.5 18.5c-18.667 8.66699 -32.667 14.667 -42 18c-9.33398 3.33301 -19.667 5 -31 5
c-16 0 -30 -3.16699 -42 -9.5s-22.333 -14.5 -31 -24.5s-15.5 -21 -20.5 -33s-8.5 -24 -10.5 -36zM401.999 279l-0.00195312 -60.998c0 -38.667 -0.833008 -76.334 -2.5 -113.001s-3.16699 -72.334 -4.5 -107.001c13.333 1.33301 27 2 41 2
c14.667 -0 28.667 -0.666992 42 -2c-0.666992 9.33301 -1.16699 19.166 -1.5 29.499s-0.5 20.833 -0.5 31.5v65c0 34 0.666992 66.167 2 96.5s2 59.833 2 88.5c0 34.667 -4.83301 63.167 -14.5 85.5s-22.167 40 -37.5 53s-32.5 22.167 -51.5 27.5s-37.833 8 -56.5 8
c-36 0 -67 -7.83301 -93 -23.5s-48.333 -37.834 -67 -66.5h-2c0 26.667 1 53.334 3 80.001c-8.66699 -1.33301 -16.167 -2.5 -22.5 -3.5s-12.166 -1.5 -17.499 -1.5c-11.333 0 -26.333 1.66699 -45 5c3.33301 -28.667 5.5 -59.5 6.5 -92.5s1.5 -64.5 1.5 -94.5v-104
c0 -30 -0.5 -61.5 -1.5 -94.5s-3.16699 -62.833 -6.5 -89.5c15.333 1.33301 30.333 2 45 2s29.667 -0.666992 45 -2c-3.33301 26.667 -5.5 56.5 -6.5 89.5s-1.5 64.5 -1.5 94.5v85c0 52 10.833 92.333 32.5 121s55.834 43 102.501 43c34 0 60.667 -12.833 80 -38.5
s29 -63.5 29 -113.5z" />
    <glyph glyph-name="ograve" unicode="&#xf2;" 
d="M158 653l147.001 -94h42l-147 149c-16 16 -31 24 -45 24c-6.66699 0 -13.834 -2.66699 -21.501 -8s-11.5 -13.333 -11.5 -24c0 -12 4 -21.5 12 -28.5s16 -13.167 24 -18.5zM123.001 234c0 28 2.5 55 7.5 81s13.5 49.167 25.5 69.5s28 36.5 48 48.5s44.667 18 74 18
s54 -6 74 -18s36 -28.167 48 -48.5s20.5 -43.5 25.5 -69.5s7.5 -53 7.5 -81s-2.5 -55 -7.5 -81s-13.5 -49.167 -25.5 -69.5s-28 -36.5 -48 -48.5s-44.667 -18 -74 -18s-54 6 -74 18s-36 28.167 -48 48.5s-20.5 43.5 -25.5 69.5s-7.5 53 -7.5 81zM35.001 234
c0 -45.333 7.16699 -83.834 21.5 -115.501s33.166 -57.334 56.499 -77.001s49.5 -33.5 78.5 -41.5s57.833 -12 86.5 -12c29.333 0 58.333 4 87 12s54.667 21.833 78 41.5c23.334 19.667 42.167 45.334 56.499 77.001c14.333 31.667 21.5 70.167 21.5 115.5
s-7.16699 83.833 -21.5 115.5s-33.166 57.334 -56.499 77.001s-49.333 34 -78 43s-57.667 13.5 -87 13.5c-28.667 0 -57.5 -4.5 -86.5 -13.5s-55.167 -23.333 -78.5 -43s-42.166 -45.334 -56.499 -77c-14.333 -31.667 -21.5 -70.167 -21.5 -115.5z" />
    <glyph glyph-name="oacute" unicode="&#xf3;" 
d="M357 708l-147 -149h42l147 94c8 5.33301 16 11.5 24 18.5s12 16.5 12 28.5c0 10.667 -3.83301 18.667 -11.5 24c-7.66797 5.33301 -14.835 8 -21.5 8c-14 0 -29 -8 -45 -24zM123 234c0 28 2.5 55 7.5 81s13.5 49.167 25.5 69.5s28 36.5 48 48.5s44.667 18 74 18
s54 -6 74 -18s36 -28.167 48 -48.5s20.5 -43.5 25.5 -69.5s7.5 -53 7.5 -81s-2.5 -55 -7.5 -81s-13.5 -49.167 -25.5 -69.5s-28 -36.5 -48 -48.5s-44.667 -18 -74 -18s-54 6 -74 18s-36 28.167 -48 48.5s-20.5 43.5 -25.5 69.5s-7.5 53 -7.5 81zM35 234
c0 -45.333 7.16699 -83.834 21.5 -115.501s33.166 -57.334 56.499 -77.001s49.5 -33.5 78.5 -41.5s57.833 -12 86.5 -12c29.333 0 58.333 4 87 12s54.667 21.833 78 41.5c23.334 19.667 42.167 45.334 56.499 77.001c14.333 31.667 21.5 70.167 21.5 115.5
s-7.16699 83.833 -21.5 115.5s-33.166 57.334 -56.499 77.001s-49.333 34 -78 43s-57.667 13.5 -87 13.5c-28.667 0 -57.5 -4.5 -86.5 -13.5s-55.167 -23.333 -78.5 -43s-42.166 -45.334 -56.499 -77c-14.333 -31.667 -21.5 -70.167 -21.5 -115.5z" />
    <glyph glyph-name="ocircumflex" unicode="&#xf4;" 
d="M278 664l120 -105h37l-123 167h-67l-123 -167h37zM123 234c0 28 2.5 55 7.5 81s13.5 49.167 25.5 69.5s28 36.5 48 48.5s44.667 18 74 18s54 -6 74 -18s36 -28.167 48 -48.5s20.5 -43.5 25.5 -69.5s7.5 -53 7.5 -81s-2.5 -55 -7.5 -81s-13.5 -49.167 -25.5 -69.5
s-28 -36.5 -48 -48.5s-44.667 -18 -74 -18s-54 6 -74 18s-36 28.167 -48 48.5s-20.5 43.5 -25.5 69.5s-7.5 53 -7.5 81zM35 234c0 -45.333 7.16699 -83.834 21.5 -115.501s33.166 -57.334 56.499 -77.001s49.5 -33.5 78.5 -41.5s57.833 -12 86.5 -12
c29.333 0 58.333 4 87 12s54.667 21.833 78 41.5c23.334 19.667 42.167 45.334 56.499 77.001c14.333 31.667 21.5 70.167 21.5 115.5s-7.16699 83.833 -21.5 115.5s-33.166 57.334 -56.499 77.001s-49.333 34 -78 43s-57.667 13.5 -87 13.5
c-28.667 0 -57.5 -4.5 -86.5 -13.5s-55.167 -23.333 -78.5 -43s-42.166 -45.334 -56.499 -77c-14.333 -31.667 -21.5 -70.167 -21.5 -115.5z" />
    <glyph glyph-name="otilde" unicode="&#xf5;" 
d="M114 584h29.999c6 17.333 12.5 29.333 19.5 36s18.167 10 33.5 10c8 0 16.5 -1.5 25.5 -4.5s22.167 -9.16699 39.5 -18.5c15.333 -8.66699 28.833 -14.667 40.5 -18s22.167 -5 31.5 -5c20 0 36.667 4 50 12c13.335 8 24.168 17.833 32.5 29.5
c8.33301 11.667 14.5 23.5 18.5 35.5s6.66699 22 8 30h-29c-4 -13.333 -10.667 -25 -20 -35s-21.666 -15 -36.999 -15c-8.66699 0 -17.167 1.5 -25.5 4.5s-21.833 9.16699 -40.5 18.5c-18.667 8.66699 -32.667 14.667 -42 18c-9.33398 3.33301 -19.667 5 -31 5
c-16 0 -30 -3.16699 -42 -9.5s-22.333 -14.5 -31 -24.5s-15.5 -21 -20.5 -33s-8.5 -24 -10.5 -36zM122.999 234c0 28 2.5 55 7.5 81s13.5 49.167 25.5 69.5s28 36.5 48 48.5s44.667 18 74 18s54 -6 74 -18s36 -28.167 48 -48.5s20.5 -43.5 25.5 -69.5s7.5 -53 7.5 -81
s-2.5 -55 -7.5 -81s-13.5 -49.167 -25.5 -69.5s-28 -36.5 -48 -48.5s-44.667 -18 -74 -18s-54 6 -74 18s-36 28.167 -48 48.5s-20.5 43.5 -25.5 69.5s-7.5 53 -7.5 81zM34.999 234c0 -45.333 7.16699 -83.834 21.5 -115.501s33.166 -57.334 56.499 -77.001
s49.5 -33.5 78.5 -41.5s57.833 -12 86.5 -12c29.333 0 58.333 4 87 12s54.667 21.833 78 41.5c23.334 19.667 42.167 45.334 56.499 77.001c14.333 31.667 21.5 70.167 21.5 115.5s-7.16699 83.833 -21.5 115.5s-33.166 57.334 -56.499 77.001s-49.333 34 -78 43
s-57.667 13.5 -87 13.5c-28.667 0 -57.5 -4.5 -86.5 -13.5s-55.167 -23.333 -78.5 -43s-42.166 -45.334 -56.499 -77c-14.333 -31.667 -21.5 -70.167 -21.5 -115.5z" />
    <glyph glyph-name="odieresis" unicode="&#xf6;" 
d="M129 637c0 -14 5 -26 15 -36s22 -15 36 -15s26 5 36 15s15 22 15 36s-5 26 -15 36s-22 15 -36 15s-26 -5 -36 -15s-15 -22 -15 -36zM326 637c0 -14 5 -26 15 -36s22 -15 36 -15s26 5 36 15s15 22 15 36s-5 26 -15 36s-22 15 -36 15s-26 -5 -36 -15s-15 -22 -15 -36z
M123 234c0 28 2.5 55 7.5 81s13.5 49.167 25.5 69.5s28 36.5 48 48.5s44.667 18 74 18s54 -6 74 -18s36 -28.167 48 -48.5s20.5 -43.5 25.5 -69.5s7.5 -53 7.5 -81s-2.5 -55 -7.5 -81s-13.5 -49.167 -25.5 -69.5s-28 -36.5 -48 -48.5s-44.667 -18 -74 -18s-54 6 -74 18
s-36 28.167 -48 48.5s-20.5 43.5 -25.5 69.5s-7.5 53 -7.5 81zM35 234c0 -45.333 7.16699 -83.834 21.5 -115.501s33.166 -57.334 56.499 -77.001s49.5 -33.5 78.5 -41.5s57.833 -12 86.5 -12c29.333 0 58.333 4 87 12s54.667 21.833 78 41.5
c23.334 19.667 42.167 45.334 56.499 77.001c14.333 31.667 21.5 70.167 21.5 115.5s-7.16699 83.833 -21.5 115.5s-33.166 57.334 -56.499 77.001s-49.333 34 -78 43s-57.667 13.5 -87 13.5c-28.667 0 -57.5 -4.5 -86.5 -13.5s-55.167 -23.333 -78.5 -43
s-42.166 -45.334 -56.499 -77c-14.333 -31.667 -21.5 -70.167 -21.5 -115.5z" />
    <glyph glyph-name="divide" unicode="&#xf7;" horiz-adv-x="606" 
d="M246 57c0 -15.333 5.66504 -28.666 16.998 -39.999c11.334 -11.333 24.667 -17 40 -17c15.335 0 28.668 5.66699 40 17c11.333 11.333 17 24.666 17 39.999s-5.66699 28.666 -17 39.999s-24.666 17 -39.999 17s-28.666 -5.66699 -39.999 -17s-17 -24.666 -17 -39.999z
M245.998 449c0 -15.333 5.66504 -28.667 16.998 -40c11.334 -11.333 24.667 -17 40 -17c15.335 0 28.668 5.66699 40 17c11.333 11.335 17 24.668 17 40c0 15.334 -5.66699 28.667 -17 39.999c-11.333 11.333 -24.666 17 -39.999 17s-28.666 -5.66699 -39.999 -17
s-17 -24.666 -17 -39.999zM49.9961 278.999v-52h506v52h-506z" />
    <glyph glyph-name="oslash" unicode="&#xf8;" 
d="M395 391l-252 -281c-7.33301 18 -12.5 37.5 -15.5 58.5s-4.5 42.833 -4.5 65.5c0 28 2.5 55 7.5 81s13.5 49.167 25.5 69.5s28 36.5 48 48.5s44.667 18 74 18c28 0 51.667 -5.5 71 -16.5c19.334 -11 34.667 -25.5 46 -43.5zM35 234
c0 -40 5.50391 -74.168 16.5039 -102.501s25.5 -52.833 43.5 -73.5c-8 -9.33301 -16 -18.5 -24 -27.5s-15.5 -17 -22.5 -24s-13.333 -13.167 -19 -18.5s-9.83398 -9 -12.501 -11c9.33301 -4 17.666 -11 24.999 -21c7.33301 9.33301 17.833 21 31.5 35s28.167 29.667 43.5 47
c23.333 -18.667 49 -31.667 77 -39s56 -11 84 -11c29.333 0 58.333 4 87 12s54.667 21.833 78 41.5c23.334 19.667 42.167 45.334 56.499 77.001c14.333 31.667 21.5 70.167 21.5 115.5c0 42.667 -6 78.667 -18 108s-28.667 54.666 -50 75.999c16 18 30.667 34 44 48
s23.666 23.667 30.999 29c-10 4.66699 -18.333 12 -25 22c-4 -7.33301 -12.833 -18.666 -26.5 -33.999s-28.167 -31.333 -43.5 -48c-23.333 17.335 -48.333 29.668 -75 37c-26.667 7.33301 -53.334 11 -80.001 11c-28.667 0 -57.5 -4.5 -86.5 -13.5
s-55.167 -23.333 -78.5 -43s-42.166 -45.334 -56.499 -77c-14.333 -31.667 -21.5 -70.167 -21.5 -115.5zM156.004 82.999l252 285c9.33301 -18.667 15.833 -39.5 19.5 -62.5s5.5 -46.833 5.5 -71.5c0 -28 -2.5 -55 -7.5 -81s-13.5 -49.167 -25.5 -69.5s-28 -36.5 -48 -48.5
s-44.667 -18 -74 -18c-30 0 -54.833 6 -74.5 18s-35.5 28 -47.5 48z" />
    <glyph glyph-name="ugrave" unicode="&#xf9;" 
d="M158 653l147.001 -94h42l-147 149c-16 16 -31 24 -45 24c-6.66699 0 -13.834 -2.66699 -21.501 -8s-11.5 -13.333 -11.5 -24c0 -12 4 -21.5 12 -28.5s16 -13.167 24 -18.5zM76.001 149c0 -52 14.8359 -91.834 44.5029 -119.501s70.5 -41.5 122.5 -41.5
c32 0 61.667 7.5 89 22.5c27.334 15 49.667 38.5 67 70.5h2v-43c0 -7.33301 -0.166992 -14.333 -0.5 -21s-0.833008 -13 -1.5 -19c13.333 1.33301 26.333 2 39 2s25.667 -0.666992 39 -2c-1.33301 26.667 -2.33301 54.334 -3 83.001s-1 58 -1 88
c0 54 0.333008 105.167 1 153.5s2.66699 98.5 6 150.5c-6.66992 -1.33301 -13.3369 -2.5 -20 -3.5c-6.66699 -1 -13.667 -1.5 -21 -1.5s-14.333 0.5 -21 1.5s-13.667 2.16699 -21 3.5c0.666992 -12 1.16699 -24.667 1.5 -38s0.5 -27.333 0.5 -42v-84
c0 -39.333 -0.166992 -70.333 -0.5 -93s-1.33301 -40.667 -3 -54c-1.67285 -13.333 -3.83984 -24 -6.50098 -32c-2.66992 -8 -6.33691 -17.667 -11.001 -29c-8.66699 -18 -22.334 -33.167 -41 -45.5c-18.667 -12.333 -42 -18.5 -70 -18.5c-19.334 0 -36.167 3.5 -50.5 10.5
c-14.334 7 -26.167 15.833 -35.5 26.5c-8.66699 9.33301 -16 23.166 -22 41.499s-9 44.833 -9 79.5c0 50 0.833008 98.833 2.5 146.5s4.16699 91.5 7.5 131.5c-16.667 -3.33301 -30.334 -5 -41.001 -5c-11.333 0 -25.333 1.66699 -42 5
c0.666992 -28 1.16699 -55.667 1.5 -83s0.5 -52.666 0.5 -75.999c0 -24.667 -0.5 -49.5 -1.5 -74.5s-1.5 -55.167 -1.5 -90.5z" />
    <glyph glyph-name="uacute" unicode="&#xfa;" 
d="M357 708l-147 -149h42l147 94c8 5.33301 16 11.5 24 18.5s12 16.5 12 28.5c0 10.667 -3.83301 18.667 -11.5 24c-7.66797 5.33301 -14.835 8 -21.5 8c-14 0 -29 -8 -45 -24zM76 149c0 -52 14.8359 -91.834 44.5029 -119.501s70.5 -41.5 122.5 -41.5
c32 0 61.667 7.5 89 22.5c27.334 15 49.667 38.5 67 70.5h2v-43c0 -7.33301 -0.166992 -14.333 -0.5 -21s-0.833008 -13 -1.5 -19c13.333 1.33301 26.333 2 39 2s25.667 -0.666992 39 -2c-1.33301 26.667 -2.33301 54.334 -3 83.001s-1 58 -1 88
c0 54 0.333008 105.167 1 153.5s2.66699 98.5 6 150.5c-6.66992 -1.33301 -13.3369 -2.5 -20 -3.5c-6.66699 -1 -13.667 -1.5 -21 -1.5s-14.333 0.5 -21 1.5s-13.667 2.16699 -21 3.5c0.666992 -12 1.16699 -24.667 1.5 -38s0.5 -27.333 0.5 -42v-84
c0 -39.333 -0.166992 -70.333 -0.5 -93s-1.33301 -40.667 -3 -54c-1.67285 -13.333 -3.83984 -24 -6.50098 -32c-2.66992 -8 -6.33691 -17.667 -11.001 -29c-8.66699 -18 -22.334 -33.167 -41 -45.5c-18.667 -12.333 -42 -18.5 -70 -18.5c-19.334 0 -36.167 3.5 -50.5 10.5
c-14.334 7 -26.167 15.833 -35.5 26.5c-8.66699 9.33301 -16 23.166 -22 41.499s-9 44.833 -9 79.5c0 50 0.833008 98.833 2.5 146.5s4.16699 91.5 7.5 131.5c-16.667 -3.33301 -30.334 -5 -41.001 -5c-11.333 0 -25.333 1.66699 -42 5
c0.666992 -28 1.16699 -55.667 1.5 -83s0.5 -52.666 0.5 -75.999c0 -24.667 -0.5 -49.5 -1.5 -74.5s-1.5 -55.167 -1.5 -90.5z" />
    <glyph glyph-name="ucircumflex" unicode="&#xfb;" 
d="M278 664l120 -105h37l-123 167h-67l-123 -167h37zM76 149c0 -52 14.8359 -91.834 44.5029 -119.501s70.5 -41.5 122.5 -41.5c32 0 61.667 7.5 89 22.5c27.334 15 49.667 38.5 67 70.5h2v-43c0 -7.33301 -0.166992 -14.333 -0.5 -21s-0.833008 -13 -1.5 -19
c13.333 1.33301 26.333 2 39 2s25.667 -0.666992 39 -2c-1.33301 26.667 -2.33301 54.334 -3 83.001s-1 58 -1 88c0 54 0.333008 105.167 1 153.5s2.66699 98.5 6 150.5c-6.66992 -1.33301 -13.3369 -2.5 -20 -3.5c-6.66699 -1 -13.667 -1.5 -21 -1.5s-14.333 0.5 -21 1.5
s-13.667 2.16699 -21 3.5c0.666992 -12 1.16699 -24.667 1.5 -38s0.5 -27.333 0.5 -42v-84c0 -39.333 -0.166992 -70.333 -0.5 -93s-1.33301 -40.667 -3 -54c-1.67285 -13.333 -3.83984 -24 -6.50098 -32c-2.66992 -8 -6.33691 -17.667 -11.001 -29
c-8.66699 -18 -22.334 -33.167 -41 -45.5c-18.667 -12.333 -42 -18.5 -70 -18.5c-19.334 0 -36.167 3.5 -50.5 10.5c-14.334 7 -26.167 15.833 -35.5 26.5c-8.66699 9.33301 -16 23.166 -22 41.499s-9 44.833 -9 79.5c0 50 0.833008 98.833 2.5 146.5
s4.16699 91.5 7.5 131.5c-16.667 -3.33301 -30.334 -5 -41.001 -5c-11.333 0 -25.333 1.66699 -42 5c0.666992 -28 1.16699 -55.667 1.5 -83s0.5 -52.666 0.5 -75.999c0 -24.667 -0.5 -49.5 -1.5 -74.5s-1.5 -55.167 -1.5 -90.5z" />
    <glyph glyph-name="udieresis" unicode="&#xfc;" 
d="M129 637c0 -14 5 -26 15 -36s22 -15 36 -15s26 5 36 15s15 22 15 36s-5 26 -15 36s-22 15 -36 15s-26 -5 -36 -15s-15 -22 -15 -36zM326 637c0 -14 5 -26 15 -36s22 -15 36 -15s26 5 36 15s15 22 15 36s-5 26 -15 36s-22 15 -36 15s-26 -5 -36 -15s-15 -22 -15 -36z
M76 149c0 -52 14.8359 -91.834 44.5029 -119.501s70.5 -41.5 122.5 -41.5c32 0 61.667 7.5 89 22.5c27.334 15 49.667 38.5 67 70.5h2v-43c0 -7.33301 -0.166992 -14.333 -0.5 -21s-0.833008 -13 -1.5 -19c13.333 1.33301 26.333 2 39 2s25.667 -0.666992 39 -2
c-1.33301 26.667 -2.33301 54.334 -3 83.001s-1 58 -1 88c0 54 0.333008 105.167 1 153.5s2.66699 98.5 6 150.5c-6.66992 -1.33301 -13.3369 -2.5 -20 -3.5c-6.66699 -1 -13.667 -1.5 -21 -1.5s-14.333 0.5 -21 1.5s-13.667 2.16699 -21 3.5
c0.666992 -12 1.16699 -24.667 1.5 -38s0.5 -27.333 0.5 -42v-84c0 -39.333 -0.166992 -70.333 -0.5 -93s-1.33301 -40.667 -3 -54c-1.67285 -13.333 -3.83984 -24 -6.50098 -32c-2.66992 -8 -6.33691 -17.667 -11.001 -29c-8.66699 -18 -22.334 -33.167 -41 -45.5
c-18.667 -12.333 -42 -18.5 -70 -18.5c-19.334 0 -36.167 3.5 -50.5 10.5c-14.334 7 -26.167 15.833 -35.5 26.5c-8.66699 9.33301 -16 23.166 -22 41.499s-9 44.833 -9 79.5c0 50 0.833008 98.833 2.5 146.5s4.16699 91.5 7.5 131.5
c-16.667 -3.33301 -30.334 -5 -41.001 -5c-11.333 0 -25.333 1.66699 -42 5c0.666992 -28 1.16699 -55.667 1.5 -83s0.5 -52.666 0.5 -75.999c0 -24.667 -0.5 -49.5 -1.5 -74.5s-1.5 -55.167 -1.5 -90.5z" />
    <glyph glyph-name="yacute" unicode="&#xfd;" horiz-adv-x="500" 
d="M329 708l-146.999 -149h42l147 94c8 5.33301 16 11.5 24 18.5s12 16.5 12 28.5c0 10.667 -3.83301 18.667 -11.5 24s-14.834 8 -21.501 8c-14 0 -29 -8 -45 -24zM222.001 -3c-36.667 -87.333 -81.3311 -174.666 -133.998 -261.999c13.333 3.33301 24.666 5 33.999 5
s20.666 -1.66699 33.999 -5c5.33301 16.667 13.5 39.167 24.5 67.5s23.833 60 38.5 95s30.667 72 48 111s34.833 78.333 52.5 118s35 78.334 52 116.001s32.667 72 47 103c14.334 31 26.667 57.667 36.999 80c10.333 22.334 17.833 38.167 22.5 47.499
c-13.333 -3.33301 -24.333 -5 -33 -5s-19.667 1.66699 -33 5c-20 -64 -42.833 -129.333 -68.5 -196s-52.5 -129.334 -80.5 -188.001c-28 66.667 -54.667 131.334 -80 194.001s-48.333 126 -69 190c-8.66699 -1.33301 -16.667 -2.5 -24 -3.5s-14.666 -1.5 -21.999 -1.5
s-14.666 0.5 -21.999 1.5s-15.333 2.16699 -24 3.5c4.66699 -10.667 11.667 -27 21 -49s20.166 -47.5 32.499 -76.5s25.5 -60 39.5 -93s27.667 -65.333 41 -97s25.833 -61.834 37.5 -90.501s21.167 -52 28.5 -70z" />
    <glyph glyph-name="thorn" unicode="&#xfe;" 
d="M426 238c0 -30 -2.83301 -58.168 -8.5 -84.501c-5.66797 -26.333 -14.335 -49.333 -26 -69c-11.668 -19.667 -26.335 -35 -44 -46c-17.667 -11 -38.5 -16.5 -62.5 -16.5c-97.333 0 -146 69.333 -146 208c0 28.667 2.66699 55.834 8 81.501s14 48 26 67
s27.5 34.167 46.5 45.5s41.833 17 68.5 17c16 0 32.333 -3 49 -9s31.5 -16.833 44.5 -32.5s23.667 -36.5 32 -62.5s12.5 -59 12.5 -99zM65 463.999l0.00292969 -444.001c0 -21.333 -0.166992 -45.166 -0.5 -71.499s-0.833008 -52.5 -1.5 -78.5s-1.5 -50.833 -2.5 -74.5
s-2.16699 -43.834 -3.5 -60.501c18.667 3.33301 33.667 5 45 5s26.333 -1.66699 45 -5c-1.33301 16.667 -2.5 36.834 -3.5 60.501s-1.83301 48.5 -2.5 74.5s-1.16699 52.167 -1.5 78.5s-0.5 50.166 -0.5 71.499v63h2c31.333 -63.333 83.666 -95 156.999 -95
c26 0 52 4.83301 78 14.5s49.167 24.834 69.5 45.501s36.833 46.667 49.5 78s19 68.333 19 111s-5.83301 79.5 -17.5 110.5s-27 56.5 -46 76.5s-40.833 34.833 -65.5 44.5s-49.667 14.5 -75 14.5c-24.667 0 -46.667 -3.66699 -66 -11s-35.833 -16.5 -49.5 -27.5
s-24.834 -22.667 -33.501 -35s-15.334 -23.833 -20.001 -34.5h-2v89c0 22.667 0.166992 47.334 0.5 74.001s0.833008 53 1.5 79s1.5 50.833 2.5 74.5c1 23.6689 2.16699 43.8359 3.5 60.5c-18.667 -3.33301 -33.667 -5 -45 -5s-26.333 1.66699 -45 5
c1.33301 -16.667 2.5 -36.834 3.5 -60.501s1.83301 -48.5 2.5 -74.5c0.667969 -26 1.16797 -52.333 1.5 -79c0.333008 -26.667 0.5 -51.334 0.5 -74z" />
    <glyph glyph-name="ydieresis" unicode="&#xff;" horiz-adv-x="500" 
d="M101 637c0 -14 5 -26 15 -36s22 -15 36 -15s26 5 36 15s15 22 15 36s-5 26 -15 36s-22 15 -36 15s-26 -5 -36 -15s-15 -22 -15 -36zM298 637c0 -14 5 -26 15 -36s22 -15 36 -15s26 5 36 15s15 22 15 36s-5 26 -15 36s-22 15 -36 15s-26 -5 -36 -15s-15 -22 -15 -36z
M222 -3c-36.667 -87.333 -81.3311 -174.666 -133.998 -261.999c13.333 3.33301 24.666 5 33.999 5s20.666 -1.66699 33.999 -5c5.33301 16.667 13.5 39.167 24.5 67.5s23.833 60 38.5 95s30.667 72 48 111s34.833 78.333 52.5 118s35 78.334 52 116.001s32.667 72 47 103
c14.334 31 26.667 57.667 36.999 80c10.333 22.334 17.833 38.167 22.5 47.499c-13.333 -3.33301 -24.333 -5 -33 -5s-19.667 1.66699 -33 5c-20 -64 -42.833 -129.333 -68.5 -196s-52.5 -129.334 -80.5 -188.001c-28 66.667 -54.667 131.334 -80 194.001
s-48.333 126 -69 190c-8.66699 -1.33301 -16.667 -2.5 -24 -3.5s-14.666 -1.5 -21.999 -1.5s-14.666 0.5 -21.999 1.5s-15.333 2.16699 -24 3.5c4.66699 -10.667 11.667 -27 21 -49s20.166 -47.5 32.499 -76.5s25.5 -60 39.5 -93s27.667 -65.333 41 -97
s25.833 -61.834 37.5 -90.501s21.167 -52 28.5 -70z" />
    <glyph glyph-name="dotlessi" unicode="&#x131;" horiz-adv-x="278" 
d="M102 286v-104c0 -30 -0.5 -61.5 -1.5 -94.5s-3.16699 -62.833 -6.5 -89.5c15.333 1.33301 30.333 2 45 2s29.667 -0.666992 45 -2c-3.33301 26.667 -5.5 56.5 -6.5 89.5s-1.5 64.5 -1.5 94.5v104c0 30 0.5 61.5 1.5 94.5s3.16699 63.833 6.5 92.5
c-18.667 -3.33301 -33.667 -5 -45 -5s-26.333 1.66699 -45 5c3.33301 -28.667 5.5 -59.5 6.5 -92.5s1.5 -64.5 1.5 -94.5z" />
    <glyph glyph-name="Lslash" unicode="&#x141;" horiz-adv-x="500" 
d="M98 426v-89.001l-50 -28c-16.667 -9.33301 -33.334 -19 -50.001 -29c8 -13.333 14.333 -25.666 19 -36.999c5.33301 5.33301 15.333 12.833 30 22.5s31.667 20.167 51 31.5v-43c0 -44 -0.833008 -87.333 -2.5 -130s-3.5 -84.667 -5.5 -126c32 1.33301 62.833 2 92.5 2
h92.5h92c30.667 -0 61.334 -0.666992 92.001 -2c-3.33301 10.667 -5 19.667 -5 27c0 8 1.66699 18 5 30c-50 -6.66699 -96.667 -10.5 -140 -11.5s-88.666 -1.5 -135.999 -1.5c-0.666992 28.667 -1.33398 59.834 -2.00098 93.501s-1 74.5 -1 122.5v90
c25.333 14.667 48.666 28 69.999 40s39 21.667 53 29c-3.33301 5.33301 -6.66602 11 -9.99902 17s-6.33301 12.333 -9 19c-19.333 -12.667 -37.5 -24.5 -54.5 -35.5s-33.5 -21.167 -49.5 -30.5v39c0 44 0.833008 87.167 2.5 129.5s3.5 85.5 5.5 129.5
c-8.66699 -1.33301 -17 -2.5 -25 -3.5s-16 -1.5 -24 -1.5s-16 0.5 -24 1.5s-16.333 2.16699 -25 3.5c2 -44 3.83301 -87.167 5.5 -129.5c1.66699 -42.334 2.5 -85.501 2.5 -129.501z" />
    <glyph glyph-name="lslash" unicode="&#x142;" horiz-adv-x="278" 
d="M102 327l0.00195312 -44.001c0 -22.667 -0.166992 -47.334 -0.5 -74.001s-0.833008 -53 -1.5 -79s-1.5 -50.667 -2.5 -74s-2.16699 -42.666 -3.5 -57.999c15.333 1.33301 30.333 2 45 2s29.667 -0.666992 45 -2c-1.33301 15.333 -2.5 34.666 -3.5 57.999
s-1.83301 48 -2.5 74s-1.16699 52.333 -1.5 79s-0.5 51.334 -0.5 74.001v93c22 14 40.5 25.167 55.5 33.5c15 8.33496 26.5 15.168 34.5 20.5c-4.66895 4 -8.83594 8.83301 -12.501 14.5c-3.66699 5.66699 -5.5 11.167 -5.5 16.5c-10 -7.33301 -20.833 -14.833 -32.5 -22.5
s-24.834 -16.167 -39.501 -25.5v51c0 22.667 0.166992 47.334 0.5 74.001s0.833008 53 1.5 79s1.5 50.833 2.5 74.5c1 23.6699 2.16699 43.8369 3.5 60.501c-18.667 -3.33301 -33.667 -5 -45 -5s-26.333 1.66699 -45 5c1.33301 -16.667 2.5 -36.834 3.5 -60.501
s1.83301 -48.5 2.5 -74.5s1.16699 -52.333 1.5 -79s0.5 -51.334 0.5 -74v-99c-15.333 -10 -30.833 -19.667 -46.5 -29s-30.167 -18 -43.5 -26c4.66699 -4.66895 8.33398 -9.33594 11.001 -14c2.66699 -4.66699 5.33398 -9.66699 8.00098 -15
c5.33301 3.33301 14.666 9.33301 27.999 18s27.666 18 42.999 28z" />
    <glyph glyph-name="OE" unicode="&#x152;" horiz-adv-x="1000" 
d="M140 340c0 55.334 7.00195 103.169 21.002 143.502s33.333 73.666 58 99.999s53.5 45.833 86.5 58.5s68.5 19 106.5 19c35.334 0 68.167 -5.66699 98.5 -17s56.666 -29.833 78.999 -55.5s39.833 -58.834 52.5 -99.501s19 -90.334 19 -149c0 -48 -6 -91.667 -18 -131
s-29.333 -73.166 -52 -101.499s-50 -50.166 -82 -65.499s-68 -23 -108 -23c-35.333 0 -68.833 6.33301 -100.5 19s-59.334 32.167 -83.001 58.5s-42.5 59.666 -56.5 99.999s-21 88.166 -21 143.499zM735.002 238.002l0.00292969 101.005c40.667 0 73.5 -0.166992 98.5 -0.5
s45.333 -0.833008 61 -1.5s28.167 -1.5 37.5 -2.5s18.666 -1.83301 27.999 -2.5c-3.33301 11.335 -5 20.668 -5 28c0 7.33496 1.66699 16.668 5 28c-8.66699 -0.666992 -17.667 -1.5 -27 -2.5s-21.833 -1.83301 -37.5 -2.5s-36 -1.16699 -61 -1.5s-58.167 -0.5 -99.5 -0.5
v82c0 30 0.5 59.167 1.5 87.5s2.16699 57.5 3.5 87.5c42 0 76.333 -0.333008 103 -1s48.5 -1.83398 65.5 -3.50098s30.667 -3.33398 41 -5.00098s20.5 -3.5 30.5 -5.5c-3.33301 12 -5 22.333 -5 31s1.66699 19 5 31c-28 -1.33301 -55 -2.5 -81 -3.5s-53 -1.5 -81 -1.5
s-55.333 0.5 -82 1.5s-54 2.16699 -82 3.5c1.33301 -16 2.33301 -32 3 -48s1 -32 1 -48l-2 -2c-6 8 -14.5 18.167 -25.5 30.5s-26.333 24.5 -46 36.5s-44.334 22.333 -74.001 31s-65.5 13 -107.5 13c-52 0 -100 -8 -144 -24s-82 -39.667 -114 -71s-57.167 -70 -75.5 -116
s-27.5 -99 -27.5 -159c0 -54 9 -102.333 27 -145s42.5 -78.834 73.5 -108.501s67.5 -52 109.5 -67s86.667 -22.5 134 -22.5c37.333 0 69.833 3.33301 97.5 10s52 15.5 73 26.5s39.167 23 54.5 36s28.666 25.5 39.999 37.5l2 -2c0 -16.667 -0.5 -33 -1.5 -49
s-2.16699 -31.333 -3.5 -46c30 1.33301 58.833 2 86.5 2h84.5h84c28 0 56 -0.666992 84 -2c-1.33301 3.33301 -2.5 7.16602 -3.5 11.499s-1.5 9.16602 -1.5 14.499s0.5 10.166 1.5 14.499s2.16699 9.16602 3.5 14.499c-16 -2.66699 -43 -5.16699 -81 -7.5
s-93.333 -3.5 -166 -3.5c-1.33301 32.667 -2.5 65.334 -3.5 98.001s-1.5 65.334 -1.5 98.001z" />
    </font>
</defs>
</svg>
